<?xml version="1.0" encoding="UTF-8" standalone="no"?>
<!DOCTYPE svg PUBLIC "-//W3C//DTD SVG 1.1//EN" "http://www.w3.org/Graphics/SVG/1.1/DTD/svg11.dtd">
<svg width="100%" height="100%" viewBox="0 0 575 575" version="1.1" xmlns="http://www.w3.org/2000/svg" xmlns:xlink="http://www.w3.org/1999/xlink" xml:space="preserve" xmlns:serif="http://www.serif.com/" style="fill-rule:evenodd;clip-rule:evenodd;stroke-linejoin:round;stroke-miterlimit:2;">
    <g>
        <g>
            <path d="M163.1,221C153,221 151,220.8 151,219.5C151,218.6 150.1,218 148.5,218C146.9,218 146,218.6 146,219.5C146,220.7 144.4,221 137.5,221C133.509,221 130.474,221.255 129.411,221.663C129.266,222.09 129.126,222.573 129,223.1C124.2,241.3 116.5,251.6 102.1,258.7C95.2,262.1 93.9,262.4 84.6,262.6C78.3,262.8 72.8,262.4 70,261.6C44.7,254.2 30.5,228.1 38,202.9C40.3,195.2 46.5,185.4 51.8,181C53.8,179.3 58.8,176.3 62.9,174.3C69.5,171.1 71.5,170.6 80.1,170.2C90.8,169.7 96.5,171 105.6,176.1C111.5,179.4 119.5,187.5 123.2,194C125.753,198.355 127.967,204.908 128.574,209.384C128.834,209.624 129,209.995 129,210.5C129,211.8 132,212 150.4,212C163.541,212 169.51,211.803 171.509,211.247C171.857,210.372 172.241,208.811 172.5,207C173.6,199.2 178.9,189.2 185.3,183.2C191.3,177.6 202.9,171.4 209.3,170.4L213,169.7L213,162.1C213,157.686 213.172,154.673 213.578,152.759C213.267,149.389 213.025,143.764 212.9,137.2L212.61,123.989C211.92,123.306 210.807,122.946 208.9,122.7C198.9,121.4 184.2,111.1 178.6,101.6C170.4,87.7 169.8,70.6 176.8,56.2C184.3,40.8 201.8,30 219.1,30C232,30 246.7,37.6 255.2,48.7C272.4,71.4 266,103.1 241.2,117.7C236.984,120.184 229.425,122.555 224.964,123.063C224.769,123.237 224.547,123.416 224.3,123.6C222.7,124.7 222.5,127 222.5,147C222.5,162.815 222.649,167.875 223.529,169.474C230.585,170.63 242.181,175.535 248,180.5C256.521,187.68 263.483,200.361 264.149,209.766C264.407,209.985 264.636,210.237 264.8,210.5C265.5,211.8 268.7,212 286.6,211.8L307.5,211.5L307.8,202.3C308.1,193.8 308.2,193 310.1,193C312,193 312,193.6 311.8,204.7L311.5,216.5L308.5,217.1L305.5,217.8L308.3,217.9C310.7,218 311,218.4 311,221.5C311,223.9 310.5,225 309.5,225C308.7,225 308,224.3 308,223.4C308,222.5 307.1,221.6 306,221.3C304.9,221 304,220.1 304,219.4C304,218.6 303.6,218 303,218C302.5,218 302,218.7 302,219.5C302,220.8 299.9,221 289.5,221C279.1,221 277,220.8 277,219.5C277,219.457 276.999,219.415 276.996,219.373C276.952,221.108 276.376,221.181 271.9,220.8C271.613,220.772 271.336,220.747 271.07,220.726C270.552,220.931 269.767,221 268.6,221C267.621,221 266.669,221.159 265.948,221.41C264.625,222.301 264.022,224.07 263.5,227.2C261,242 246.2,257.4 230.5,261.5C227.2,262.3 224,263.7 223.4,264.5C223.152,264.831 222.901,265.104 222.649,265.32C222.91,269.782 223.067,277.511 223,286L222.9,309L231,309C232.736,309 234.095,309 235.159,309.027C236.364,309.009 237.648,309 239,309C250.2,309 255,308.6 257.7,307.5C258.582,307.147 259.424,306.853 260.108,306.651C260.321,306.496 260.554,306.374 260.8,306.3C261.7,305.9 264.2,304.6 266.3,303.3C267.22,302.731 268.14,302.257 268.917,301.93C269.574,301.342 270.53,300.642 271.6,300C274.2,298.3 275.4,298 276.3,298.9C276.524,299.124 276.665,299.398 276.734,299.707C276.902,299.919 277,300.183 277,300.5C277,301.3 275.4,304.5 273.5,307.5C269.3,314 266,321.4 266,324.1C266,324.337 265.977,324.551 265.93,324.743C265.914,327.603 265.937,332.237 266,337.3C266.023,340.093 266.025,342.385 266,344.25L266,352L285,352C303.3,352 304,352.1 304,354C304,355.9 303.3,356 288.8,356C280.4,356 271.3,356.3 268.5,356.6C265.1,357 263.1,356.8 262.3,355.9C261.4,355 261,351.1 261,343.8L261,333L262.054,333C262.108,330.256 262.203,327.79 262.339,325.596C261.915,325.074 261.998,323.9 262.3,321.3C262.512,319.46 262.925,317.77 263.361,316.869C263.823,314.668 264.402,313.225 265.099,312.516C265.252,311.647 265.576,310.824 266,310.4C266.424,309.976 266.049,309.751 264.873,309.728C264.55,309.898 264.193,310.089 263.8,310.3C259.9,312.3 257.9,312.5 240.3,312.8L239,312.822L239,314L203,314L203,312.728L198.4,312.8C190.878,312.886 186.197,312.917 182.958,312.77C182.526,312.916 181.975,313 181.3,313C179.203,313 176.588,312.33 174.666,311.477L172.986,315.425C174.329,318.66 175,326.765 175,339.3C175,353.5 174.8,356 173.5,356C172.7,356 172,356.5 172,357C172,357.6 172.7,358 173.5,358C175.097,358 175.543,373.191 174.954,385.361C174.985,385.702 175,386.081 175,386.5C175,387.162 174.923,387.748 174.792,388.244C174.474,393.119 173.973,397.192 173.3,399.1C172.802,400.493 172.404,401.501 172.006,402.227L172.009,402.379C172.015,402.569 172.016,402.641 172.025,402.828C172.032,402.96 172.041,403.094 172.052,403.225C172.064,403.36 172.073,403.436 172.091,403.569C172.147,403.987 172.263,404.606 172.758,404.707C172.881,404.732 173.005,404.723 173.128,404.705L173.133,404.704C174.07,403.591 179.732,402 183.3,402C184.143,402 184.756,402.089 185.182,402.304L185.565,402.286C190.106,402.092 194.656,402.147 199.2,402.2L206.471,402.326C209.008,402.027 214.139,402 224.5,402C227.85,402 230.654,402.003 233.001,402.017C234.651,402.005 236.54,402 238.7,402C253.624,402 262.753,403.147 265.83,405.338C265.99,404.781 265.515,403.777 264.5,402C264.241,401.551 264.016,401.057 263.824,400.538C263.238,400.091 262.886,399.274 262.6,397.9C262.3,396.2 262,386.5 262,376.4L262,358L265.5,358C267.9,358 269,358.5 269,359.5C269,360.3 268.3,361 267.5,361C266.1,361 265.9,363.4 266,379C266.073,386.226 266.306,392.493 266.582,395.351C267.009,396.063 267.433,396.898 267.8,397.8C269,400.4 271.5,405.1 273.6,408.2C273.687,408.337 273.772,408.473 273.855,408.606C274.416,409.173 275.062,410.083 275.6,411.1C276.441,412.781 276.78,413.668 276.589,414.274C276.821,415.597 276.189,416.083 274.671,415.745C273.752,416.111 273.077,415.823 271.904,414.708C270.63,414.108 269.097,413.271 267.3,412.2C265.267,410.998 263.727,409.949 262.692,409.071C261.622,408.751 260.111,408.275 258.5,407.7C255.591,406.759 250.707,406.111 243.096,405.756C241.574,405.978 238.852,406 234,406L223,406L223,447.7L224.847,448.115C225.019,448.042 225.239,448 225.5,448C226.127,448 226.56,448.194 226.629,448.515L227.9,448.8C230.467,449.385 232.991,450.21 235.439,451.243C235.768,451.048 235.88,451.103 235.774,451.385C238.063,452.371 240.287,453.54 242.419,454.867C241.709,453.702 241.863,453.746 243.6,455C244.394,455.635 245.88,456.963 247.21,458.234C253.624,463.294 258.871,469.826 262.084,477.003C262.724,477.049 262.988,477.629 262.7,478.3C262.691,478.328 262.683,478.358 262.677,478.391C263.371,480.099 263.949,481.839 264.4,483.6C264.468,483.863 264.534,484.126 264.599,484.393C264.829,485.016 264.949,485.503 264.9,485.7L264.898,485.708C270.249,510.805 254.904,535.66 230,541.4L224,542.8L224,542.563C220.854,543.067 215.551,543.108 212.601,542.688C212.511,542.825 212.409,542.9 212.3,542.9C211.8,542.8 210.3,542.5 208.8,542.3C207.786,542.148 207.081,541.893 206.632,541.496C204.827,541.175 202.485,540.432 201.122,539.741C199.919,539.493 198.002,538.558 195,536.9C194.229,536.478 193.474,536.04 192.739,535.586C192.257,535.67 191.758,535.354 191.478,534.781C177.628,525.64 170.183,510.496 171.2,493.3C171.547,487.748 172.83,481.829 174.316,477.823C174.311,477.815 174.305,477.807 174.3,477.8C174.156,477.44 174.271,477.184 174.607,477.069C174.974,476.156 175.351,475.365 175.726,474.73C176.195,473.383 177.377,471.429 179.024,469.292C179.008,469.261 179,469.231 179,469.2C179,468.1 191.2,456 192.3,456C192.343,456 192.384,456.017 192.424,456.05C195.421,453.95 199.613,451.811 202.877,450.801C204.388,450.204 207.007,449.522 211.4,448.5L213.833,447.997C213.938,447.794 214,447.557 214,447.3C214,447.004 214.089,446.726 214.231,446.503L213.7,435.8C213.3,429.1 213,419.7 213,414.8L213,406L208.5,406C206.542,406 205.407,405.92 204.767,405.611L197.7,405.7C190.981,405.777 184.978,406.033 182.362,406.285C181.374,406.549 180.126,406.985 178.751,407.535C178.837,407.895 178.59,408.006 178.013,407.835C174.409,409.331 170.124,411.498 167.3,413.4C166.801,413.743 166.324,414.053 165.869,414.327L165.872,414.344C165.883,414.42 165.893,414.495 165.898,414.571C165.901,414.631 165.902,414.691 165.895,414.75C165.892,414.784 165.886,414.818 165.875,414.85C165.841,414.952 165.759,414.979 165.666,414.93C165.532,414.861 165.443,414.74 165.305,414.673L165.287,414.666C162.663,416.139 160.874,416.358 160.248,415.293L160.235,415.28C160.009,415.016 160.004,414.627 160,414.3L160.001,414.265L160,414.2C160,413.752 160.212,413.226 160.584,412.661L160.637,412.548C161.413,410.964 162.309,409.438 163.236,407.938C164.266,406.272 165.345,404.63 166.528,403.067L166.535,403.057L168.5,398.8C170.8,393.9 171,392.3 171,377.8L171,362L153.5,362C143.105,362 138.885,362 137.15,361.539C136.547,361.535 135.897,361.521 135.2,361.5C134.629,361.472 134.117,361.454 133.657,361.447C133.179,361.79 132.658,362 132.2,362C130.7,362 130.1,362.9 129.7,366C129.284,369.066 127.599,373.375 125.304,377.649C124.949,378.898 124.26,380.02 123.7,380.5L123.664,380.523C123.083,381.484 122.478,382.428 121.855,383.339C121.337,384.498 120.409,385.836 120.099,385.767C119.374,386.711 118.637,387.596 117.9,388.4C111.9,395 105.5,399.2 97.3,401.9C92.497,403.521 89.388,404.169 87.67,403.886C84.451,404.697 82.992,405.012 81.846,404.83C81.831,404.876 81.816,404.9 81.8,404.9C81.6,404.8 78.8,404.4 75.5,403.9C73.724,403.636 71.968,403.26 70.242,402.777C69.749,402.887 69.323,402.76 69.123,402.448C68.157,402.15 67.202,401.82 66.26,401.458C65.911,401.388 65.564,401.252 65.258,401.061C51.533,395.425 40.372,383.101 36.5,368.5C34.767,361.567 34.615,360.21 36.423,360.025L38.367,346C36.198,345.997 36.003,345.688 36.6,343.3C37.224,340.804 39.146,336.699 41.329,332.756L41.315,332.718C41.221,332.393 41.394,332.159 41.7,332.054L41.725,332.047C44.624,326.909 47.864,322.234 49.11,322.009L49.195,321.93C50.722,320.527 52.313,319.197 53.929,317.899L54.095,317.767C54.324,317.576 54.56,317.386 54.8,317.2L58,314.7L58,314.866L58.025,314.849C58.535,314.513 59.078,314.107 59.672,313.929C59.796,313.892 59.922,313.886 60.051,313.871C60.292,313.842 60.533,313.809 60.774,313.774L60.801,313.77C63.196,312.298 67.634,310.6 71.984,309.584L72.018,309.566C72.909,309.117 73.951,309.05 74.929,308.989L75.032,308.983C77.244,308.605 78.225,308.534 78.659,308.916L79.197,308.918C80.476,308.928 81.755,308.944 83.033,308.966C84.499,308.992 85.96,309.014 87.422,309.116C90.731,309.345 94.034,309.86 97.235,310.739C99.917,311.475 102.659,312.45 104.931,314.094L104.949,314.107C105.601,314.394 106.922,315.225 108.382,316.222L108.385,316.218C108.413,316.184 108.447,316.155 108.484,316.131C108.812,315.921 108.965,316.405 108.992,316.639L108.993,316.644C111.466,318.365 114.118,320.399 114.5,321C114.511,321.018 114.521,321.037 114.53,321.055L114.738,321.239C116.578,322.888 118.338,324.643 119.925,326.539L120.057,326.7C120.569,327.154 121.182,327.889 121.9,328.9C122.89,330.293 123.517,331.216 123.736,331.826L123.809,331.937C124.601,333.181 125.272,334.501 125.845,335.859C126.29,336.915 126.686,338.003 126.907,339.129L126.908,339.131C128.258,341.556 129.678,345.733 130.2,350L130.5,352.5L150.8,352.8L171,353L171,337.8C171,321 170.6,319.8 163.5,308C161.6,304.8 160,301.7 160,301.1C160,298.9 164.8,300 170.6,303.5C173.832,305.459 178.023,307.514 180.074,308.161C180.633,307.995 180.952,308.121 180.876,308.425C181.327,308.592 181.733,308.777 182.093,308.975C184.485,309.246 189.995,309.4 197.3,309.4C199.767,309.377 201.921,309.37 203.739,309.379C204.447,309.026 205.825,309 208.5,309L214,309L214,286.1C214,271.359 213.785,265.087 213.171,263.271C212.151,262.922 210.228,262.435 208.2,262C195.1,259.5 182.3,249.7 176.5,237.5C174.5,233.4 172.6,228.2 172.2,225.8C171.5,222.1 171.1,221.4 168.5,221L163.1,221ZM477.5,540.6C469.8,538.7 465.2,536.4 459.5,531.7C453.2,526.6 448.8,520.5 445.3,511.9C441.9,503.4 441.6,489.5 444.8,480.8C449,469.1 457.2,459.5 467.2,454.4C489.2,443.2 513.8,449.8 528.2,470.7C534.8,480.4 537.7,496.8 534.6,507.1C526.9,532.4 502.4,546.8 477.5,540.6ZM312,394.834L312,395.5L395.5,395.5L395.2,386.3C394.9,378.7 395.1,377 396.3,377C398.1,377 399,380 399,386.6C399,390.9 399.7,392.7 403.5,398.5C404.202,399.588 404.807,400.571 405.314,401.451C405.926,401.599 406.58,403.036 406.748,404.251C408.119,407.504 406.811,407.956 402.762,405.669C402.776,405.873 402.702,406 402.5,406C402.264,406 401.905,405.568 401.617,404.994C400.827,404.512 399.955,403.947 399,403.3L393.5,399.5L358.5,399.5L358.2,423.9C358.012,441.67 358.266,447.771 359.045,449.019C364.024,449.96 371.203,452.282 375.9,454.7C382.6,458.2 392.8,468.9 396.2,476.2C411,507.4 388.2,542.4 353.4,541.9C349.6,541.8 344.8,541.4 342.6,540.9C332,538.4 319.1,528.3 313.3,518C307.1,506.8 305.9,491.1 310.5,479.8C313.9,471.3 319.3,463.8 325.1,459.1C329.5,455.6 339.9,451.1 347.3,449.5C348.665,449.197 349.513,448.663 349.842,447.856C350.734,440.716 351.213,419.674 350.5,409.6L349.8,399L333.2,399C321.8,399 315.8,399.4 314.4,400.3C313.219,400.971 311.779,401.764 310.293,402.566C310.159,402.642 310.027,402.712 309.9,402.778C308.921,403.305 307.932,403.831 306.991,404.324C306.938,404.674 306.655,404.828 306.287,404.691C305.177,405.269 304.163,405.786 303.355,406.184C302.701,406.8 302.174,407.038 301.815,406.9C301.653,406.965 301.546,407 301.5,407C300,407 301.4,403.3 304.5,399.3C306.5,396.7 308.3,393.6 308.6,392.3C308.769,391.682 308.994,391.193 309.248,390.83C309.852,388.708 310.821,387 311.6,387C312.6,387 313,388.3 313,391C313,393.565 312.848,394.506 312,394.834ZM240.842,459.136C241.188,459.376 241.515,459.618 241.823,459.859C241.939,459.987 242,460.102 242,460.2C242,460.7 242.6,461 243.4,461C243.542,461 243.685,461.022 243.825,461.064L243.944,461.116C244.006,461.142 244.068,461.169 244.13,461.195L244.223,461.232C244.711,461.503 245.14,461.98 245.4,462.5C245.7,463.3 247.1,464 248.5,464C250.5,464 251,464.5 251,466.4C251,467.8 251.8,469.5 252.8,470.2C255.561,472.224 260.184,483.563 261.449,490.814C261.485,492.544 261.5,494.591 261.5,497C261.5,498.098 261.506,499.168 261.518,500.195C260.79,505.974 258.797,511.879 255.9,516.5C254.3,519 253,521.7 253,522.5C253,522.68 252.97,522.854 252.916,523.017C251.892,523.084 251.393,523.373 251.167,524.192C250.174,524.651 248.475,525.883 246.9,527.3C244.9,529 242.4,531.2 241.4,532C239,533.9 228.5,538 225.9,538C225.029,538 224.472,538.314 224.199,539.033C223.026,538.895 221.563,538.786 219.8,538.7C214.756,538.504 207.439,537.234 202.682,535.961C202.283,535.219 201.467,534.819 200,534.5C198.978,534.244 198.037,533.867 197.492,533.496C197.359,533.36 197.215,533.225 197.061,533.091C197.021,533.025 197,532.961 197,532.9C197,532.4 196.5,532 195.9,532C194.3,532 183,520.9 183,519.3C183,518.6 182.6,518 182.1,518C181.7,518 180,515.2 178.4,511.8C174.5,503.2 174,493 176.9,484.3C177.406,482.824 177.817,481.483 178.135,480.282C179.007,479.258 180.303,477.253 181.5,475C183.1,471.7 184.8,469 185.2,469C185.543,469 185.886,467.75 185.977,466.132C186.141,466.047 186.318,466 186.5,466C187.3,466 188,465.4 188,464.6C188,463.8 189,463 190.3,462.8C191.631,462.643 192.288,462.057 192.606,460.658C194.615,460.136 197.083,459.038 199.6,457.5C202.395,455.833 205.118,454.478 207.593,453.53C209.765,453.146 212.156,452.575 214.03,452.004C214.121,452.001 214.211,452 214.3,452C214.803,452 215.183,451.859 215.455,451.534C216.412,451.186 217.088,450.86 217.3,450.6C217.7,449.9 218.3,450 218.9,450.9C219.4,451.7 222.9,453.1 226.7,454C232.594,455.531 238.429,457.706 240.842,459.136ZM441.87,351.129C444.461,337.27 448.314,329.828 456.4,322.3C475.6,304.5 503,304.8 521.6,322.9C533.8,334.8 538.6,351.5 534.5,367.3C528,392.2 504,407 478.4,402C471.9,400.7 462.2,395.3 456.3,389.8C450.1,383.9 445.8,376.4 443.6,367.8C443.091,365.699 442.541,363.76 442.183,362.577C442.069,362.419 442,362.224 442,362L441.999,361.984L441.938,361.791C441.845,361.635 441.653,361.486 441.392,361.36C439.398,361.235 430.391,360.978 419.8,360.8L402.411,360.558C402.076,360.85 401.603,361 401,361C399.9,361 398.9,361.7 398.9,362.5C398.8,363.3 398.7,364.6 398.6,365.2C398.6,365.496 398.439,365.792 398.185,366.05C398.069,368.389 397.618,369 396.5,369C395.284,369 394.771,365.823 395.004,362.881C395.001,362.636 395,362.375 395,362.1L395,357L399,357C400.44,357 401.386,357.057 401.993,357.263C405.234,357.069 410.218,357 417.9,357L436.24,357L436,356L415.2,355.8L394.5,355.5L394.2,344.3C393.9,333.5 394,333 396,333C397.9,333 398,333.6 398,342.5L398,352L420,352C432.968,352 440.788,351.657 441.87,351.129ZM104.308,319.049L104.477,319.116C104.848,319.832 105.446,320.373 106.3,320.8C107.053,321.176 108.052,321.459 109.094,321.645L109.095,321.647C109.437,322.404 110,323.074 110.523,323.709C111.48,324.871 112.531,325.942 113.6,327C115.4,328.781 117.016,330.774 118.522,332.806C119.217,333.743 119.889,334.701 120.499,335.696C120.984,336.485 121.419,337.302 121.908,338.089C122.295,338.713 122.697,339.33 123.135,339.92C123.397,340.272 123.673,340.664 124.031,340.927L124.035,340.929C124.311,345.922 126.168,355.445 127,356C127.9,356.6 125.1,368.1 123.2,371.7C122.635,372.669 122.2,374.094 122.054,375.186C120.778,376.389 119.422,378.357 118.436,380.378L89.863,399.513C88.241,399.481 86.459,399.475 84.6,399.5C80.107,399.5 76.755,399.411 74.385,399.231C72.655,398.86 70.858,398.404 69.463,397.982C68.994,397.715 68.308,397.478 67.525,397.304C67.268,397.189 67.086,397.086 67,397C66.7,396.6 64.9,395.8 63,395C62.297,394.704 61.54,394.326 60.814,393.917C60.598,393.458 60.176,393.21 59.46,393.091C58.776,392.64 58.189,392.189 57.8,391.8C57.041,391.041 55.878,390.397 54.881,390.131C54.514,388.695 53.326,387.656 51.684,387.288C51.199,386.188 50.199,384.67 49,383.4C47.4,381.5 45.7,378.8 45.4,377.5C45.1,376.1 44.4,375 44,375C43.2,375 40.8,368.4 39.6,362.8C39.444,362.061 39.213,361.473 38.912,361.03L38.918,360.959C39.113,358.717 39.182,356.467 39.392,354.226C39.68,351.148 40.166,348.091 40.846,345.075L40.889,344.887C41.318,344.314 41.693,343.481 42.1,342.3C42.7,340.2 44.8,336.1 46.6,333.2C47.702,331.493 48.602,329.584 49.214,327.832L49.28,327.811C50.708,327.304 51.994,326.381 53.107,325.369C53.573,324.946 53.998,324.481 54.458,324.052C55.313,323.254 56.22,322.513 57.145,321.798L57.319,321.666C57.376,321.629 57.429,321.59 57.478,321.545L57.64,321.423C58.443,320.829 59.26,320.253 60.106,319.721C61.581,318.794 63.097,317.911 64.387,316.725L64.396,316.717C65.591,316.477 66.822,316.069 67.9,315.5C69.5,314.7 72.6,313.8 74.9,313.4C76.429,313.175 77.412,312.95 78.031,312.598L78.035,312.598C80.168,312.537 82.304,312.542 84.435,312.664C85.998,312.753 87.574,312.886 89.105,313.226C90.569,313.552 92.009,313.986 93.431,314.459C95.102,315.015 96.755,315.635 98.369,316.341C99.327,316.759 100.256,317.237 101.2,317.684C102.223,318.169 103.259,318.625 104.308,319.049ZM310,373.5C310,370.7 310.4,370 312,370C313.6,370 314,370.7 314,373.5C314,376.3 313.6,377 312,377C310.4,377 310,376.3 310,373.5ZM135.704,358L135.9,358L135.9,357.5L135.704,358ZM332.981,38.604C330.274,39.035 328,38.904 328,37.8C328,35.9 339.5,30.9 346.8,29.6C349.7,29.1 350,29.3 350,31.5C350,32.642 349.892,33.272 349.299,33.614C350.217,33.477 351.093,33.37 351.9,33.3C354.359,33.064 357.021,33.203 359.74,33.667C359.144,33.356 359,32.773 359,31.7C359,29.7 359.4,29.4 362.5,29.8C365.1,30.1 366,30.7 366,32.1C366,33.6 365.3,34 362.5,34C362.064,34 361.682,33.994 361.345,33.976C366.192,35.02 371.12,37.053 375.3,39.8C380.558,43.277 388.19,50.063 390.387,52.899C389.676,50.13 389.901,46.78 391.3,47.2C393.2,47.8 399.9,61.9 400.9,67.3C401.7,71.8 401.6,72 399.5,72C398.623,72 398.012,71.814 397.571,71.359C398.104,76.094 397.28,81.86 395.1,88.7C393.488,93.655 392.34,96.579 390.526,99.386C391.093,99.111 391.863,99 392.9,99C394.6,99 396,99.3 396,99.6C396,101.1 388.4,110.3 384.6,113.5C379.4,117.7 368.7,122.8 362.9,123.8L358.5,124.6L358.2,146.3L358,168L360.3,168.5C361.6,168.9 368.3,169 375.3,168.8C381.494,168.653 384.667,168.578 386.293,168.813C390.898,168.103 395.166,167.002 397.3,165.9C398.5,165.2 402,163 404.9,160.8C406.601,159.605 407.805,158.804 408.686,158.329C409.943,157.177 411.162,157.186 411.7,158.6C412.143,159.707 411.442,161.903 408.512,167.56C408.289,168.339 407.851,169.143 407.332,169.799C406.521,171.32 405.581,173.044 404.5,175C403.2,177.5 402,180.5 402,181.8C402,182.472 401.894,182.968 401.66,183.317C401.774,185.855 401.831,189.596 401.9,195.1C401.905,196.053 401.909,196.967 401.911,197.841C402,199.234 402,201.308 402,204.4L402,213.8L409.3,214.5C413.2,214.8 422.1,215 428.9,214.8L441.4,214.5L442.348,208.972C442.241,207.865 442.314,207.424 442.594,207.533L442.6,207.5C442.822,206.132 443.088,204.808 443.388,203.552C443.334,202.709 443.413,202.389 443.646,202.514C443.852,201.725 444.07,200.969 444.297,200.252C444.284,199.749 444.38,199.47 444.576,199.406C445.387,197.039 446.297,195.167 447.183,194.073C447.856,192.299 448.788,190.546 449.827,189.09L449.7,189.1L453.9,184.1C454.136,183.82 454.38,183.538 454.632,183.257C454.973,182.455 455.978,181.453 456.89,180.919C457.599,180.234 458.327,179.573 459.046,178.956C459.097,178.897 459.156,178.847 459.222,178.806C460.115,178.048 460.993,177.362 461.806,176.787C463.989,174.871 470.234,172.231 475.8,170.731C476.762,170.246 478.158,169.798 480,169.4C481.802,168.974 483.141,168.649 484.134,168.445C485.769,166.52 501.956,169.51 510.4,173.4C515.353,175.651 525.982,184.552 527.391,187.323C527.815,187.874 528.283,188.532 528.8,189.3C528.867,189.399 528.933,189.498 528.999,189.597C529.451,189.88 529.729,190.294 529.683,190.66C530.077,191.292 530.456,191.935 530.819,192.587C531.384,193.105 531.964,194.134 532.165,195.194C534.027,199.093 535.381,203.285 536.186,207.562C536.271,207.866 536.325,208.177 536.352,208.486C537.35,214.382 537.302,220.405 536.1,226C535.951,226.7 535.782,227.399 535.594,228.092L535.6,228.1C535.781,228.42 535.747,228.766 535.389,228.93L535.355,228.943C535.097,229.822 534.81,230.697 534.495,231.565L534.488,231.619C534.451,231.82 534.384,232.002 534.272,232.173L534.266,232.182C534.023,232.821 533.765,233.456 533.492,234.086L533.5,234.1C533.554,234.171 533.604,234.243 533.637,234.326C533.659,234.379 533.674,234.434 533.678,234.491C533.7,234.798 533.398,234.935 533.143,234.982L533.091,234.989C532.312,236.692 531.427,238.361 530.447,239.984L530.452,239.999C530.512,240.141 530.627,240.25 530.64,240.411C530.67,240.797 530.178,240.937 529.885,240.982L529.824,240.989C528.058,243.767 526.014,246.401 523.748,248.828L523.729,248.892C523.686,249.073 523.647,249.297 523.766,249.46C523.838,249.559 523.923,249.648 523.978,249.758C523.995,249.79 524.026,249.852 523.997,249.886C523.939,249.953 523.742,249.855 523.694,249.836C523.575,249.787 523.463,249.714 523.34,249.676C523.208,249.636 523.067,249.657 522.935,249.684L522.929,249.686C517.096,255.666 509.91,260.278 502.3,262.5C495.1,264.6 491,264.5 491,262.1C491,260.7 491.9,260.1 494.9,259.7C499.8,259.1 515.9,251.9 516,250.3C516,249.7 517.3,248.1 518.9,246.8C520.4,245.5 522.6,243.1 523.6,241.4C524.6,239.8 525.7,238.3 526.1,238C529.1,235.6 533,223.1 533,215.7C533,209.6 529.9,198.8 527.4,196.3C526.71,195.512 526.02,194.238 526.001,193.435C525.684,192.963 525.335,192.482 524.958,191.996C524.779,191.964 524.602,191.732 524.45,191.358C519.166,184.897 509.134,177.572 501.2,174.9C495.666,173.034 489.883,172.41 484.626,173.002C484.037,173.139 483.306,173.264 482.4,173.4C482.05,173.448 481.713,173.493 481.389,173.535C479.668,173.914 478.028,174.436 476.5,175.1C472.006,177.062 468.072,178.985 465.436,180.487C465.111,180.989 464.639,181.317 464,181.5C463.817,181.55 463.64,181.613 463.472,181.687C462.951,182.038 462.554,182.346 462.3,182.6C462.234,182.666 462.16,182.738 462.079,182.816C462.027,182.917 462,183.013 462,183.1C462,183.465 461.52,183.777 460.872,183.918C460.2,184.514 459.443,185.164 458.8,185.7C458.485,185.942 458.124,186.289 457.738,186.713C457.578,187.541 457.217,188.041 456.402,188.352C455.568,189.475 454.738,190.773 454.1,192C452.8,194.5 451,197.2 450.1,198C449.88,198.207 449.653,198.505 449.424,198.885C449.033,201.235 448.365,204.427 447.4,208.7C445.6,216.6 445.6,217.2 447.3,224.7C448.19,228.526 449.159,232.668 449.572,234.662C450.291,235.227 451.012,236.08 451.6,237.2C451.741,237.483 451.895,237.771 452.057,238.058C452.618,238.206 453,238.621 453,239.1C453,239.7 455.9,243.2 459.6,246.7C462.643,249.743 464.333,251.683 465.159,253.177C468.056,253.75 472.121,255.61 473.935,257.167C475.002,257.318 476.179,257.593 477.4,258C479.1,258.5 482.2,259.2 484.3,259.5C487.1,260 488,260.6 488,262C488,263.6 487.3,264 484.8,263.9C483,263.8 480.6,263.6 479.5,263.3C478.668,263.137 477.827,262.931 477.004,262.695C476.654,262.638 476.318,262.539 476.016,262.395C474.054,261.767 472.251,260.992 470.964,260.25C468.991,259.701 467.21,258.907 465.556,257.836L465.5,258.3L460.5,254.3C457.8,252.1 454,248.6 452.1,246.5C452.011,246.396 451.921,246.289 451.83,246.179C451.209,245.596 450.757,245.001 450.587,244.541C450.179,243.965 449.764,243.344 449.348,242.69C448.507,242.044 447.599,240.458 446.975,238.612C444.779,234.515 442.911,230.084 442.4,227.3L441.8,224L421.9,224C404.9,224 402,224.2 402,225.5C402,225.767 401.911,226.023 401.751,226.245C401.602,228.449 401.613,232.119 401.7,238.2C401.9,252.9 402,253.5 405,259.6C405.996,261.65 406.854,263.596 407.394,264.918C408.234,265.754 409.219,267.099 410.221,268.861C410.373,269.043 410.482,269.234 410.539,269.423C410.878,270.029 411.17,270.592 411.417,271.113C411.573,271.22 411.649,271.393 411.636,271.592C411.867,272.114 412.048,272.589 412.18,273.017C412.637,273.108 412.768,273.554 412.5,274C412.476,274.039 412.45,274.077 412.423,274.114C412.568,275.376 412.046,276 410.9,276C410.3,276 406.6,274 402.7,271.7C402.253,271.427 401.822,271.164 401.405,270.913C401.301,270.93 401.205,270.872 401.133,270.75C392.158,265.359 389.627,265 374,265C361.4,265 359.1,265.2 358.6,266.6C358.3,267.5 358,277.3 358,288.5L358,308.8L362.106,309.106C362.38,309.102 362.678,309.1 363,309.1C365.5,309.161 366.513,309.222 366.31,309.419L367.4,309.5C372.5,309.9 378.6,310 380.9,309.6C382.575,309.361 383.586,309.282 384.184,309.44C385.737,309.172 387.641,308.993 389.9,308.9C391.549,308.852 393.033,308.732 394.124,308.577C395.198,307.649 396.695,306.55 398.6,305.3C402.1,302.9 405.4,301 406,301C406.84,301 407.324,301.306 407.458,301.884C408.345,302.609 407.795,303.798 405.501,306.498C405.229,306.881 404.928,307.282 404.6,307.7C402.64,310.249 400.583,313.95 399.844,316.073C400.057,316.687 399.988,316.912 399.611,316.8C399.335,317.631 399.043,318.283 398.72,318.776C398.583,320.707 397.542,323 396.4,323C395.4,323 395,321.6 395,318.2L395,313.3L387,313.8C382.561,314.054 380.534,314.066 379.646,313.684C371.79,313.937 354.093,313.776 348.3,313.3C343.5,312.8 342.4,310.6 346.5,309.6L349,309L349.2,292.7C349.3,283.8 349.4,274 349.4,271C349.5,268 349.1,265.2 348.5,264.8C348,264.4 348.5,264 349.6,264C350.8,264 352.3,263.3 353,262.5C354,261.3 357.6,261 373.1,261C379.508,261 384.495,261.116 387.733,261.317C389.466,260.487 393.822,261.18 395.8,263L395.873,263.066C397.233,263.239 398.637,263.737 399.2,264.3C399.442,264.555 399.711,264.788 399.997,265L400,265C402,265 402,264.9 400.3,262.3C399.479,261.041 398.987,259.482 398.661,255.639C398.104,255.217 398,254.328 398,252.5C398,251.197 398.087,250.349 398.34,249.815C398.246,247.258 398.17,244.138 398.1,240.3L397.806,221.414C397.739,220.781 397.671,220.079 397.6,219.3C397.3,215.1 397,207.9 397,203.3C397,197.256 397,195.612 398.001,195.166C398.005,189.497 398.028,185.693 398.131,183.143C397.96,182.526 398.018,181.476 398.2,179.7C398.508,177.297 400.296,172.389 402.022,168.671L399.5,170.1C397.637,171.201 394.411,171.872 388,172.355L388,173L361.5,173C349.263,173 342.67,172.977 339.121,172.745C337.882,172.933 335.933,173 333,173C331.303,173 329.96,172.989 328.9,172.949C328.505,172.985 328.042,173 327.5,173C324.7,173 324,172.6 324,171C324,169.4 324.7,169 327.5,169C328.354,169 329.013,169.037 329.516,169.135C329.734,169.122 329.962,169.111 330.2,169.1C332.672,169.027 334.774,169.1 336.448,169.308C337.488,169.055 339.248,168.938 342.2,168.8C349.2,168.5 349.4,168.4 350.2,165.5C351.2,161.8 351.4,132.5 350.4,127.6C349.9,124.5 349.4,124 346.9,124C343.3,124 333.5,120.4 329,117.3C326.383,115.555 323.64,113.213 321.096,110.641C320.833,110.555 320.536,110.44 320.2,110.3C319.6,110.1 319.2,109.4 319.5,109L319.51,108.981C318.615,108.01 317.755,107.018 316.947,106.025C315.849,105.24 315.141,104.472 315.4,104.3C315.436,104.247 315.446,104.171 315.432,104.076C314.896,103.353 314.392,102.635 313.929,101.929L313.9,101.9C313.039,101.039 312.484,100.056 312.428,99.429C312.276,99.148 312.134,98.872 312,98.6L311.692,97.955C311.42,97.862 311.31,97.63 311.385,97.307C311.166,96.841 310.958,96.398 310.763,95.977C310.327,95.886 310.143,95.543 310.4,95.2L310.404,95.193C308.776,91.617 308.157,89.768 308.397,88.847C308.161,88.049 307.986,87.246 307.874,86.473C307.804,86.418 307.745,86.36 307.7,86.3C307.3,86 307,82.1 307,77.8C307,74.197 307.051,72.243 307.338,71.191C307.631,67.885 309.047,62.396 310.341,59L309.9,59L311.6,55.8C314,51 317,47 318.1,47C318.6,47 319,48.6 319,50.5C319,52.4 318.6,54 318.1,54C317.601,54 316.903,55.095 316.602,56.491C319.014,52.511 323.08,47.846 327.6,44C330.354,41.626 332.748,39.341 332.981,38.604ZM300.576,301.88C300.616,301.144 301.095,300.862 302.013,301.038C303.024,300.958 304.317,301.538 305.649,302.693C306.702,303.32 307.92,304.122 309.3,305.1C310.454,305.927 311.423,306.654 312.211,307.289C312.446,307.237 312.853,307.417 313.3,307.8C313.9,308.3 316,309.1 317.8,309.5C319.7,309.9 321,310.8 321,311.7C321,312.9 320,313.1 316,312.8C313.967,312.703 312.731,312.7 311.996,312.893L312,312.9C312.864,314.574 313.174,317.095 312.992,319.059C312.998,319.204 313,319.351 313,319.5C313,321.9 312.5,323 311.5,323C310.7,323 310,322.4 309.9,321.8C309.866,321.325 309.831,320.88 309.794,320.463C309.621,320.112 309.483,319.717 309.4,319.3C309,317.7 306.7,313.5 304.3,309.7C302.469,306.881 301.314,304.738 300.832,303.282C300.514,302.702 300.362,302.221 300.5,302C300.524,301.959 300.549,301.919 300.576,301.88ZM170.905,311.847C171.261,312.35 171.594,313.071 171.885,313.9C171.501,313.522 171.155,312.731 170.905,311.847ZM172.608,310.265C171.782,309.974 171.078,309.771 170.516,309.654C170.457,308.713 170.589,308 171,308C171.5,308 172,308.6 172,309.3C172,309.602 172.222,309.931 172.608,310.265ZM307.205,251.525C307.509,247.522 308.397,245 309.5,245C310.6,245 311,246.4 311,250.5C311,251.381 310.99,252.124 310.963,252.75C311.068,254.719 310.447,257.537 309.1,260.5L307.3,264.6L312.4,262.8C315.64,261.691 319.389,261.237 326.376,261.066C327.645,261.023 328.957,261 330.3,261C330.602,261 330.896,261 331.182,261.001C342.335,261.006 343,261.148 343,263C343,264.9 342.3,265 330.8,265C317.4,265 313.5,266.2 303.3,273C298.6,276.2 297.5,276.5 296.5,275C295.8,273.9 297.5,270.5 302.4,263C304.4,260 306.3,255.8 306.7,253.8C306.837,252.842 306.997,252.094 307.205,251.525ZM308.465,227.597C308.716,226.226 309.196,226 310.1,226C311.152,226 311.63,226.306 311.841,228.364C311.956,228.881 312,229.576 312,230.5C312,230.837 311.994,231.143 311.981,231.421C311.995,232.3 312,233.319 312,234.5C312,235.681 311.995,236.7 311.981,237.579C311.994,237.857 312,238.163 312,238.5C312,239.424 311.956,240.119 311.841,240.636C311.63,242.694 311.152,243 310.1,243C309.196,243 308.716,242.774 308.465,241.403C308.114,240.893 308,239.996 308,238.5C308,237.465 308.055,236.717 308.205,236.185C308.201,235.664 308.2,235.103 308.2,234.5C308.2,233.897 308.201,233.336 308.205,232.815C308.055,232.283 308,231.535 308,230.5C308,229.004 308.114,228.107 308.465,227.597ZM296.019,158.589C296.3,157.106 299.765,158.36 305.8,162C309.5,164.3 314.6,166.8 317.3,167.8C323.3,169.9 323.5,172 317.8,171.9C315.4,171.9 312.9,171.6 312.3,171.3C311.824,171.164 311.395,170.705 311.169,170.205C310.975,170.141 310.784,170.073 310.6,170C307.7,168.9 307.5,169.4 309.5,173C311.4,176.4 311.5,185 309.6,185C308.8,185 307.8,183.6 307.4,181.8C307.1,180 305.3,176 303.6,173C302.49,171.042 301.509,169.084 300.933,167.765C300.269,166.882 299.542,165.747 298.8,164.4C297.3,161.7 296,159.2 296,158.8C296,158.775 296.001,158.75 296.002,158.726L296,158.7C296,158.66 296.006,158.623 296.019,158.589ZM74.5,122.8C61.9,121.2 47.7,111.1 41.7,99.6C37.4,91.3 36,85.9 35.9,77C35.9,63.6 40.8,52.1 50.8,42.8C57.9,36.2 63.5,33.3 73.3,31.4C80.8,29.9 83,29.9 89.1,30.9C113.2,35.2 130.2,56.2 128.7,79.5C126.9,107.4 102.9,126.5 74.5,122.8ZM316.233,57.573L369.722,116.687C367.772,117.37 365.131,118.145 362.4,118.8L353.2,121L345.4,118.9C340.6,117.7 335.4,115.4 332.1,113.2C329.1,111.1 325.9,109.1 324.9,108.5C323.8,108 323,107 323,106.3C323,105.6 322.1,104.5 321,103.8C320.351,103.387 319.771,102.834 319.405,102.307C319.286,102.008 319.152,101.695 319.003,101.37C319.001,101.346 319,101.323 319,101.3C319,100.935 318.809,100.597 318.513,100.357C317.648,98.65 316.486,96.738 315.252,95.005C314.976,94.123 314.645,93.182 314.3,92.3C313.456,90.31 312.793,89.156 312.005,88.554C312.002,88.469 312,88.384 312,88.3C312,85.697 311.597,83.571 310.946,82.297C310.984,81.246 311,79.989 311,78.5C311,76.407 310.986,74.826 310.929,73.632C311.103,72.938 311.256,72.069 311.4,71C311.8,68.3 312.4,65.8 312.9,65.6C313.4,65.3 314.1,63.5 314.4,61.6C314.567,60.679 314.95,59.622 315.511,58.474C315.812,58.26 316.044,57.966 316.233,57.573ZM377.37,112.671C376.336,113.482 375.479,114 375.1,114C375.069,114 375.035,114.002 375,114.007L375,114C375,113.567 376.05,113.059 377.37,112.671ZM387.326,103.566C387.126,104.021 387,104.713 387,105.5C387,107.4 386.5,108 384.8,108C384.323,108 383.697,108.189 383.007,108.507C383.743,107.619 384.634,106.582 385.6,105.5C386.226,104.816 386.799,104.176 387.326,103.566ZM389.233,101.226C388.917,102.221 388.365,103 387.9,103C387.865,103 387.83,103.006 387.795,103.016C388.319,102.397 388.795,101.805 389.233,101.226ZM396,88.5C396,85.4 396.3,85 398.5,85C401.3,85 401.5,85.6 400,89.4C398.5,93.3 396,92.7 396,88.5ZM393.073,57.714C393.244,58.048 393.417,58.412 393.591,58.803C393.364,58.583 393.172,58.192 393.073,57.714ZM369,34.5C369,31.8 370.8,31.3 374.1,33C377.3,34.8 376.4,37 372.5,37C369.4,37 369,36.7 369,34.5ZM347.05,33.989C345.233,34.324 343.343,34.74 341.561,35.19C341.664,35.06 341.744,34.93 341.8,34.8C342,34.3 343.9,34 346.1,34C346.446,34 346.762,33.997 347.05,33.989Z" style="fill:rgb(33,92,99);fill-rule:nonzero;"/>
            <path d="M220,540.1C220,538.7 221,538.2 225,537.7C232.4,536.8 242.7,531.4 248,525.6C250.5,522.9 253.2,519.9 254.1,518.9C256.1,516.8 261,504.9 261,502.1C261,500.7 261.6,500 263,500C265.5,500 265.6,502 263.1,509.9C258.4,525.1 245.2,537.4 229.9,540.9C222.9,542.5 220,542.3 220,540.1ZM208.8,541.3C205.2,540.4 206.8,538 211,538C214.3,538 215,538.3 215,540C215,542 213,542.4 208.8,541.3ZM197.2,537.4C191.4,534.6 180,524.6 180,522.4C180,521.6 179.6,521 179.1,521C177.8,521 172.9,509.3 172.3,504.9C171.8,501.5 172,501 173.7,501C175.2,501 175.9,501.9 176.4,504.1C177.3,509 182.2,519.3 184.2,520.8C185.3,521.6 186,523.4 186,525.6C186,528.8 186.2,529 189.5,529C191.4,529 193,529.5 193,530C193,530.6 193.7,531 194.5,531C195.3,531 196,531.4 196,531.9C196,532.4 197.1,533.1 198.5,533.4C199.9,533.8 201,534.5 201,535C201,535.6 202.1,536 203.5,536C205.3,536 206,536.5 206,538C206,540.7 203.7,540.5 197.2,537.4ZM171.8,498.3C171.2,495.5 172,493 173.6,493C174.5,493 175,494.1 175,496.5C175,500.2 172.6,501.5 171.8,498.3ZM260.6,487.8C260,484.7 255.5,474.7 252.8,470.6C252.1,469.5 250.4,467.7 249.2,466.5C247.5,465 246.9,463.6 247.2,461.5L247.5,458.5L252.4,463.5C257.7,468.9 263.3,479.6 264.5,486.8C265.1,490.6 265,491 263.2,491C261.8,491 261.1,490.1 260.6,487.8ZM172.4,486.8C173.2,482 175.8,476 177.1,476C178.3,476 178.2,479.5 176.8,485.7C175.8,489.8 175.1,491 173.6,491C172,491 171.8,490.5 172.4,486.8ZM179,471.1C179,469.6 185.7,461.4 188.4,459.6C191,458 191,458 191,460.8C191,463.7 187.5,468 185.2,468C184.5,468 184,468.9 184,470C184,471.5 183.3,472 181.5,472C180.1,472 179,471.6 179,471.1ZM195,456C195,454.5 204.7,450.2 209.6,449.4C213.7,448.8 213.7,448.8 214.4,443.7C214.7,440.8 215,435.7 215,432.3C215,427.6 215.4,426 216.4,426C218.3,426 219,429.2 219,437.6C219,443.7 219.4,445.1 221.5,447.6C222.8,449.1 224.2,450.1 224.6,449.7C225.4,448.9 229,450.7 229,451.9C229,452.4 225.3,452.8 220.8,452.7C214.7,452.7 210.9,453.3 206.5,454.9C200.1,457.2 195,457.6 195,456ZM350.5,447.9C350.2,447 350,434.8 350.2,420.9L350.5,395.5L358.3,395.2C364.7,395 366,395.2 366,396.5C366,397.3 365.4,398 364.8,398.1C360.9,398.2 355.8,399 355,399.5C354.4,399.9 354,409.1 354,422.9C354,441 353.7,446 352.6,447.6C351.3,449.3 351.1,449.3 350.5,447.9ZM214.8,412.8C214.8,411 214.6,409.1 214.5,408.5C214.3,408 214.2,406.9 214.1,406.3C214.1,405.6 213.3,405 212.5,405C211.7,405 211,404.3 211,403.5C211,402.3 212.3,402 216.5,402C220.5,402 222,402.4 222,403.4C222,404.2 221,405 219.8,405.3C218,405.8 217.5,406.6 217.6,409.2C217.8,415.8 215.1,419.2 214.8,412.8ZM161.4,413.4C161.7,412.5 162,411.6 162,411.4C162,411.2 162.7,411 163.5,411C164.4,411 165,410.1 165,408.6C165,407.3 165.8,405.2 166.8,403.9C167.8,402.6 169.4,398.9 170.4,395.8C172.4,389.6 175,388 175,392.9C175,397 173,402 171.4,402C170.6,402 170,402.7 170,403.5C170,404.6 170.8,404.8 173.3,404.3C175,404 176.7,403.3 176.8,402.8C177,402.4 178.9,402 181.1,402C186,402 186.5,404.5 181.8,405.5C178.2,406.3 165.3,412.7 164.4,414.1C163.4,415.7 160.7,415.1 161.4,413.4ZM268.4,411.7C265.6,409.8 260.5,407.5 257.1,406.5C250,404.3 248.9,402 255,402C257.2,402 259,402.5 259,403C259,403.6 260.1,404 261.5,404C263.1,404 264,404.6 264,405.5C264,406.3 264.5,407 265.1,407C265.8,407 265.9,406.3 265.5,405.3C265.1,404.3 264.5,402.3 264.2,400.8C264,399.2 263.4,398 262.9,398C262.4,398 262,396.4 262,394.5C262,390 264.6,389.7 265.5,394.1C265.9,395.8 268.4,400.9 271.1,405.5C273.8,410.1 276,414.1 276,414.4C276,415.8 273.1,414.8 268.4,411.7ZM399,402.4C396,400.5 392.2,399 390.5,399C386,399 383,397.9 383,396.4C383,395.4 384.5,395 388.8,395L394.7,395L394.2,387.5C393.8,380.4 393.8,380 395.9,380C397.8,380 398,380.6 398,385.5C398,390.2 399.4,395.4 401,397C402.2,398.1 407,404.9 407,405.4C407,406.7 404.2,405.6 399,402.4ZM302,404.9C302,404.3 303.1,402.4 304.4,400.7C309.9,393.3 310.3,391 310.1,367.3L310,361L265,361L265,368.5C265,375.3 264.8,376 263,376C261.1,376 261,375.4 261.2,361.5C261.4,350.4 261.7,347 262.7,347C263.4,347 264.1,347.7 264.1,348.5C264.4,351.3 264.5,351.8 265.2,352.5C265.9,353.2 295.9,353.2 299.5,352.5C300.6,352.3 303.4,352.1 305.8,352.1L310,352L310,335C310,321 309.7,317.4 308.3,314.3C307.3,312.2 306.3,310.3 306,310C304.9,309.1 301,303.2 301,302.6C301,301.2 303.7,302.3 309.2,306C312.5,308.2 315.9,310 316.6,310C317.4,310 318,310.7 318,311.5C318,312.4 317.1,313 315.8,313L313.5,313L313.5,395L316.8,395C320.8,395 321.2,397.6 317.2,398.5C315.7,398.8 311.8,400.6 308.7,402.5C302.3,406.4 302,406.5 302,404.9ZM83.8,403.3C79.9,402.4 82.3,400.4 88.6,399.2C95.7,397.9 103,394.6 107.8,390.6C109.4,389.1 111.5,388 112.4,388C113.4,388 114,387.2 114,385.9C114,384.7 114.8,383.6 116,383.3C117.1,383 118,382 118,381C118,380 118.3,379 118.8,378.8C119.9,378.3 124,369 125.4,363.2C126.6,358.8 126.6,357 125.4,351.2C123.7,343.2 120.9,335 119.8,335C119.4,335 119,334.4 119,333.6C119,332.8 118.3,332 117.5,331.6C116.5,331.3 116,329.7 116,327.4C116,323.8 116,323.7 118,325.5C122.8,329.8 127.9,340 128.4,346C128.5,347.4 129,349.1 129.4,349.8C129.8,350.6 130,351.4 129.6,351.7C129.3,352 129.7,352.9 130.5,353.6C132.2,355.3 168.2,355.8 168.8,354.1C169,353.5 169.8,353 170.6,353C171.5,353 172,352.2 171.9,351.3C171.8,350.3 171.8,346 171.9,341.8C172,334.7 172.2,334 174,334C176.3,334 176.5,336.2 175.4,351.8L174.7,361L130.2,361L129.1,366.2C126.6,377.8 115.8,392.2 105.3,397.7C97.9,401.7 87.9,404.3 83.8,403.3ZM66.9,400.6C63.3,399.3 58.3,396.9 55.9,395.3C50.1,391.3 43.2,383.8 42.4,380.6C42.1,379.2 41.4,378 41,378C40,378 37.3,369.9 36.4,364.3C35.8,360.4 35.9,360 37.9,360C39.3,360 40,360.6 40,361.8C40,364.2 44.1,376.1 45.4,377.8C51.7,385.4 57.7,391.8 58.7,391.9C59.3,392 60,392.4 60.2,392.8C60.6,393.8 73.4,399 75.5,399C76.3,399 77,399.9 77,401C77,403.6 75.1,403.5 66.9,400.6ZM394,370C394,361.7 394.1,361 396,361C397.9,361 398,361.7 398,370C398,378.3 397.9,379 396,379C394.1,379 394,378.3 394,370ZM76,369C72.1,367.4 70,363.1 70,356.3C70,350 70.8,348.4 75.4,345.6C79.2,343.2 87.9,343.8 91.8,346.7C94.3,348.5 94.5,349.3 94.8,356.6C95.1,364 94.9,364.8 92.6,366.9C89.8,369.5 80.3,370.7 76,369ZM343,365.2C337.6,359.8 338.1,347.2 343.9,343.1C349.8,338.8 360.7,339.6 365.7,344.6C368,346.9 368.2,347.7 367.8,354.5C367.5,361.1 367.1,362.3 364.5,365C361.8,367.8 361.2,368 353.7,368C346.4,368 345.6,367.8 343,365.2ZM394.6,355.4C394.3,352.8 394,349.9 394,348.9C394,346.7 396.9,346.3 397.1,348.5C397.2,349.3 397.3,350.6 397.4,351.3C397.5,352.2 402.5,352.6 418.2,352.8L439,353L439.6,355.5C439.9,356.9 440.6,357.7 441.1,357.4C441.6,357.1 442,357.3 442,357.8C442,359.7 438.6,360 417.1,360L395.3,360L394.6,355.4ZM36.5,348.5C37.5,341.8 41.5,332 43.3,332C44.6,332 43.5,341 42.2,341.9C41.6,342.2 40.8,344.9 40.4,347.8C39.9,352.1 39.4,353 37.8,353C36,353 35.8,352.6 36.5,348.5ZM394,328C394,317.7 394.1,317 396,317C397.8,317 398,317.7 398,325.8C398,335.8 397.3,339 395.4,339C394.3,339 394,336.7 394,328ZM45,328C48.1,323.6 49,323.5 49,327.4C49,330.7 48.8,331 45.9,331L42.9,331L45,328ZM171.1,322.4C169.8,317.2 167.3,312 163.5,306.4C161.2,303 160.2,299 161.7,299C162,299 163.7,300 165.4,301.3C167.1,302.6 170.4,304.7 172.8,306C177.7,308.8 178.1,310 174,310L171.1,310L173,314.6C175.4,320 175.7,327 173.6,327C172.8,327 171.8,325.1 171.1,322.4ZM262.2,320.8C262.5,318.4 263.6,314.6 264.8,312.3C266.8,308.1 266.8,308 264.9,308C261.7,308 262.7,306.6 268.3,303.2C277.5,297.6 278.2,299.1 271.4,309.5C268.9,313.4 266.8,316.7 266.9,317C267.1,319 264.4,325 263.2,325C262.1,325 261.8,324 262.2,320.8ZM107.3,321C107,319.7 105.9,319 104.4,319C103.1,319 102,318.6 102,318.1C102,317.6 101,317 99.8,316.7C98.5,316.4 95.7,315.5 93.5,314.6C88.1,312.6 77.9,312.6 71.1,314.7C68,315.7 65.3,316.7 65,317.1C63.8,318.6 59.9,320 56.9,320C54.1,320 53.9,319.8 55.1,318.4C57.5,315.5 67.8,311 74.9,309.8C84.7,308.1 95,309.8 103.9,314.6C107.5,316.6 111.6,319.3 113,320.6L115.5,323L111.6,323C108.7,323 107.7,322.6 107.3,321ZM377,312.6C377,311 380.2,310 383,310.7C386.7,311.7 385.3,314 381,314C378.3,314 377,313.6 377,312.6ZM344,312C344,310.4 344.7,310 347,310L350,310L350,265L345,264.9C342.3,264.8 339.6,264.6 339,264.5C338.5,264.4 337.3,264.2 336.5,264.1C335.7,264.1 335,263.3 335,262.5C335,261.2 337.1,261 347.5,261C356.9,261 360,261.3 360,262.3C360,263 359,264 357.8,264.5C354.3,266 354,269.9 354.9,305.2C355,309.9 355.3,310.8 356.5,310.4C357.4,310 358,310.4 358,311.3C358,312.2 356.5,312.9 353.4,313.4C345.5,314.4 344,314.2 344,312ZM394.8,313.2C392.3,313 391,312.4 391,311.4C391,310.6 391.6,310 392.4,310C393.2,310 396,308.5 398.6,306.7C405.2,302.2 406.8,302.9 403,308.5C399.4,313.7 399.5,313.6 394.8,313.2ZM252,311.7C252,310.9 253.6,309.9 255.5,309.3C258.8,308.2 259,308.3 259,310.6C259,312.7 258.5,313 255.5,313C253.3,313 252,312.5 252,311.7ZM407.5,273.4C405.7,272 389.9,263.8 389.3,264C387.4,264.3 386,263.7 386,262.5C386,261.5 387,261 388.9,261C390.5,261 393.7,261.7 396,262.5C401.4,264.4 401,264.5 401,261C401,259 400.5,258 399.5,258C398.4,258 398,256.9 398,254C398,248.7 400.6,248.5 401.6,253.8C402,255.8 404.5,261.1 407.1,265.5C409.8,269.8 412,273.8 412,274.2C412,275.5 409.7,275.1 407.5,273.4ZM297,274C297,273.5 298.6,270.5 300.6,267.4C306.3,258.5 308,254.1 308,247.5C308,240.1 308.8,237 310.6,237C312.7,237 312.4,252.1 310.1,258.7L308.3,263.9L311.8,262.4C313.7,261.6 317,261 319.1,261C325.1,261 324,263.4 317.3,265.3C314.1,266.2 308.7,268.7 305.2,270.9C298.8,275.1 297,275.8 297,274ZM484.8,263.5C484.5,263.2 482.3,262.7 479.9,262.4C468.8,260.9 454.8,250.6 448.2,239C444.5,232.6 444.2,230 446.9,230C448.2,230 449.4,231.4 450.7,234.5C451.7,237 452.8,239 453.3,239C453.7,239 454,239.8 454,240.9C454,241.9 454.9,243 456,243.3C457.4,243.6 458,244.7 458,246.4C458,248.5 458.5,249 460.5,249C461.9,249 463.3,249.7 463.6,250.5C464,251.3 464.8,252 465.6,252C466.4,252 467,252.7 467,253.5C467,254.3 467.7,255 468.5,255C469.3,255 473.3,256.1 477.4,257.5C481.5,258.9 486.9,260 489.4,260C493.5,260 506.8,256.5 508,255C509.7,253.1 514.4,251 517.1,251L520.3,251L518.1,253.4C515.2,256.5 503.8,261.7 497.1,263C491.3,264.1 485.6,264.3 484.8,263.5ZM523,244.8C523,242.1 523.4,241 524.5,241C525.3,241 526,240.4 526,239.6C526,238.8 527.1,235.8 528.5,232.8C529.9,229.9 531.3,225.8 531.6,223.8C532.1,221 532.7,220 534.1,220C535.4,220 536,220.7 536,222.3C536,225.2 533.6,232.9 531.5,237.1C529.7,240.5 529.5,240.7 525.6,245.5L523.1,248.5L523,244.8ZM308.6,229.8C308.3,228.5 308,226 308,224.3C308,220.5 309.5,220.8 286.5,220.5C265.7,220.1 265,220.1 265,218.8C265.1,214.8 266.4,214.5 285.2,214.3C295.3,214.2 304.6,214.1 305.8,214.1C307.3,214 308.4,213.3 308.7,212C309,210.9 309.9,210 310.6,210C311.7,210 312,212.3 312,221C312,229.7 311.7,232 310.6,232C309.9,232 309,231 308.6,229.8ZM349.1,230.3C345,229.5 342.3,227.1 340.6,222.9C336.2,211.9 342.2,202 353.3,202C359.1,202 364.2,204 366.4,207.1C368.8,210.5 368.6,221.5 366,225.7C363.4,230.1 357.1,231.8 349.1,230.3ZM399,224.1C399,223 398.6,221.8 398,221.5C396.4,220.5 396.7,211 398.4,211C399.2,211 400.1,212.4 400.5,214L401.2,217L410.1,217C415,217 419.3,217 419.6,216.9C420,216.9 420.6,217.4 421.1,218.1C421.8,219.3 423,219.5 428.8,219.9C429.4,220 430,220.6 430,221.3C430,222.1 427.9,222.5 423.2,222.6C402.9,222.8 401,223 401,224.5C401,225.3 400.6,226 400,226C399.5,226 399,225.1 399,224.1ZM132,219.8C132,219.3 131.3,219 130.5,219C129.7,219 129,218.1 129,217C129,215.9 129.7,215 130.5,215C131.3,215 132,215.6 132,216.3C132,217.1 132.4,217 133,216C133.9,214.7 134,214.7 134,216C134,217.2 134.2,217.2 134.8,216.2C135.8,214.7 162.8,214.2 163.9,215.7C164.2,216.2 165.3,216.6 166.3,216.7C170.5,216.9 171,217.1 171,218.5C171,220.3 171.7,220.3 149.8,220.4C140,220.5 132,220.2 132,219.8ZM308.6,196.8C308.3,195.5 308,191.2 308,187.3C308,180.7 308.2,180 310,180C311.9,180 312,180.7 312,189.5C312,196.9 311.7,199 310.6,199C309.9,199 309,198 308.6,196.8ZM450,191.1C450,189.8 456.3,182.2 458.8,180.4C460.9,178.9 461,179 461,181.7C461,185 459.4,187 456.8,187C455.5,187 455,187.8 455,189.5C455,191.5 454.5,192 452.5,192C451.1,192 450,191.6 450,191.1ZM398,180.1C398,176.6 399.9,171 401.1,171C401.6,171 402,170.6 402,170C402,169.5 400.7,169 399,169C395.1,169 395.2,167.6 399.3,165.7C402.1,164.3 402.5,164.3 402.8,165.5C403.4,167.9 405,167.2 405,164.6C405,161.7 409.8,157.4 411.3,158.9C411.9,159.5 410.8,162.2 408.2,166.2C406,169.7 403.4,174.9 402.4,177.8C400.4,183.5 398,184.7 398,180.1ZM507.3,177.8C505.9,177.1 505,175.8 505,174.3C505,172 505,172 508.8,173.5C510.8,174.4 513.4,176 514.5,177C516.4,179 516.4,179 513,178.9C511.1,178.9 508.5,178.4 507.3,177.8ZM464,177.4C464,176.2 467.4,174.1 469.3,174C470.3,174 471,174.7 471,176C471,177.6 470.3,178 467.5,178C465.6,178 464,177.7 464,177.4ZM475,172.6C475,171.2 476.7,170.6 484.3,169.5C487.4,169.1 488,169.3 488,170.9C488,172.3 487,172.9 483.4,173.4C476.5,174.3 475,174.2 475,172.6ZM310.3,170.5C305.8,168.5 305,168.3 305,169.7C305,172 302.6,169.8 299.5,164.5C295.4,157.3 296,157.3 307.7,164C314.6,168 317.4,169 321,169C326.9,169 330,169.9 330,171.6C330,174.2 316.4,173.4 310.3,170.5ZM351.3,172.2C350.4,171.7 350.2,165.1 350.3,147.8L350.5,124L347.8,123.4C346.2,123.1 345,122.2 345,121.4C345,119.9 348,119.6 354.3,120.6C357.9,121.2 359.7,124 356.5,124C355.7,124 355,124.1 354.9,124.3C354.9,124.4 354.6,134.5 354.4,146.8C354,162.3 354.2,169 354.9,169.1C355.5,169.2 356.5,169.4 357,169.5C357.6,169.6 358.7,169.8 359.5,169.9C360.3,169.9 361,170.7 361,171.5C361,172.6 359.9,173 356.8,173C354.4,173 352,172.6 351.3,172.2ZM382,171.6C382,170 385,169 389.8,169C392.3,169 393,169.4 393,171C393,172.8 392.3,173 387.5,173C383.5,173 382,172.6 382,171.6ZM490,171C490,168.9 491,168.6 494.8,169.6C498.4,170.6 497.5,173 493.5,173C490.7,173 490,172.6 490,171ZM214.7,169.4C214.3,169 214,162.7 214,155.3C214,144.3 214.3,142 215.5,142C217.5,142 218.2,146.9 217.8,159C217.5,168.5 216.7,171.3 214.7,169.4ZM214.2,131.8C214.4,126.2 214.8,124.5 216,124.5C216.9,124.5 217.5,125.8 217.7,128.5C218.2,134.4 217.2,139 215.4,139C214.2,139 214,137.7 214.2,131.8ZM334.5,119.6C327.1,116.3 315.7,105.4 313.7,99.8C313.2,98.4 313.6,98 315.5,98C317.1,98 318,98.6 318,99.5C318,100.3 318.5,101 319,101C319.6,101 320,102.1 320,103.5C320,105.4 320.5,106 322.1,106C323.3,106 324.4,106.8 324.7,108C325,109.1 326.1,110 327.1,110C328.2,110 329.3,110.7 329.6,111.5C330,112.3 330.8,113 331.6,113C332.4,113 333,113.4 333,113.8C333,114.3 334.8,115.3 337,116C339.7,116.9 341,117.9 341,119.2C341,121.3 338.8,121.5 334.5,119.6ZM370,118C370,116.4 370.7,116 373.5,116C377.4,116 377.8,116.6 375.3,118.6C372.6,120.6 370,120.3 370,118ZM378,113.5C378,111.5 378.5,111 380.4,111C382.2,111 382.9,110.4 383.2,108.8C383.4,107.5 384.5,106.1 385.8,105.5C387,105 388,103.7 388,102.8C388,101.8 388.6,101 389.4,101C390.1,101 391,99.7 391.4,98C391.8,95.6 392.5,95 394.5,95C397.3,95 397.5,95.3 395.8,98.3C392.4,104.8 381.6,116 378.9,116C378.4,116 378,114.9 378,113.5ZM310.5,93.7C307,85.2 306.4,72 309.6,72C310.6,72 311,73.3 311,76.8C311,79.4 311.7,83.7 312.5,86.4C315.2,95.3 313.6,101.2 310.5,93.7ZM396.5,68.5C396.1,65.5 395.5,63 395.1,63C394.7,63 393.8,61.3 393.1,59.3C392.3,57.2 391.1,55 390.4,54.2C388.8,52.6 388.5,45.6 390,46.5C393.3,48.6 399.4,61.9 400.6,69.7C401.2,73.6 401,74 399.2,74C397.5,74 397,73.1 396.5,68.5ZM308.5,67.3C308.9,65.2 309.5,63.1 310,62.5C310.4,62 311,60.3 311.3,58.9C312.1,55.6 318.7,45.7 321.1,44.2C322.8,43.1 323,43.3 323,46C323,48 322.5,49 321.5,49C320.7,49 320,49.9 320,51C320,52.1 319.6,53 319.1,53C318.6,53 317.9,54.1 317.6,55.5C317.2,56.9 316.5,58 316,58C315.4,58 315,58.9 315,60C315,61.1 314.6,62 314.1,62C313.6,62 312.9,64 312.6,66.5C312,70.2 311.5,71 309.8,71C308,71 307.9,70.6 308.5,67.3ZM380,42.5C380,41.7 379.1,41 378,41C376.9,41 376,40.3 376,39.5C376,38.6 375.1,38 373.5,38C372.1,38 371,37.6 371,37.1C371,36.3 368.7,35.7 359.8,34.4C356.9,33.9 356,33.3 356,31.9C356,26.9 374.4,32.7 383.5,40.5L387.5,43.9L383.8,44C381.1,44 380,43.6 380,42.5ZM325.4,40.1C328,37.3 336,33.2 342.5,31.5C350.3,29.5 352,29.6 352,31.9C352,33.3 351.1,33.9 348.1,34.3C344.1,34.8 331.7,39.9 331.2,41.2C331,41.6 329.2,42 327.3,42C323.8,42 323.8,41.9 325.4,40.1Z" style="fill:rgb(30,103,108);fill-rule:nonzero;"/>
            <path d="M210.8,541.3C209.8,541.1 209,540.2 209,539.4C209,538.3 210.6,538 216.2,538C223.9,538 235,536.1 235,534.8C235,534.4 236.6,534 238.5,534C241.3,534 242,533.6 242,532C242,530.4 242.7,530 245.7,530C249.2,530 249.2,530.1 247.6,531.9C241.8,538.3 220.3,543.8 210.8,541.3ZM196.9,536.8C193.4,535 188.3,531.3 185.5,528.5L180.5,523.5L183.5,523.2C185.8,522.9 187.1,523.6 189.7,526.4C191.5,528.4 193.5,530 194,530C194.6,530 195,530.5 195,531C195,531.6 195.7,532 196.5,532C197.3,532 198,532.4 198,532.9C198,533.4 199.4,534 201,534.4C203.4,534.8 204,535.5 204,537.5C204,538.9 203.8,540 203.7,540C203.5,540 200.4,538.6 196.9,536.8ZM252,523.8C252,521.8 252.3,520 252.8,519.8C253.2,519.7 254.6,517.5 255.9,515C257.3,512.5 258.8,510.2 259.4,509.8C260.1,509.3 260.5,504 260.4,495C260.4,484.8 260.7,481 261.6,481C263.2,481 265,488.7 265,495.7C265,506.2 261.3,516.9 255.1,524L252.1,527.5L252,523.8ZM176.1,515.3C172.4,508.2 171,494.2 173.1,485.1C175.5,474.6 183.3,463.3 192.4,457.1C196.7,454.2 207.3,450.1 211.5,449.8C213.3,449.6 214,449 214,447.5C214,438.8 214.9,419.7 215.4,419.3C217,417.7 217.5,421.3 217.5,434.3L217.5,448.5L220.5,449C222.3,449.3 223.6,450.2 223.8,451.3C224.1,452.8 223.5,453.1 219.8,452.9C215.5,452.7 204,454.8 203,456C202.7,456.3 200.5,457.8 198,459.2C195.5,460.6 192.6,462.7 191.6,463.9C190.5,465.1 189.1,466 188.3,466C187.6,466 187,466.7 187,467.5C187,468.3 186.1,469.5 185,470.2C183.9,470.9 183,472 183,472.7C183,473.4 182.6,474 182,474C181.5,474 181,474.6 181,475.4C181,476.2 180.4,477.5 179.7,478.2C177.2,480.8 175.7,490.5 176.3,500.2C176.6,505.3 177.4,509.6 178,509.8C179.3,510.3 179.3,517 178,517C177.5,517 176.7,516.2 176.1,515.3ZM254.5,474.3C252.2,470 246.3,464 240.8,460.2C238.2,458.5 237,457 237,455.4C237,453.6 237.4,453.2 238.8,453.7C244.9,456 255.4,466 259.1,473.2C261.5,477.9 261.5,478 258.7,478C257.1,478 255.9,476.9 254.5,474.3ZM350.5,445.8C350.3,444.5 350.1,433.4 350.3,421.1C350.5,400.5 350.4,398.6 348.8,398.2C347.8,398 347,396.9 347,395.9C347,394.3 347.8,394 352,394C356.2,394 357,394.3 357,395.9C357,396.9 356.1,398 355,398.3C353.1,398.8 353,399.7 353,422.8C353,437.3 352.6,447.1 352,447.5C351.5,447.8 350.8,447.1 350.5,445.8ZM268.3,411.3C262.1,407.6 260.6,406 263.5,406C264.6,406 264.8,405.2 264.3,402.8C264,401 263.2,399.2 262.6,398.8C261.9,398.3 261.4,390 261.2,374C260.9,353.6 261.1,350 262.3,350C263.9,350 265,352.1 265,355.1C265,356.7 265.7,357 270.5,357C274.7,357 276,357.3 276,358.5C276,359.6 274.7,360 270.6,360C266.3,360 265.1,360.4 264.8,361.8C264.2,363.9 264.8,390.1 265.5,394.6C265.8,396.3 268.3,401.5 271,406C273.8,410.6 276,414.5 276,414.7C276,415.6 274,414.7 268.3,411.3ZM161.4,413.5C161.7,412.7 163.4,409.6 165.3,406.8C171.4,397.1 172,394.6 172,377.1L172,361.3L168.9,360.6C162.8,359.4 132.5,359.9 130.8,361.3C129.9,361.9 128.7,364.9 128,367.8C127.2,371.2 126.3,373 125.3,373C123.7,373 123.8,368.8 125.7,355.3C126.4,350 128.6,349.6 129.6,354.5L130.2,358L151.1,358C169,358 172,357.8 172,356.5C172,355.7 172.5,355 173,355C173.6,355 174,355.9 174,357C174,358.1 174.5,359 175,359C176.7,359 176.3,391.7 174.5,397.8C173.6,400.7 172.5,403 172,403C171.4,403 171,403.7 171,404.6C171,407.2 167.9,411.6 165,413.4C161.5,415.4 160.6,415.4 161.4,413.5ZM215,407C215,405.1 214.3,405 198.1,405C185.3,405 180.4,405.4 177.6,406.5C174,408 174,408 174,405.6C174,403.7 174.7,402.9 177.3,402.2C180.7,401.1 216.2,399.9 220.5,400.8C224.1,401.4 223.9,404.8 220.3,405.2C218.3,405.4 217.6,406 217.8,407.3C218,408.3 217.5,409 216.5,409C215.7,409 215,408.1 215,407ZM399,401.9C392.5,398 390.6,396 393.2,396C394.2,396 394.4,393.6 394.2,384.5C393.9,374.8 394.1,373 395.3,373C397.3,373 398.4,377.9 397.5,382.9C396.6,388.3 398.2,393.3 403,400.2C405.3,403.4 406.8,406 406.3,406C405.9,405.9 402.6,404.1 399,401.9ZM225,403C225,401.1 225.7,401 240,401C254.3,401 255,401.1 255,403C255,404.9 254.3,405 240,405C225.7,405 225,404.9 225,403ZM305.5,399.9C307.4,397.1 309.5,393.1 310.1,390.9C311.9,385.2 314.4,385.6 313.8,391.5C313.4,394.9 313.6,396 314.6,396C315.4,396 316,396.4 316,396.9C316,397.9 304.7,405 303.1,405C302.5,405 303.5,402.7 305.5,399.9ZM85,401.4C85,399.8 86.2,399.2 91.5,398.2C99.7,396.7 102.3,396.7 101.8,398.3C101.3,399.7 95.3,401.9 89.3,402.7C85.5,403.2 85,403 85,401.4ZM67.8,400.6C60.4,398 55.3,395.1 52.5,392C50.7,390 50.7,390 54.4,390C56.6,390 58.3,390.5 58.6,391.4C58.9,392.2 60.2,393.1 61.6,393.4C62.9,393.8 64,394.5 64,395C64,395.6 65.6,396 67.5,396C69.4,396 71,396.4 71,397C71,397.5 72.8,398.3 75,398.6C78,399.1 79,399.7 79,401.1C79,403.7 76.1,403.5 67.8,400.6ZM111,390.2C111,387 112.6,385 115.2,385C116.5,385 117,384.2 117,382.5C117,381.1 117.5,380 118,380C118.6,380 119,379.3 119,378.5C119,377.6 119.9,377 121.5,377C122.9,377 124,377.4 124,377.9C124,379.4 115.3,390.4 113.1,391.8C111.2,392.9 111,392.8 111,390.2ZM46.4,385.8C43.1,382.2 39.2,374.2 37.4,367C32.6,348.3 41.6,326.2 57.8,316.7C68.4,310.5 79,308.1 79,311.9C79,313.3 78,313.9 74.8,314.4C65.4,315.9 50.9,326.1 46.5,334.3C45.4,336.3 44,338 43.4,338C42.8,338 41.9,340.4 41.4,343.3C39.8,353.7 40.9,373 43.1,373C43.6,373 44,374.6 44,376.5C44,379.4 44.4,380 46,380C48.4,380 49.3,381.7 48.8,385.5L48.5,388.2L46.4,385.8ZM393.5,361.6C392.6,354.5 393.1,352.6 395.8,352.2C397.6,351.9 398,352.3 398,354.4C398,357 398.1,357 406.3,357.2C410.8,357.3 419.7,357.2 426,357.1C432.3,356.9 438.6,357.3 440,357.8C441.4,358.4 441.9,359 441.3,359.1C440.6,359.2 439.6,359.4 439,359.5C438.5,359.6 429.1,359.8 418.1,359.9L398.2,360L397.6,363.5C396.5,369 394.3,367.9 393.5,361.6ZM70.7,366.3C70.3,366 70,364.2 70,362.3C70,358.2 72.1,357.9 74.6,361.8C75.5,363.3 77.1,365 77.9,365.7C79.2,366.7 78.8,366.9 75.4,367C73.2,367 71,366.7 70.7,366.3ZM311,361.6C311,360.4 310,360 307,360C303.2,360 301.2,358.1 304.8,357.9C305.7,357.8 307.2,357.7 308,357.6C308.8,357.6 309.8,355.8 310.3,353.8C310.8,351.6 311.8,350 312.6,350C314.6,350 314.5,359.6 312.5,361.6C311.2,363 311,363 311,361.6ZM90.1,350.7C89.4,349.8 87,348.5 84.9,347.8C79.2,346.1 79.8,344 86,344C91.5,344 92.4,344.9 91.8,349.6C91.5,352.1 91.4,352.2 90.1,350.7ZM342.6,348.3C342.3,347.9 342,346.2 342,344.5L342,341.3L348.8,340.7C361.3,339.5 362,339.6 362,343C362,346.3 361.8,346.5 358.8,344.9C355.3,343 350.2,343.6 346.6,346.4C344.8,347.8 343,348.6 342.6,348.3ZM120.8,337.9C119.8,336.2 119,333.7 119,332.4C119,330.7 118.4,330 117.1,330C116.1,330 113.7,328.3 111.8,326.3C109.9,324.2 107.2,321.9 105.7,321.1C104.2,320.3 103,319.1 103,318.4C103,317.8 101.5,317 99.8,316.7C91.2,315.2 87,313.5 87,311.6C87,310 87.5,309.8 91.5,310.3C96.9,311.1 106.9,316 112.7,320.6C117.5,324.5 123.3,332.2 125.5,337.4C127,340.9 127,341 124.8,341C123.3,341 121.9,339.9 120.8,337.9ZM172.6,337.8C172.3,336.5 172,332.5 172,328.9C172,325.2 171.3,320.6 170.5,318.6C169,315 169,315 171.4,315C174.6,315 175.2,316.7 175.8,329.3C176.2,338.4 176,340 174.7,340C173.9,340 173,339 172.6,337.8ZM261,329.8C261,320.3 262.5,314 264.7,314C265.4,314 266,313.1 266,312C266,310.1 266,310.1 261.4,312C257.7,313.6 254.5,314 244.9,314C235.4,314 233,313.7 233,312.6C233,310.6 236.2,310 246.5,310C255,310 256,309.8 263,306.2C267.1,304.1 271.5,301.8 272.7,301C276.6,298.5 276.4,300.7 272,307.6C266.6,316.2 265,320.9 265,328.4C265,335.9 264.2,339 262.4,339C261.3,339 261,337 261,329.8ZM394,319.1C394,316.2 394.5,315 395.8,314.7C396.7,314.4 394.9,314.2 391.8,314.1C387.6,314 386,313.6 386,312.6C386,311.2 388.9,310 392.5,310C393.6,310 396.9,308.2 399.8,306C407.5,300.1 408.1,300.9 402.1,309.4C400,312.5 398,316.8 397.6,319C396.7,324.5 394,324.6 394,319.1ZM310.2,318.8C309.6,316.4 309.4,314.4 309.8,314.2C310.3,314.1 308.7,311.9 306.3,309.5C302.6,305.6 300.8,302 302.5,302C302.8,302 305.4,303.8 308.3,305.9L313.5,309.9L349.5,310.3L349.7,304.4C350.6,281.9 350.4,264 349.3,264C348.6,264 348,263.3 348,262.5C348,261.4 349.1,261 352,261C354.8,261 356,261.4 356,262.4C356,263.2 355.3,264 354.4,264.2C352.9,264.5 352.8,266.9 352.9,286.5C353.1,307.2 353.7,311.9 356,310.5C357.3,309.7 360,311.1 360,312.6C360,313.8 356,314 337,314L314,314L314,318.5C314,324.4 311.6,324.6 310.2,318.8ZM174,311.9C171.6,310.8 169.3,309.5 169,309.1C168.7,308.6 167.5,308 166.2,307.6C164.3,307 161,302.5 161,300.5C161,299.3 163.4,300.2 167.5,303C176.1,308.9 180.1,310 192.8,310C205.7,310 209,310.6 209,312.6C209,313.7 206.1,314 193.8,313.9C180.8,313.9 177.8,313.6 174,311.9ZM215.5,292.8C214.4,286.8 215.4,264.7 216.8,264.2C217.7,263.9 218,267.5 218,279.9C218,289.5 217.6,296 217,296C216.5,296 215.8,294.5 215.5,292.8ZM405.1,271.5C402.1,269.6 397,267 393.8,265.8C385,262.3 386.3,260 396.3,261.6C399,262.1 400,262.7 400,264.1C400,265.2 400.5,266 401,266C401.6,266 402,264.7 402,263C402,261.4 402.4,260 402.8,260C403.5,260 412,273.4 412,274.5C412,275.6 410.3,274.8 405.1,271.5ZM298,273.8C298,272.2 305.2,260 306.2,260C307.4,260 307.2,265.5 306,268.2C304.7,270.8 298,275.6 298,273.8ZM311,264.5C311,262.3 311.4,262 314.6,262C319,262 318.8,263.8 314.2,265.7C311.1,267 311,266.9 311,264.5ZM493,261.2C493,259.7 494.4,259.1 499.5,258C503.1,257.3 506,256.3 506,255.8C506,255.4 507.6,255 509.5,255C514.2,255 513.9,256.4 508.8,258.8C499.7,263 493,264 493,261.2ZM307.8,253.5C309.5,247.3 312,246 312,251.3C312,256.8 311,259 308.5,259C306.3,259 306.3,259 307.8,253.5ZM397.6,255.3C397.3,253.2 397,243.4 396.8,233.5C396.5,216.1 396.6,215.5 398.5,215.5C399.6,215.5 400.5,216 400.5,216.5C400.6,219.6 402.3,220 416.6,220C427.4,220 431,220.3 431,221.3C431,222.2 427.4,222.5 416.3,222.5L401.5,222.5L401.2,238C401.1,246.5 401.4,254.7 401.9,256.2C402.8,258.8 402.7,259 400.5,259C398.6,259 398.1,258.4 397.6,255.3ZM461.8,254.1C458.8,251.9 455.5,249 454.6,247.6C453,245 453,245 455.9,245C457.8,245 459.5,245.8 460.7,247.3C461.7,248.6 463.3,249.9 464.3,250.3C465.2,250.6 466,251.4 466,252C466,252.5 466.7,253 467.5,253C468.4,253 469,253.9 469,255.5C469,256.9 468.6,258 468.2,258C467.7,258 464.8,256.2 461.8,254.1ZM514,253.4C514,250.1 521.3,242 524.2,242C525.5,242 526,241.2 526,239C526,237 526.5,236 527.5,236C528.4,236 529,235.1 529,233.7C529,232.4 529.7,229.2 530.6,226.5C532.7,220.4 532.1,203.9 529.6,201.4C528.7,200.6 528,199 528,197.9C528,196.9 527.6,196 527,196C526.5,196 526,195.3 526,194.5C526,193.7 525.6,193 525,193C524.5,193 524,192.1 524,191C524,189.9 523.4,189 522.6,189C521.8,189 520,187.7 518.7,186C517.3,184.4 515.7,183 515.1,183C514.6,183 513.7,182.4 513.3,181.7C512.2,180 501.5,175.3 495.2,173.8C491.3,172.9 488.5,172.9 484,173.8C477.4,175 466.1,180.1 463.4,183.1C462.5,184.1 461.1,185 460.3,185C459.6,185 459,185.6 459,186.4C459,187.2 457.9,188.7 456.5,189.8C455.1,190.9 454,192.3 454,192.9C454,193.5 453.3,194 452.5,194C451.6,194 451,194.9 451,196.3C451,199.6 449.6,201.2 447.1,200.8C444.9,200.5 444.9,200.5 447.7,195.1C452.2,186.3 460.1,178.5 468.5,174.5C482.8,167.8 496.1,167.8 509.8,174.6C537.8,188.4 544.6,223.9 523.7,247.6C521.6,250 518.5,252.9 516.9,254L514,256.1L514,253.4ZM444.1,227.5C443.1,223.6 442.6,223 440.2,222.9C438.7,222.8 437.2,222.8 436.8,222.9C436.3,222.9 436,222.4 436,221.6C436,220.7 437.2,220 439.2,219.8C441.7,219.6 442.5,219 442.6,217.5C442.8,212.9 443.1,212 444.4,212C445.3,212 445.9,213.7 446.3,217.3C446.6,220.1 447.2,224.6 447.6,227.3C448.1,231.1 448,232 446.7,232C445.8,232 444.8,230.3 444.1,227.5ZM308.7,222C308.2,220.1 307.3,220 286.6,220C268.1,220 265,219.8 265,218.5C265,217.2 268.1,217 286.6,217C307.3,217 308.2,216.9 308.7,215C309,213.9 309.9,213 310.6,213C311.6,213 312,214.5 312,218.5C312,222.5 311.6,224 310.6,224C309.9,224 309,223.1 308.7,222ZM131.3,219.3C130.6,219.1 130,218.4 130,217.9C130,217.3 138.3,217.1 150.8,217.2C163.7,217.4 171.5,217.9 171.5,218.5C171.5,219.5 133.6,220.3 131.3,219.3ZM397,190.1C397,183.2 397.5,177.8 398.4,175.2L399.9,171.1L397.4,172C396,172.6 393.1,173 390.9,173C386,173 385.5,170.5 390.3,169.5C394.4,168.6 400.3,165.6 405.7,161.7C410.7,158.2 412.2,158.8 409.6,163.3C401.8,176.4 401,178.8 401,187.8C401,197.8 400.3,201 398.4,201C397.3,201 397,198.7 397,190.1ZM308.4,182C308,179.8 305.4,173.8 302.4,168.7C299.5,163.7 297.5,159.4 298,159.2C298.4,159 301.6,160.7 305.1,163C308.6,165.2 313.6,167.8 316.2,168.8C322.4,171 322.8,173.5 316.8,172.7C314.4,172.5 311.7,171.9 310.8,171.5C309.1,170.8 309.1,171 310.5,174.4C312.5,179.1 312.5,186 310.5,186C309.5,186 308.8,184.6 308.4,182ZM350.7,170.9C350.4,169.8 350.1,158.6 350.1,146.2C350.1,126.6 349.9,123.5 348.5,123.2C347.7,123 347,122.2 347,121.4C347,120.3 348.6,120 354,120C359.5,120 361,120.3 361,121.5C361,122.5 359.6,123.2 357,123.6L353,124.3L353,169L355.5,169.6C359.3,170.5 358.7,173 354.6,173C352,173 351.1,172.5 350.7,170.9ZM214.4,168.7C214.2,168 214.1,157.8 214.2,146.1C214.4,130 214.8,124.6 215.8,124.2C216.7,123.9 217,128.9 217,146.9C217,162.1 216.6,170 216,170C215.4,170 214.7,169.4 214.4,168.7ZM369,118.7C369,116.1 372.4,114 376.5,114C378.2,114 379,113.4 379.2,111.8C379.4,109.9 380.2,109.4 383.3,109.2C386.8,108.9 387,108.7 387,105.4C387,103.5 387.5,102 388,102C388.6,102 389,101.3 389,100.5C389,99.6 389.7,98.7 390.5,98.4C391.3,98 392,97 392,95.9C392,94.9 392.6,93.7 393.3,93.3C394.8,92.4 397,82.2 397,76.5C397,71.8 394.9,61 393.9,61C393.5,61 392.6,59.5 391.9,57.8C387.4,46.7 367.4,34 354.7,34C347.3,34 331.9,39.6 329.2,43.2C328.5,44.2 326.6,45 324.9,45C322.3,45 322,45.3 322,48C322,49.8 321.4,51.3 320.5,51.6C319.7,52 319,52.8 319,53.6C319,54.4 318.3,55 317.5,55C316.6,55 316,55.9 316,57.5C316,59.5 315.5,60 313.5,60C310.6,60 310.8,58.9 315.5,51.5C331.8,25.9 368.7,23.2 389.4,46C396.7,54 401.8,69.4 400.7,80C398.8,97.7 387.8,113.2 372.5,119.6C369.1,121 369,121 369,118.7ZM327.4,114.6C317.9,107.6 313,100.9 309.8,90.5C307.4,82.5 307.4,78 309.8,78C311.6,78 313.1,83.4 314.7,95.3C315.1,98.1 315.7,99 317.1,99C318.1,99 319,99.6 319,100.4C319,101.2 319.7,102 320.5,102.4C321.3,102.7 322,103.8 322,104.9C322,106.2 322.8,107 324.3,107.2C325.5,107.4 326.9,108.5 327.5,109.8C328,111 329.3,112 330.2,112C331.2,112 332,112.5 332,113C332,113.6 332.7,114 333.5,114C334.4,114 335,114.9 335,116.5C335,117.9 334.6,119 334.1,119C333.6,119 330.6,117 327.4,114.6ZM308.4,68.9C309.6,61.6 313,57.9 313,63.9C313,69.8 311.8,73 309.7,73C308,73 307.8,72.6 308.4,68.9Z" style="fill:rgb(64,156,180);fill-rule:nonzero;"/>
            <path d="M205,540.1C193.7,536.6 181.8,526.5 177,516.5C171.1,504.1 171,487.4 176.9,475.5C182.5,464.2 195.5,453.8 207.5,451C210.3,450.4 213.5,449.4 214.7,448.8C215.8,448.2 217.3,448.1 217.9,448.5C218.6,448.8 220.7,449.4 222.8,449.6C237.8,451.4 250.3,459.5 258.4,472.9C263,480.4 264.3,486.9 263.8,499.4C263.5,508.6 263.1,510.1 260.1,515.8C250.5,533.5 237.8,541.1 217.8,540.9C212.1,540.9 206.4,540.5 205,540.1ZM215.2,425.3L215.5,403.5L199,403.8L182.5,404L173.9,408.4C169.1,410.8 164.7,412.4 164.1,412.1C163.3,411.6 164.1,409.5 166.5,405.4C171.9,396.4 173,391.5 173,376C173,368.5 172.6,362 172.1,361.5C171.6,360.9 171.6,356.5 172.2,350.5C172.7,345 173,336.2 172.7,331C172.3,321.1 170.7,316.6 164.3,306.9C160.4,301 161.6,299.4 167,303.2C177.2,310.2 180.5,311 198,311C209.5,311 214.1,310.7 214.6,309.8C215.1,309.1 215.7,302.7 216,295.5L216.6,282.5L217.3,293.5C217.7,299.6 218.2,305.8 218.3,307.5L218.5,310.4L253.7,311.2L261.1,307.7C265.2,305.7 270,303.2 271.8,302C276,299.2 275.9,300.7 271.6,307.9C264.2,319.9 263.9,321.6 264.1,340.6L264.3,357.8L273.4,357.7C294.1,357.5 308,358 308,359C308,359.6 300.8,360 288.5,360C273.6,360 269,359.7 269,358.8C269,357.9 268.7,357.9 268.2,358.6C267.8,359.2 266.7,359.9 265.7,360.3C264,360.9 263.9,362.3 264.2,377.7L264.5,394.5L268.6,402.5C273.4,411.9 273.4,414 268.5,411C266.7,409.9 261.9,407.8 257.8,406.4C250.9,403.9 249.7,403.8 234.7,404.3C226,404.5 218.6,405 218.3,405.4C217.9,405.7 217.5,407.2 217.4,408.8C217.1,412.2 216.8,442.2 217.1,443.5C217.4,445.5 217,447 215.9,447C215.2,447 215,440.2 215.2,425.3ZM72.3,401.8C69.9,401.3 68,400.6 68,400.2C68,399.8 66.9,399.4 65.6,399.4C62.2,399.2 52.7,392.7 47.9,387.2C40.1,378.3 37,369.7 37,356.4C37,345.8 38.8,338.7 43.4,331.5C53.8,315.4 74.5,306.8 92.9,311.1C104.9,313.8 118.3,324.1 123.9,335C126.9,340.7 130.5,356.4 129.3,358.3C129,358.8 128.6,360.9 128.5,362.9C127.5,375.8 116.5,391.6 104,398C95.6,402.3 81.8,404 72.3,401.8ZM306,402C304.8,401.3 304.8,400.8 306.3,399.3C310.1,395 311,390.5 311,375.1C311,364.1 310.7,360 309.8,359.6C308.8,359.1 308.8,358.9 309.8,358.4C310.7,358 311,352.9 311,337.9L311,318L306.4,310.4C303.9,306.2 302,302.7 302.2,302.5C302.4,302.3 305.2,304.1 308.4,306.5L314.2,310.9L393.5,310.9L397.2,308.5C400.4,306.4 403,305.4 403,306.3C403,306.4 401.6,309.2 399.9,312.5L396.9,318.5L397.1,336.6C397.2,346.5 397.1,355.1 396.9,355.6C396.6,356.1 396.7,364.6 397,374.5L397.5,392.5L400.7,397.2C402.4,399.8 403.4,402 402.8,402.2C402.2,402.4 399.7,401.5 397.1,400.3C392.4,398 392.1,397.9 354.4,397.9C333.5,397.9 315.5,398.2 314.4,398.6C313.4,399 311.4,400.1 309.9,401.1C308.3,402.2 306.9,402.5 306,402ZM89.8,363.7C91.4,362.2 92,360.5 92,357.2C92,348.5 85.1,344.6 77.6,349.1C73.6,351.4 72.7,353.6 73.3,359.5C73.7,363 74.2,363.7 77.6,365.2C82.2,367.3 86.5,366.7 89.8,363.7ZM361.4,362.1C363.4,360.1 364.4,357.8 364.7,354.7C365.2,350.6 364.9,349.9 361.9,346.8C359.4,344.4 357.7,343.6 355.5,343.7C353.9,343.8 350.8,344 348.8,344C346.7,344.1 345.2,344.6 345.5,345.1C345.8,345.6 345.4,347 344.6,348.2C341.7,352.8 342.2,358.4 345.9,362.1C348.4,364.5 349.7,365 353.7,365C357.8,365 359.1,364.5 361.4,362.1ZM423.3,358.3C425.3,358.1 428.7,358.1 430.8,358.3C432.8,358.5 431.1,358.7 427,358.7C422.9,358.7 421.2,358.5 423.3,358.3ZM216.4,273.5C216.4,268.6 216.5,266.4 216.7,268.7C216.9,271 216.9,275.1 216.7,277.7C216.5,280.3 216.4,278.5 216.4,273.5ZM406.7,272.2C406.3,271.7 404,270.3 401.5,269.1C399,267.9 397,266.6 397,266.2C397,264.9 394.6,264.8 355.3,264.4L317.2,264L309.6,267.9C301,272.5 297.8,272.5 301,268C302.1,266.5 304.3,262.4 306,258.9L308.9,252.6L308.9,216.7C309,176.9 309.2,178.6 302,167.4C299.8,164.1 298,160.8 298,160.1C298,159.5 300.6,160.6 303.8,162.6C314.8,169.7 315.8,170 333.8,170C349.7,170 350.1,169.9 350.9,167.8L351.7,165.6L352.9,167.8C354,170 354.5,170 373.3,170C392.1,170 392.6,169.9 397.5,167.4C400.3,165.9 404.1,163.4 406.1,161.9C412.3,157 412.6,158.4 407.3,166.7C400.5,177.3 399.9,180.1 399.9,200.4C399.9,238.4 400.2,251.1 401,254C401.5,255.6 403.4,260 405.4,263.6C407.7,268 408.6,270.8 408.1,271.8C407.6,272.7 407,272.9 406.7,272.2ZM477,261.4C462.1,257.4 446.7,241.7 444.5,228.3C444.1,225.9 443.4,223.8 443,223.5C442,222.9 442.6,214.1 444.1,206C447.2,190 462.3,174.9 479,171.1C489.4,168.7 500.7,170.3 511.5,175.7C518.3,179.2 528,189.2 531.3,196.3C537.4,209.2 536.7,226.9 529.7,239C526.5,244.6 515.9,254.9 510.8,257.6C500.4,262.9 487.8,264.3 477,261.4ZM360.8,226C362,226 365,218.7 365,215.7C365,210.9 360.9,206.5 355.6,205.5C352.6,204.9 351.2,205.2 348,207.4C343.1,210.6 341.6,214.9 343.7,220C346.1,226 351,228.4 357.5,226.8C359.1,226.3 360.6,226 360.8,226ZM428.7,222.4C427,220.7 428.4,220 433.5,220C437.4,220 439,220.4 439,221.3C439,222.7 430,223.7 428.7,222.4ZM142,219C142,218.5 143.1,218 144.5,218C145.9,218 147,218.5 147,219C147,219.6 145.9,220 144.5,220C143.1,220 142,219.6 142,219ZM283,219C283,218.5 284.8,218 287,218C289.2,218 291,218.5 291,219C291,219.6 289.2,220 287,220C284.8,220 283,219.6 283,219ZM297,219.1C297,218.3 301.7,217 304.6,217C305.4,217 306,217.7 306,218.5C306,219.6 304.8,220 301.5,220C299,220 297,219.6 297,219.1ZM215,146.7C215,134.1 215.4,125 215.9,125C216.8,125 216.2,166.9 215.4,167.9C215.2,168.1 215,158.6 215,146.7ZM339.9,121.2C326.5,116.7 313.8,103.8 310.5,91.3C305.5,72.3 309.2,56.9 321.8,44.3C337.1,28.9 361.6,26.5 379.6,38.7C387.6,44.1 392.6,49.9 396.3,57.9C401.4,68.6 401.3,85.1 396.2,96C391.5,106.2 383.4,114.1 372.3,119.3C366.3,122.1 364.3,122.5 355.5,122.7C347.9,122.9 344.2,122.6 339.9,121.2Z" style="fill:rgb(90,207,230);fill-rule:nonzero;"/>
        </g>
    </g>
</svg>
