<?xml version="1.0" encoding="utf-8"?>
<!DOCTYPE svg PUBLIC "-//W3C//DTD SVG 1.0//EN" "http://www.w3.org/TR/2001/REC-SVG-20010904/DTD/svg10.dtd">
<svg version="1.0" xmlns="http://www.w3.org/2000/svg" width="575px" height="575px" viewBox="0 0 575 575" preserveAspectRatio="xMidYMid meet">
 <g fill="#215c63">
  <path d="M208.8 542.3 c-2 -0.3 -2.8 -1 -2.8 -2.4 0 -1.5 0.7 -1.9 3.5 -1.9 3.1 0 3.5 0.3 3.5 2.5 0 1.4 -0.3 2.4 -0.7 2.4 -0.5 -0.1 -2 -0.4 -3.5 -0.6z"/>
  <path d="M224 540.4 c0 -1.7 0.6 -2.4 1.9 -2.4 2.6 0 13.1 -4.1 15.5 -6 1 -0.8 3.5 -3 5.5 -4.7 2 -1.8 4.2 -3.3 4.9 -3.3 0.6 0 1.2 -0.7 1.2 -1.5 0 -0.8 1.3 -3.5 2.9 -6 4.2 -6.7 6.5 -16.1 5.8 -23.9 -0.7 -7 -5.9 -20.2 -8.9 -22.4 -1 -0.7 -1.8 -2.4 -1.8 -3.8 0 -1.9 -0.5 -2.4 -2.5 -2.4 -1.4 0 -2.8 -0.7 -3.1 -1.5 -0.4 -0.8 -1.2 -1.5 -2 -1.5 -0.8 0 -1.4 -0.3 -1.4 -0.8 0 -1.1 -7.6 -4.2 -15.3 -6.2 -3.8 -0.9 -7.3 -2.3 -7.8 -3.1 -0.6 -0.9 -1.2 -1 -1.6 -0.3 -0.9 1.1 -10.1 3.4 -13.9 3.4 -1.4 0 -2.4 -0.6 -2.4 -1.5 0 -1.3 1.8 -2 10.4 -4 l2.9 -0.6 -0.6 -12.1 c-0.4 -6.7 -0.7 -16.1 -0.7 -21 l0 -8.8 -4.5 0 c-3.8 0 -4.5 -0.3 -4.5 -2 0 -1.9 0.7 -2 20.5 -2 19.8 0 20.5 0.1 20.5 2 0 1.9 -0.7 2 -11 2 l-11 0 0 20.8 0 20.9 4.9 1.1 c17.1 3.9 32.3 18.4 36.5 34.8 6.7 25.8 -8.8 51.9 -34.4 57.8 l-6 1.4 0 -2.4z"/>
  <path d="M195 536.9 c-16.1 -8.8 -24.9 -25 -23.8 -43.6 0.6 -9.6 4 -20.3 6.4 -20.3 2 0 1.8 4 -0.7 11.3 -2.9 8.7 -2.4 18.9 1.5 27.5 1.6 3.4 3.3 6.2 3.7 6.2 0.5 0 0.9 0.6 0.9 1.3 0 1.6 11.3 12.7 12.9 12.7 0.6 0 1.1 0.4 1.1 0.9 0 0.5 1.4 1.2 3 1.6 2.3 0.5 3 1.2 3 3.1 0 3.1 -1.3 3 -8 -0.7z"/>
  <path d="M179 469.2 c0 -1.1 12.2 -13.2 13.3 -13.2 0.4 0 0.7 1.5 0.5 3.3 -0.2 2.4 -0.8 3.3 -2.5 3.5 -1.3 0.2 -2.3 1 -2.3 1.8 0 0.8 -0.7 1.4 -1.5 1.4 -0.8 0 -1.5 0.9 -1.5 2 0 1.6 -0.7 2 -3 2 -1.6 0 -3 -0.4 -3 -0.8z"/>
  <path d="M349.5 449.8 c1.1 -3.8 1.8 -28.9 1 -40.2 l-0.7 -10.6 -16.6 0 c-11.4 0 -17.4 0.4 -18.8 1.3 -4.4 2.5 -12.4 6.7 -12.9 6.7 -1.5 0 -0.1 -3.7 3 -7.7 2 -2.6 3.8 -5.7 4.1 -7 0.9 -3.3 3.4 -2.9 3.4 0.5 l0 2.7 41.8 0 41.7 0 -0.3 -9.2 c-0.3 -7.6 -0.1 -9.3 1.1 -9.3 1.8 0 2.7 3 2.7 9.6 0 4.3 0.7 6.1 4.5 11.9 6.2 9.6 4.8 11.1 -4.5 4.8 l-5.5 -3.8 -17.5 0 -17.5 0 -0.3 24.4 c-0.2 18.9 0.1 24.6 1 25.3 2.1 1.3 -1.1 2.8 -6.1 2.8 -4 0 -4.3 -0.2 -3.6 -2.2z"/>
  <path d="M160 414.2 c0 -2.7 7.7 -8.2 11.4 -8.2 0.9 0 1.6 -0.4 1.6 -1 0 -1.1 6.4 -3 10.3 -3 2 0 2.7 0.5 2.7 2 0 1.3 -0.7 2 -2 2 -2.5 0 -11.8 4.1 -16.7 7.4 -4.5 3.1 -7.3 3.4 -7.3 0.8z"/>
  <path d="M267.3 412.2 c-6.6 -3.9 -8 -6.2 -3.8 -6.2 2.9 0 3 -0.5 1 -4 -1.9 -3.3 -2 -9 -0.1 -9 0.7 0 2.3 2.1 3.4 4.8 1.2 2.6 3.7 7.3 5.8 10.4 5.5 8.7 3.6 9.9 -6.3 4z"/>
  <path d="M75.5 403.9 c-18.2 -2.7 -34.2 -17.3 -39 -35.4 -1.9 -7.6 -1.9 -8.5 0.5 -8.5 1.3 0 2.2 0.9 2.6 2.8 1.2 5.6 3.6 12.2 4.4 12.2 0.4 0 1.1 1.1 1.4 2.5 0.3 1.3 2 4 3.6 5.9 1.7 1.8 3 4.1 3 5 0 0.9 0.8 1.6 2 1.6 1.1 0 2.8 0.8 3.8 1.8 1 1 3.3 2.4 5.2 3.2 1.9 0.8 3.7 1.6 4 2 0.8 0.8 9.7 3 12.5 3 2 0 2.5 0.5 2.5 2.5 0 1.4 -0.1 2.4 -0.2 2.4 -0.2 -0.1 -3 -0.5 -6.3 -1z"/>
  <path d="M86 402.1 c0 -1.5 1 -2.1 4.1 -2.6 6.6 -1.1 17.2 -7 22.3 -12.5 2.6 -2.8 5.1 -5 5.6 -5 0.6 0 1 -0.9 1 -2 0 -1.1 0.7 -2 1.5 -2 0.8 0 1.5 -0.9 1.5 -2.1 0 -1.1 0.5 -3 1.2 -4.2 1.9 -3.6 4.7 -15.1 3.8 -15.7 -0.9 -0.6 -3 -11.7 -3 -16.2 0 -7.4 5.1 1.2 6.2 10.2 l0.3 2.5 20.3 0.3 20.2 0.2 0 -15.2 c0 -16.8 -0.4 -18 -7.5 -29.8 -1.9 -3.2 -3.5 -6.3 -3.5 -6.9 0 -2.2 4.8 -1.1 10.6 2.4 3.3 2 7.6 4.1 9.6 4.7 4.7 1.4 5.4 4.8 1.1 4.8 -3.8 0 -9.3 -2.2 -9.3 -3.7 0 -0.7 -0.5 -1.3 -1 -1.3 -1.1 0 -0.2 5.1 1 6 2 1.3 3 10 3 25.3 0 14.2 -0.2 16.7 -1.5 16.7 -0.8 0 -1.5 0.5 -1.5 1 0 0.6 0.7 1 1.5 1 2.4 0 2.2 34.3 -0.2 41.1 -1.5 4.2 -2.1 4.9 -4.5 4.9 l-2.7 0 2.4 -5.2 c2.3 -4.9 2.5 -6.5 2.5 -21 l0 -15.8 -17.5 0 c-17.5 0 -17.5 0 -17.6 -2.2 l0 -2.3 -0.9 2.3 c-0.5 1.2 -1.8 2.2 -2.8 2.2 -1.5 0 -2.1 0.9 -2.5 4 -0.8 5.9 -6.3 16.4 -11.8 22.4 -6 6.6 -12.4 10.8 -20.6 13.5 -8 2.7 -11.3 2.7 -11.3 0.2z"/>
  <path d="M310 373.5 c0 -2.8 0.4 -3.5 2 -3.5 1.6 0 2 0.7 2 3.5 0 2.8 -0.4 3.5 -2 3.5 -1.6 0 -2 -0.7 -2 -3.5z"/>
  <path d="M395 362.1 l0 -5.1 4 0 c3.3 0 4 0.3 4 2 0 1.3 -0.7 2 -2 2 -1.1 0 -2.1 0.7 -2.1 1.5 -0.1 0.8 -0.2 2.1 -0.3 2.7 0 0.7 -0.9 1.4 -1.8 1.6 -1.5 0.3 -1.8 -0.4 -1.8 -4.7z"/>
  <path d="M442 362 c0 -0.5 -1.1 -1 -2.4 -1 -1.7 0 -2.6 -0.7 -3 -2.5 l-0.6 -2.5 -20.8 -0.2 -20.7 -0.3 -0.3 -11.2 c-0.3 -10.8 -0.2 -11.3 1.8 -11.3 1.9 0 2 0.6 2 9.5 l0 9.5 22 0 c14 0 22 -0.4 22 -1 0 -0.5 0.5 -1 1 -1 0.6 0 1 2.8 1 6.5 0 3.7 -0.4 6.5 -1 6.5 -0.5 0 -1 -0.4 -1 -1z"/>
  <path d="M262.3 355.9 c-0.9 -0.9 -1.3 -4.8 -1.3 -12.1 l0 -10.8 2.5 0 c2.5 0 2.5 0 2.5 9.5 l0 9.5 19 0 c18.3 0 19 0.1 19 2 0 1.9 -0.7 2 -15.2 2 -8.4 0 -17.5 0.3 -20.3 0.6 -3.4 0.4 -5.4 0.2 -6.2 -0.7z"/>
  <path d="M36.6 343.3 c1.5 -6 10.5 -21.3 12.6 -21.3 2 0 0.5 6.4 -2.6 11.2 -1.8 2.9 -3.9 7 -4.5 9.1 -1 2.9 -1.8 3.7 -3.7 3.7 -2.2 0 -2.4 -0.3 -1.8 -2.7z"/>
  <path d="M118 329.5 c0 -4.3 1.2 -4.4 3.9 -0.6 2.7 3.8 2.7 4.1 -0.9 4.1 -2.8 0 -3 -0.3 -3 -3.5z"/>
  <path d="M262.3 321.3 c0.3 -2.6 1 -4.9 1.6 -5.1 0.6 -0.2 1.1 -1.4 1.1 -2.6 0 -1.2 0.4 -2.6 1 -3.2 0.6 -0.6 -0.4 -0.8 -3 -0.6 -3.2 0.3 -4 0.1 -4 -1.2 0 -0.9 0.8 -2 1.8 -2.3 0.9 -0.4 3.4 -1.7 5.5 -3 2.1 -1.3 4.2 -2.1 4.6 -1.8 0.5 0.2 1.1 -0.2 1.5 -1 0.7 -1.9 4.6 -2 4.6 0 0 0.8 -1.6 4 -3.5 7 -4.2 6.5 -7.5 13.9 -7.5 16.6 0 1.3 -0.7 1.9 -2.1 1.9 -2 0 -2.1 -0.4 -1.6 -4.7z"/>
  <path d="M51.2 320.8 c0.2 -0.6 1.8 -2.2 3.6 -3.6 l3.2 -2.5 0 3.7 c0 3.5 -0.1 3.6 -3.6 3.6 -2.3 0 -3.4 -0.4 -3.2 -1.2z"/>
  <path d="M106.3 320.8 c-1.6 -0.8 -2.3 -2 -2.3 -4 0 -1.5 0.3 -2.8 0.6 -2.8 0.9 0 9.2 5.9 9.9 7 0.8 1.3 -5.4 1.2 -8.2 -0.2z"/>
  <path d="M309.4 319.3 c-0.4 -1.6 -2.7 -5.8 -5.1 -9.6 -6.3 -9.7 -4.6 -11.4 5 -4.6 6 4.3 7 5.9 3.7 5.9 -1.7 0 -1.9 0.3 -1 1.9 1.6 3.1 1.3 9.1 -0.5 9.1 -0.8 0 -1.8 -1.2 -2.1 -2.7z"/>
  <path d="M395.2 316 c0.3 -3.3 0 -4 -1.4 -4 -3.4 0 -1.6 -2.5 4.8 -6.7 3.5 -2.4 6.8 -4.3 7.4 -4.3 2.4 0 1.9 2.5 -1.4 6.7 -2 2.6 -4.1 6.4 -4.8 8.5 -0.8 2.7 -1.7 3.8 -3.1 3.8 -1.6 0 -1.9 -0.6 -1.5 -4z"/>
  <path d="M59 315.6 c0 -1.7 7.9 -5.1 14.8 -6.4 5 -0.9 5.2 -0.8 5.2 1.3 0 1.9 -0.7 2.4 -4.1 2.9 -2.3 0.4 -5.4 1.3 -7 2.1 -3.6 1.9 -8.9 2 -8.9 0.1z"/>
  <path d="M203 311.5 c0 -2.4 0.3 -2.5 5.5 -2.5 l5.5 0 0 -22.9 c0 -17.4 -0.3 -23 -1.2 -23.4 -2.1 -0.7 -0.2 -1.8 4.2 -2.4 3.3 -0.5 4.5 -0.2 5.2 1.1 0.5 0.9 0.9 11.9 0.8 24.6 l-0.1 23 8.1 0 c7.9 0 8 0 8 2.5 l0 2.5 -18 0 -18 0 0 -2.5z"/>
  <path d="M348.3 313.3 c-4.8 -0.5 -5.9 -2.7 -1.8 -3.7 l2.5 -0.6 0.2 -16.3 c0.1 -8.9 0.2 -18.7 0.2 -21.7 0.1 -3 -0.3 -5.8 -0.9 -6.2 -0.5 -0.4 0 -0.8 1.1 -0.8 1.2 0 2.7 -0.7 3.4 -1.5 1 -1.2 4.6 -1.5 20.1 -1.5 11.9 0 18.9 0.4 18.9 1 0 0.6 1.3 1 2.9 1 1.6 0 3.6 0.6 4.3 1.3 2 2.1 5.8 2.8 5.8 1.1 0 -3 2.6 -1.2 5.3 3.6 2.7 4.7 2.8 7 0.6 7 -0.6 0 -4.3 -2 -8.2 -4.3 -10.3 -6.3 -12.2 -6.7 -28.7 -6.7 -12.6 0 -14.9 0.2 -15.4 1.6 -0.3 0.9 -0.6 10.7 -0.6 21.9 l0 20.3 9.4 0.7 c5.1 0.4 11.2 0.5 13.5 0.1 3.5 -0.5 4.1 -0.3 4.1 1.3 0 1 -0.7 2.2 -1.6 2.5 -1.6 0.6 -27.8 0.5 -35.1 -0.1z"/>
  <path d="M296.5 275 c-0.7 -1.1 1 -4.5 5.9 -12 2 -3 3.9 -7.2 4.3 -9.2 0.4 -2.8 1 -3.8 2.4 -3.8 2.5 0 2.5 5 0 10.5 l-1.8 4.1 5.1 -1.8 c3.8 -1.3 8.3 -1.7 17.9 -1.8 12 0 12.7 0.1 12.7 2 0 1.9 -0.7 2 -12.2 2 -13.4 0 -17.3 1.2 -27.5 8 -4.7 3.2 -5.8 3.5 -6.8 2z"/>
  <path d="M479.5 263.3 c-5.1 -1 -10.5 -3.6 -10.5 -4.9 0 -1.6 3.9 -1.9 8.4 -0.4 1.7 0.5 4.8 1.2 6.9 1.5 2.8 0.5 3.7 1.1 3.7 2.5 0 1.6 -0.7 2 -3.2 1.9 -1.8 -0.1 -4.2 -0.3 -5.3 -0.6z"/>
  <path d="M491 262.1 c0 -1.4 0.9 -2 3.9 -2.4 4.9 -0.6 21 -7.8 21.1 -9.4 0 -0.6 1.3 -2.2 2.9 -3.5 1.5 -1.3 3.7 -3.7 4.7 -5.4 1 -1.6 2.1 -3.1 2.5 -3.4 3 -2.4 6.9 -14.9 6.9 -22.3 0 -6.1 -3.1 -16.9 -5.6 -19.4 -0.7 -0.8 -1.4 -2.1 -1.4 -2.9 0 -0.8 -0.4 -1.4 -1 -1.4 -0.5 0 -1 -1.6 -1 -3.5 0 -4.6 1.3 -4.4 4.8 0.8 7.1 10.5 9.9 24.6 7.3 36.7 -3.5 16.4 -17.7 31.8 -33.8 36.5 -7.2 2.1 -11.3 2 -11.3 -0.4z"/>
  <path d="M460.5 254.3 c-2.7 -2.2 -6.5 -5.7 -8.4 -7.8 -3.7 -4.3 -8.8 -14.3 -9.7 -19.2 l-0.6 -3.3 -19.9 0 c-17 0 -19.9 0.2 -19.9 1.5 0 0.8 -0.8 1.5 -1.9 1.5 -1.5 0 -1.9 -1.1 -2.5 -7.7 -0.3 -4.2 -0.6 -11.4 -0.6 -16 0 -8.2 0 -8.3 2.5 -8.3 2.5 0 2.5 0 2.5 9.4 l0 9.4 7.3 0.7 c3.9 0.3 12.8 0.5 19.6 0.3 l12.5 -0.3 1.2 -7 c1.3 -8 4.1 -14.5 6.2 -14.5 1.7 0 1.4 3.3 -1.4 15.7 -1.8 7.9 -1.8 8.5 -0.1 16 1 4.3 2.1 9 2.4 10.6 0.3 1.5 1.2 2.7 1.9 2.7 0.8 0 1.4 0.5 1.4 1.1 0 0.6 2.9 4.1 6.6 7.6 5.1 5.1 6.4 7.1 6.2 9.1 l-0.3 2.5 -5 -4z"/>
  <path d="M398 252.5 c0 -2.8 0.4 -3.5 2 -3.5 1.3 0 2 0.7 2 1.9 0 1.1 0.3 2.6 0.6 3.5 0.5 1.2 0 1.6 -2 1.6 -2.3 0 -2.6 -0.4 -2.6 -3.5z"/>
  <path d="M308 238.5 c0 -2.8 0.4 -3.5 2 -3.5 1.6 0 2 0.7 2 3.5 0 2.8 -0.4 3.5 -2 3.5 -1.6 0 -2 -0.7 -2 -3.5z"/>
  <path d="M308 230.5 c0 -2.8 0.4 -3.5 2 -3.5 1.6 0 2 0.7 2 3.5 0 2.8 -0.4 3.5 -2 3.5 -1.6 0 -2 -0.7 -2 -3.5z"/>
  <path d="M308 223.4 c0 -0.9 -0.9 -1.8 -2 -2.1 -1.1 -0.3 -2 -1.2 -2 -1.9 0 -0.8 -0.4 -1.4 -1 -1.4 -0.5 0 -1 0.7 -1 1.5 0 1.3 -2.1 1.5 -12.5 1.5 -10.4 0 -12.5 -0.2 -12.5 -1.5 0 -0.8 -0.4 -1.5 -0.9 -1.5 -0.5 0 -1.6 -0.3 -2.5 -0.6 -1.2 -0.4 -1.6 0 -1.6 1.5 0 1.7 -0.6 2.1 -3.4 2.1 -1.9 0 -3.7 0.6 -3.9 1.3 -0.4 0.7 -0.6 0.6 -0.6 -0.4 -0.1 -0.9 -0.8 -1.9 -1.6 -2.3 -2.1 -0.8 -2.1 -10.6 0 -10.6 0.7 0 1.8 0.7 2.3 1.5 0.7 1.3 3.9 1.5 21.8 1.3 l20.9 -0.3 0.3 -9.2 c0.3 -8.5 0.4 -9.3 2.3 -9.3 1.9 0 1.9 0.6 1.7 11.7 l-0.3 11.8 -3 0.6 -3 0.7 2.8 0.1 c2.4 0.1 2.7 0.5 2.7 3.6 0 2.4 -0.5 3.5 -1.5 3.5 -0.8 0 -1.5 -0.7 -1.5 -1.6z"/>
  <path d="M127 221 c0 -1.1 -0.4 -2 -1 -2 -1.1 0 -1.4 -5.9 -0.4 -8.4 0.8 -2 3.4 -2.1 3.4 -0.1 0 1.3 3 1.5 21.4 1.5 16.2 0 21.5 -0.3 21.9 -1.2 0.8 -2.3 1.7 -0.2 2.4 5.1 l0.6 5.1 -12.2 0 c-10.1 0 -12.1 -0.2 -12.1 -1.5 0 -0.9 -0.9 -1.5 -2.5 -1.5 -1.6 0 -2.5 0.6 -2.5 1.5 0 1.2 -1.6 1.5 -8.5 1.5 -5 0 -8.5 0.4 -8.5 1 0 0.6 -0.4 1 -1 1 -0.5 0 -1 -0.9 -1 -2z"/>
  <path d="M453.9 184.1 c3.7 -4.4 9.6 -9.1 11.5 -9.1 0.3 0 0.6 1.3 0.6 2.9 0 2.1 -0.6 3.2 -2 3.6 -1.1 0.3 -2 1.1 -2 1.6 0 0.5 -0.9 0.9 -1.9 0.9 -1.3 0 -2.1 0.8 -2.3 2.3 -0.2 1.8 -1 2.3 -4.2 2.5 l-3.9 0.3 4.2 -5z"/>
  <path d="M398.2 179.7 c0.5 -3.9 4.9 -14.4 6.6 -15.7 0.4 -0.3 1.3 -1.7 2.1 -3.2 1.7 -3.3 4 -4.3 4.8 -2.2 0.6 1.5 -0.9 5 -7.2 16.4 -1.3 2.5 -2.5 5.5 -2.5 6.8 0 1.6 -0.6 2.2 -2.1 2.2 -1.9 0 -2.1 -0.4 -1.7 -4.3z"/>
  <path d="M474.2 172.3 c0.2 -1.1 2.1 -2.1 5.8 -2.9 7.2 -1.7 7 -1.8 7 1 0 2 -0.6 2.4 -4.6 3 -7.3 1 -8.6 0.8 -8.2 -1.1z"/>
  <path d="M214.4 165 c0.5 -5.1 0.4 -8.5 -0.2 -8.9 -0.6 -0.3 -1.1 -8.4 -1.3 -18.9 l-0.4 -18.2 5.2 0 c8 0 10.5 1.7 6.6 4.6 -1.6 1.1 -1.8 3.4 -1.8 23.4 0 18.3 0.2 22.2 1.5 23 2.2 1.4 0.6 2.2 -5.1 2.8 l-5.2 0.5 0.7 -8.3z"/>
  <path d="M324 171 c0 -1.6 0.7 -2 3.5 -2 2.8 0 3.5 0.4 3.5 2 0 1.6 -0.7 2 -3.5 2 -2.8 0 -3.5 -0.4 -3.5 -2z"/>
  <path d="M335 171 c0 -1.7 0.8 -1.9 7.2 -2.2 7 -0.3 7.2 -0.4 8 -3.3 1 -3.7 1.2 -33 0.2 -37.9 -0.5 -3.1 -1 -3.6 -3.5 -3.6 -3.6 0 -13.4 -3.6 -17.9 -6.7 -6.6 -4.4 -14 -12.6 -17 -18.7 -4.4 -9.2 -4.6 -10.6 -1.8 -10.6 1.8 0 2.7 1 4.1 4.3 0.9 2.3 1.7 5 1.7 6 0 0.9 0.7 1.7 1.5 1.7 0.8 0 1.5 0.6 1.5 1.3 0 0.7 0.9 1.8 2 2.5 1.1 0.7 2 1.8 2 2.5 0 0.7 0.8 1.7 1.9 2.2 1 0.6 4.2 2.6 7.2 4.7 3.3 2.2 8.5 4.5 13.3 5.7 l7.8 2.1 9.2 -2.2 c5 -1.2 9.7 -2.8 10.4 -3.5 0.7 -0.7 1.8 -1.3 2.3 -1.3 0.6 0 2.4 -1.3 4.2 -3 1.8 -1.6 4.2 -3 5.5 -3 1.7 0 2.2 -0.6 2.2 -2.5 0 -1.4 0.4 -2.5 0.9 -2.5 0.5 0 1.1 -0.9 1.4 -2 0.4 -1.5 1.4 -2 3.6 -2 1.7 0 3.1 0.3 3.1 0.6 0 1.5 -7.6 10.7 -11.4 13.9 -5.2 4.2 -15.9 9.3 -21.7 10.3 l-4.4 0.8 -0.3 21.7 -0.2 21.7 2.3 0.5 c1.3 0.4 8 0.5 15 0.3 12.6 -0.3 12.7 -0.3 12.7 2 l0 2.2 -26.5 0 c-25.6 0 -26.5 -0.1 -26.5 -2z"/>
  <path d="M312.3 171.3 c-0.7 -0.2 -1.3 -1.1 -1.3 -1.8 0 -0.7 -1.5 -1.5 -3.5 -1.7 -2.5 -0.3 -3.5 0 -3.5 1 0 2.6 -2.5 0.5 -5.2 -4.4 -1.5 -2.7 -2.8 -5.2 -2.8 -5.6 0 -1.8 3.5 -0.6 9.8 3.2 3.7 2.3 8.8 4.8 11.5 5.8 6 2.1 6.2 4.2 0.5 4.1 -2.4 0 -4.9 -0.3 -5.5 -0.6z"/>
  <path d="M396 88.5 c0 -3.1 0.3 -3.5 2.5 -3.5 2.8 0 3 0.6 1.5 4.4 -1.5 3.9 -4 3.3 -4 -0.9z"/>
  <path d="M307.7 86.3 c-0.4 -0.3 -0.7 -4.2 -0.7 -8.5 0 -7.1 0.2 -7.8 2 -7.8 1.8 0 2 0.7 2 8.5 0 6.4 -0.3 8.5 -1.3 8.5 -0.8 0 -1.7 -0.3 -2 -0.7z"/>
  <path d="M396.7 69.3 c-1.2 -6.2 -3.3 -11.9 -4.9 -13.5 -2.1 -2.1 -2.5 -9.2 -0.5 -8.6 1.9 0.6 8.6 14.7 9.6 20.1 0.8 4.5 0.7 4.7 -1.4 4.7 -1.7 0 -2.4 -0.7 -2.8 -2.7z"/>
  <path d="M311.6 55.8 c2.4 -4.8 5.4 -8.8 6.5 -8.8 0.5 0 0.9 1.6 0.9 3.5 0 1.9 -0.4 3.5 -0.9 3.5 -0.5 0 -1.2 1.1 -1.5 2.5 -0.5 2 -1.3 2.5 -3.6 2.5 l-3.1 0 1.7 -3.2z"/>
  <path d="M328 37.8 c0 -1.9 11.5 -6.9 18.8 -8.2 2.9 -0.5 3.2 -0.3 3.2 1.9 0 2.2 -0.4 2.5 -3.9 2.5 -2.2 0 -4.1 0.3 -4.3 0.8 -1.2 2.8 -13.8 5.6 -13.8 3z"/>
  <path d="M369 34.5 c0 -2.7 1.8 -3.2 5.1 -1.5 3.2 1.8 2.3 4 -1.6 4 -3.1 0 -3.5 -0.3 -3.5 -2.5z"/>
  <path d="M359 31.7 c0 -2 0.4 -2.3 3.5 -1.9 2.6 0.3 3.5 0.9 3.5 2.3 0 1.5 -0.7 1.9 -3.5 1.9 -3 0 -3.5 -0.3 -3.5 -2.3z"/>
 </g>
 <g fill="#325467">
  <path d="M210.5 542 c-0.4 -0.6 -1 -0.8 -1.5 -0.5 -1.2 0.8 -9 -1.6 -9 -2.7 0 -0.4 -0.3 -0.8 -0.7 -0.7 -1.6 0.2 -5.3 -1.4 -5.3 -2.3 0 -0.5 -0.5 -0.6 -1 -0.3 -0.6 0.3 -1.3 -0.1 -1.6 -0.9 -0.3 -0.9 -0.9 -1.4 -1.3 -1.2 -0.4 0.3 -1.2 -0.4 -1.9 -1.5 -1.1 -1.7 -0.9 -1.9 1.6 -1.9 2.4 0 6.8 2.1 8.2 4.1 1.1 1.5 14.1 4.3 21.8 4.6 8.2 0.4 9.9 1.3 6.3 3.3 -2.5 1.3 -14.8 1.3 -15.6 0z"/>
  <path d="M342.6 540.9 c-10.6 -2.5 -23.5 -12.6 -29.3 -22.9 -6.2 -11.2 -7.4 -26.9 -2.8 -38.2 3.4 -8.5 8.8 -16 14.6 -20.7 4.4 -3.5 14.8 -8 22.2 -9.6 1.8 -0.4 2.7 -1.2 2.7 -2.5 0 -1.3 0.7 -2 2 -2 1.8 0 1.9 0.3 0.9 2.1 -1 2 -0.9 2.1 1.2 1.6 3 -0.8 15 2.5 21.8 6 6.7 3.5 16.9 14.2 20.3 21.5 14.8 31.2 -8 66.2 -42.8 65.7 -3.8 -0.1 -8.6 -0.5 -10.8 -1z"/>
  <path d="M477.5 540.6 c-7.7 -1.9 -12.3 -4.2 -18 -8.9 -6.3 -5.1 -10.7 -11.2 -14.2 -19.8 -3.4 -8.5 -3.7 -22.4 -0.5 -31.1 4.2 -11.7 12.4 -21.3 22.4 -26.4 22 -11.2 46.6 -4.6 61 16.3 6.6 9.7 9.5 26.1 6.4 36.4 -7.7 25.3 -32.2 39.7 -57.1 33.5z"/>
  <path d="M239 535.5 c0 -2.2 0.4 -2.5 3.7 -2.5 3.6 0 3.6 0 1.7 1.8 -1 1 -2.7 2.1 -3.6 2.5 -1.4 0.5 -1.8 0.1 -1.8 -1.8z"/>
  <path d="M251 526.1 c0 -2.6 0.4 -3.1 2.5 -3.1 3.5 0 3.2 1.8 -0.7 4.9 -1.6 1.2 -1.8 1.1 -1.8 -1.8z"/>
  <path d="M261.5 497 c0 -10.8 -0.3 -14.3 -1.4 -14.9 -0.7 -0.5 -1.6 -3 -1.8 -5.7 l-0.6 -4.9 2 2 c1.1 1.1 1.9 2.3 1.6 2.8 -0.2 0.4 0.1 0.7 0.7 0.7 0.7 0 1 0.6 0.7 1.3 -0.2 0.6 0.2 2.4 0.9 3.9 0.8 1.5 1.4 3.1 1.3 3.5 -0.1 0.4 0 1 0.1 1.3 0.8 1.6 0.7 18 -0.1 18 -0.6 0 -0.9 0.6 -0.8 1.3 0.3 1.5 -1.1 4.7 -2 4.7 -0.3 0 -0.6 -6.3 -0.6 -14z"/>
  <path d="M172.5 485.3 c0.1 -1 0.7 -2.9 1.2 -4.3 0.6 -1.4 0.9 -2.8 0.6 -3.2 -0.2 -0.5 0.1 -0.8 0.8 -0.8 0.7 0 1 -0.3 0.6 -0.6 -1 -1 1.9 -5.9 6.3 -10.6 l4 -4.3 0 3.8 c0 2 -0.4 3.7 -0.8 3.7 -0.4 0 -2.1 2.7 -3.7 6 -1.7 3.2 -3.6 5.9 -4.2 6 -0.8 0 -1.3 1.3 -1.3 3 0 2.2 -0.5 3 -1.8 3 -1.2 0 -1.8 -0.6 -1.7 -1.7z"/>
  <path d="M242 460 c-3.6 -2.9 -10.1 -5.8 -16 -7.2 -4.4 -1 -5 -1.4 -5 -3.7 0.1 -2.3 0.2 -2.4 1.1 -0.8 0.5 0.9 1.5 1.7 2 1.7 0.6 0 0.7 -0.4 0.4 -1 -0.3 -0.5 0.1 -1 1 -1 0.9 0 1.4 0.4 1 1 -0.7 1.1 7.1 3.3 8.7 2.4 0.7 -0.5 0.8 -0.3 0.3 0.5 -0.5 0.9 -0.1 1.2 1.3 0.9 1.1 -0.2 3 0.6 4.3 1.7 1.3 1.2 1.9 1.4 1.4 0.5 -0.8 -1.3 -0.7 -1.3 1.1 0 1 0.8 3.1 2.7 4.6 4.2 l2.7 2.8 -3.2 0 c-1.8 0 -4.3 -0.9 -5.7 -2z"/>
  <path d="M190 458 c3 -2.9 10.1 -6.7 14.4 -7.6 1.1 -0.3 3.2 -0.8 4.6 -1.1 1.4 -0.3 3.1 -0.6 3.8 -0.6 0.6 0 1.2 -0.6 1.2 -1.4 0 -0.7 0.5 -1.3 1 -1.3 0.6 0 1 1.4 1 3 0 2.2 -0.5 3 -1.7 3 -3.6 0 -9 2.1 -14.7 5.5 -3.6 2.2 -7.1 3.5 -9.3 3.5 l-3.4 0 3.1 -3z"/>
  <path d="M213.9 433.8 c-0.1 -0.7 -0.3 -2.3 -0.4 -3.6 -0.3 -3 1.6 -7.2 3.3 -7.2 1.3 0 1.6 3.8 0.6 8.9 -0.6 3 -3.3 4.4 -3.5 1.9z"/>
  <path d="M214.9 413.3 c-0.1 -3.5 -0.2 -3.6 -1 -1.3 -0.7 2 -0.8 1.6 -0.6 -2 l0.2 -4.5 -15.8 0.2 c-8.7 0.1 -16.2 0.5 -16.7 0.8 -0.6 0.3 -1.5 0.3 -2.2 -0.1 -0.7 -0.5 -0.8 -0.3 -0.3 0.6 0.5 0.8 0.3 1.1 -0.6 0.8 -0.8 -0.3 -2 0.1 -2.7 0.9 -0.8 0.7 -1.8 1.1 -2.3 0.8 -0.5 -0.4 -0.9 -0.1 -0.9 0.5 0 0.6 -0.4 0.9 -0.9 0.5 -0.6 -0.3 -1.3 0 -1.8 0.7 -0.4 0.7 -1.5 1.3 -2.3 1.3 -0.8 0 -1.3 0.7 -1.2 1.5 0.2 0.8 0.1 1.2 -0.3 0.8 -0.4 -0.4 -1.8 -0.3 -3.1 0.2 -1.9 0.8 -2.4 0.6 -2.4 -0.7 0 -1.6 6.8 -12.5 8.3 -13.1 0.4 -0.2 0.7 -1 0.7 -1.8 0 -0.8 0.7 -1.4 1.5 -1.4 1.1 0 1.5 1.1 1.5 3.6 0 3 0.3 3.5 1.8 2.9 5.1 -2.1 9.6 -2.5 25.4 -2.3 l17.3 0.3 0.3 7.3 c0.2 4.5 -0.1 7.2 -0.8 7.2 -0.5 0 -1 -1.7 -1.1 -3.7z"/>
  <path d="M271 413.8 c-1.1 -1.2 -2 -1.9 -2 -1.5 0 0.4 -0.9 -0.1 -2 -1.1 -1.2 -0.9 -2.4 -1.7 -2.8 -1.7 -0.4 -0.1 -2.9 -0.8 -5.7 -1.8 -3.4 -1.1 -9.5 -1.8 -19.5 -2.1 -8 -0.3 -15.1 -0.5 -15.7 -0.5 -0.7 -0.1 -1.3 -0.8 -1.3 -1.6 0 -1.3 2.5 -1.5 16.7 -1.5 18.7 0 28.3 1.8 28.3 5.2 0 1 0.5 1.8 1 1.8 0.6 0 1 -1.4 1 -3.2 0 -3.1 0 -3.1 1.9 -1.2 1 1 1.7 2.2 1.4 2.7 -0.2 0.4 0 0.7 0.6 0.7 0.6 0 1.8 1.4 2.7 3.1 1.3 2.6 1.4 3.3 0.2 4 -1.9 1.3 -2.5 1.1 -4.8 -1.3z"/>
  <path d="M301.3 404.9 c0.1 -1.1 1 -2.5 1.9 -3 1 -0.6 1.7 -1.3 1.5 -1.7 -0.2 -0.4 0.4 -1.5 1.5 -2.4 1 -1 1.8 -1.5 1.8 -1 0 0.4 1.8 0.6 4 0.4 2.2 -0.2 4 0 3.9 0.4 0 1.3 -5.9 5.7 -7.5 5.7 -0.8 0 -1.4 0.4 -1.4 0.9 0 0.5 -0.4 0.7 -0.9 0.4 -0.5 -0.3 -1.4 0.1 -2.1 0.9 -1.8 2.1 -2.9 1.9 -2.7 -0.6z"/>
  <path d="M401.4 404.5 c-0.4 -0.9 -1.8 -2.2 -3.2 -2.9 l-2.6 -1.3 3.8 -0.5 c2.6 -0.3 4 0 4.3 0.9 0.3 0.7 0.9 1.1 1.3 0.8 1 -0.6 2.4 3.4 1.5 4.3 -0.3 0.3 -1.5 0 -2.7 -0.7 -1.1 -0.7 -1.7 -0.8 -1.3 -0.2 0.3 0.6 0.4 1.1 0 1.1 -0.3 0 -0.8 -0.7 -1.1 -1.5z"/>
  <path d="M79.7 403.9 c-1 -0.6 -2.9 -0.8 -4.2 -0.5 -1.3 0.3 -2.6 0.2 -3 -0.4 -0.3 -0.5 -1.2 -0.7 -2 -0.3 -0.8 0.3 -1.5 0 -1.5 -0.7 0 -0.7 -0.7 -1 -1.5 -0.6 -0.8 0.3 -2 0 -2.7 -0.7 -0.7 -0.7 -2.9 -1.9 -4.8 -2.7 -3.6 -1.5 -5.2 -2.7 -10.2 -7.5 l-3.1 -3 2.7 -0.3 c3.2 -0.4 5.6 1.3 5.6 3.9 0 1.4 0.7 1.9 3 1.9 2.3 0 3 0.4 3 2 0 1.6 0.7 2 3.8 2 2.1 0 4.4 0.6 5.1 1.3 0.8 0.8 5.2 1.2 14.7 1.2 7.3 -0.1 13.4 0.3 13.4 0.7 0 0.4 -0.9 1.2 -2 1.8 -1.1 0.6 -2 0.9 -2 0.6 0 -0.2 -2.4 0.2 -5.2 1 -6.3 1.6 -6.8 1.7 -9.1 0.3z"/>
  <path d="M478.4 402 c-6.5 -1.3 -16.2 -6.7 -22.1 -12.2 -6.2 -5.9 -10.5 -13.4 -12.7 -22 -0.8 -3.3 -1.7 -6.2 -1.8 -6.4 -0.2 -0.1 -10.1 -0.4 -22 -0.6 l-21.6 -0.3 0 2.5 c0.1 4.9 -0.2 6 -1.7 6 -2 0 -2.1 -8.6 -0.1 -10.6 1.2 -1.1 5.5 -1.4 21.5 -1.4 l20.1 0 0.1 -2.2 c0.1 -2.1 0.2 -2 1.3 0.6 l1.3 2.9 0.6 -3.9 c2.6 -16 6.4 -24 15.1 -32.1 19.2 -17.8 46.6 -17.5 65.2 0.6 12.2 11.9 17 28.6 12.9 44.4 -6.5 24.9 -30.5 39.7 -56.1 34.7z"/>
  <path d="M262.6 397.9 c-0.3 -1.7 -0.6 -11.4 -0.6 -21.5 l0 -18.4 3.5 0 c2.4 0 3.5 0.5 3.5 1.5 0 0.8 -0.7 1.5 -1.5 1.5 -1.4 0 -1.6 2.4 -1.5 18 0.1 9.9 0.5 18 0.9 18 0.4 0 0.7 0.9 0.8 2 0.1 1.5 -0.4 2 -2.1 2 -1.8 0 -2.5 -0.7 -3 -3.1z"/>
  <path d="M102 396.9 c0 -1.5 0.7 -1.9 3.7 -1.9 3.6 0 3.6 0 1.7 1.8 -2.6 2.5 -5.4 2.6 -5.4 0.1z"/>
  <path d="M309.2 391 c0.6 -2.2 1.6 -4 2.4 -4 1 0 1.4 1.3 1.4 4 0 3.6 -0.3 4 -2.4 4 -2.3 0 -2.3 -0.2 -1.4 -4z"/>
  <path d="M171.8 388.3 c-0.6 -2.8 0.2 -5.3 1.8 -5.3 0.9 0 1.4 1.1 1.4 3.5 0 3.7 -2.4 5 -3.2 1.8z"/>
  <path d="M117 385.3 c0 -3.9 4.7 -11.3 7.2 -11.3 1.5 0 1.7 0.6 1.3 2.7 -0.2 1.6 -1.1 3.2 -1.8 3.8 -0.8 0.5 -1.4 1.3 -1.5 1.8 -0.2 1.3 -2.1 4.2 -2.2 3.3 0 -0.6 -0.7 -0.1 -1.5 1 -1.4 1.8 -1.4 1.7 -1.5 -1.3z"/>
  <path d="M126 367.5 c0 -2.4 0.5 -3.5 1.5 -3.5 1 0 1.5 -1 1.5 -3 l0 -3 7.5 0 c5.7 0 7.5 0.3 7.5 1.4 0 1.8 -2.3 2.3 -8.8 2.1 -4.1 -0.2 -5.2 0.1 -5.4 1.4 -0.4 3.9 -0.6 4.7 -1.3 6.4 -1.2 2.8 -2.5 1.9 -2.5 -1.8z"/>
  <path d="M35.9 363.8 c-1.4 -2.6 -0.7 -18.4 0.9 -20 0.6 -0.6 0.8 -1.7 0.5 -2.6 -0.4 -1 -0.2 -1.3 0.5 -0.8 0.8 0.5 1 0.2 0.6 -0.8 -0.3 -0.9 -0.1 -1.6 0.6 -1.6 0.6 0 0.9 -0.4 0.6 -0.9 -0.3 -0.5 0.1 -1.4 0.9 -2.1 0.8 -0.7 1.2 -1.6 0.9 -2.1 -0.3 -0.5 0 -0.9 0.7 -0.9 0.7 0 1 -0.3 0.7 -0.6 -0.3 -0.3 0.5 -1.7 1.8 -3.1 1.3 -1.4 2.4 -3.2 2.4 -3.9 0 -1.1 11.2 -10.3 12.8 -10.5 2.7 -0.3 4.6 -0.9 5.1 -1.6 0.3 -0.4 1.7 -1 3.1 -1.1 1.4 -0.2 3 -0.8 3.5 -1.3 1.3 -1 2.9 -1.1 13.4 -0.9 9 0.2 17.8 2.7 21.1 6 1 1 2.1 1.6 2.4 1.2 0.3 -0.3 0.6 0 0.6 0.6 0 0.6 0.8 1.3 1.8 1.6 2.5 0.8 11.3 9.7 10.6 10.7 -0.3 0.5 -0.1 0.9 0.5 0.9 1.4 0 5.1 7.3 5.1 10 0 1.1 0.4 2 0.8 2 0.5 0 0.8 1.5 0.7 3.3 0 1.7 0.4 3.5 0.9 3.8 1.3 1 0 3.9 -1.7 3.9 -1 0 -1.7 -1.8 -2.1 -6 -0.4 -3.3 -1 -6 -1.4 -6 -0.4 0 -1.9 -2.1 -3.4 -4.8 -1.5 -2.6 -4.7 -6.7 -7.2 -9.2 -2.5 -2.4 -4.6 -5 -4.6 -5.7 0 -0.7 -0.7 -1.3 -1.6 -1.3 -0.9 0 -4.2 -1.3 -7.4 -2.9 -3.2 -1.6 -8.4 -3.4 -11.5 -4 -6.1 -1.1 -19.5 -0.4 -19.5 1 0 0.5 -0.9 0.9 -2 0.9 -1.1 0 -2 0.4 -2 0.9 0 0.5 -1.9 2 -4.2 3.4 -2.4 1.4 -5.6 3.9 -7.2 5.6 -1.7 1.7 -4 3.1 -5.3 3.1 -1.9 0 -2.3 0.5 -2.3 2.9 0 1.6 -0.6 3.6 -1.2 4.3 -2.6 2.6 -5.1 12.5 -5.6 21.6 -0.5 9.4 -1.2 10.9 -3.3 7z"/>
  <path d="M166.8 361.2 c-3.4 -0.7 -2 -3.2 1.7 -3.2 2.3 0 3.5 0.5 3.5 1.4 0 1.5 -2.5 2.4 -5.2 1.8z"/>
  <path d="M262 338.8 c0 -18.2 1.4 -26.8 4.2 -26.8 1.1 0 1.8 -0.8 1.8 -2 0 -1.9 -0.1 -1.9 -4.2 0.3 -3.9 2 -5.9 2.2 -23.5 2.5 -17.5 0.3 -19.3 0.2 -19.3 -1.3 0 -1.1 0.5 -1.5 1.5 -1.1 0.8 0.3 1.5 0.1 1.5 -0.4 0 -0.6 6 -1 15 -1 11.2 0 16 -0.4 18.7 -1.5 2 -0.8 3.8 -1.3 4 -1.1 0.3 0.2 1.3 -0.4 2.4 -1.5 1.1 -1.1 2.4 -1.7 2.9 -1.4 0.6 0.4 1 0.2 1 -0.4 0 -0.5 1.6 -1.9 3.6 -3.1 2.6 -1.7 3.8 -2 4.7 -1.1 1.6 1.6 -1 5.8 -4.2 6.7 -2.1 0.6 -2.2 0.8 -0.8 1.1 1.4 0.4 1.6 0.8 0.6 1.9 -0.6 0.8 -0.9 1.4 -0.5 1.4 0.3 0 -0.2 0.9 -1.1 2 -0.9 1 -1.8 2.9 -2 4.2 -0.2 1.2 -0.8 2.5 -1.4 2.9 -0.6 0.3 -1 0.9 -1 1.3 0.1 0.3 0.1 0.9 0.1 1.4 -0.1 0.4 -0.1 7.4 0 15.5 0.1 11.9 -0.2 14.7 -1.2 14.1 -1 -0.6 -1 -0.4 0 0.8 0.8 0.9 2 1.4 2.8 1.1 0.8 -0.3 1.4 0 1.4 0.6 0 0.6 -1.6 1.1 -3.5 1.1 l-3.5 0 0 -16.2z m2.7 0.5 c-0.2 -2.1 -0.4 -0.4 -0.4 3.7 0 4.1 0.2 5.8 0.4 3.8 0.2 -2.1 0.2 -5.5 0 -7.5z m-30.4 -29 c-1.3 -0.2 -3.5 -0.2 -5 0 -1.6 0.2 -0.5 0.4 2.2 0.4 2.8 0 4 -0.2 2.8 -0.4z"/>
  <path d="M309.9 321.8 c-0.3 -4.2 -0.7 -6.1 -1.5 -6.6 -1.3 -1 -1.7 -4.2 -0.4 -4.2 0.5 0 0.1 -0.9 -1 -2 -1.1 -1.1 -2.2 -2 -2.5 -2 -1.2 0 -4.5 -4.2 -4 -5 1 -1.7 3.4 -1.1 5.8 1.3 1.2 1.2 2.6 2.2 3 2.2 0.4 0 1.2 0.7 1.7 1.5 0.5 0.8 1 1.1 1 0.6 0 -0.5 0.6 -0.4 1.3 0.2 0.6 0.5 2.7 1.3 4.5 1.7 1.9 0.4 3.2 1.3 3.2 2.2 0 1.2 -1 1.4 -5 1.1 -4.2 -0.2 -5 0 -5 1.5 0 0.9 0.5 1.7 1 1.7 0.6 0 1 1.6 1 3.5 0 2.4 -0.5 3.5 -1.5 3.5 -0.8 0 -1.5 -0.6 -1.6 -1.2z"/>
  <path d="M395 318.2 l0 -4.9 -8 0.5 c-7 0.4 -8 0.2 -8 -1.2 0 -2.2 3.6 -3.4 10.9 -3.7 3.4 -0.1 6.1 -0.5 6.1 -0.9 0 -1.4 9.2 -7.2 10.5 -6.6 2.3 0.8 1.8 2 -2.4 6.7 -2.2 2.3 -3.8 4.6 -3.5 5.1 0.3 0.4 0.1 0.8 -0.5 0.8 -0.6 0 -0.7 0.7 -0.4 1.7 0.5 1.2 0.3 1.4 -0.7 0.8 -0.8 -0.5 -1.1 -0.4 -0.6 0.3 1 1.7 -0.4 6.2 -2 6.2 -1 0 -1.4 -1.4 -1.4 -4.8z"/>
  <path d="M170.7 320.8 c-0.2 -0.7 -0.5 -1.7 -0.5 -2.2 0 -0.5 -0.5 -1.2 -1.1 -1.6 -0.6 -0.3 -1.3 -1.7 -1.6 -2.9 -0.2 -1.3 -1.2 -3 -2.2 -3.8 -1 -0.8 -1.2 -1.1 -0.4 -0.7 0.7 0.4 0.3 -0.8 -1 -2.7 -1.3 -1.9 -2.7 -3.5 -3.1 -3.7 -1.2 -0.5 -0.9 -5.2 0.2 -5.2 1.5 0 9 5.1 9 6.1 0 0.5 0.3 0.8 0.8 0.7 1.5 -0.4 5.2 1.4 4.7 2.3 -0.3 0.5 0.1 0.6 0.9 0.3 0.9 -0.3 1.6 -0.1 1.6 0.5 0 0.6 0.7 0.8 1.7 0.4 0.9 -0.4 1.4 -0.2 1.1 0.3 -0.4 0.5 6.3 0.8 16.5 0.8 10.7 -0.1 15.5 0.1 12.7 0.6 l-4.5 0.8 4.5 -0.2 c4.3 -0.1 4.5 -0.2 4.2 -2.8 -0.2 -1.6 0.1 -2.8 0.7 -2.8 0.6 0 1.1 -1.1 1.1 -2.5 0 -1.4 0.5 -2.5 1 -2.5 0.7 0 1 2.4 0.8 6.3 l-0.3 6.2 -19.1 0.3 c-17.4 0.2 -19.6 0.1 -23.9 -1.8 -5 -2.1 -7.2 -1.9 -4.1 0.3 2 1.5 3.6 10.7 1.8 10.7 -0.5 0 -1.2 -0.6 -1.5 -1.2z"/>
  <path d="M346 311.5 c0 -0.8 0.7 -1.5 1.6 -1.5 0.9 0 1.8 -0.9 2.1 -2 0.9 -3.5 3.3 -2.4 3.3 1.5 0 3.3 -0.2 3.5 -3.5 3.5 -2.4 0 -3.5 -0.5 -3.5 -1.5z"/>
  <path d="M356 311.5 c0 -1.2 0.7 -1.4 2.8 -0.9 2.1 0.4 2.4 0.3 1.2 -0.5 -1.1 -0.8 -0.4 -1 3 -1 4.1 0.1 4.2 0.2 1.5 0.9 -2.8 0.7 -2.7 0.8 1.3 0.9 7.2 0.2 4.7 2.1 -2.8 2.1 -5.6 0 -7 -0.3 -7 -1.5z"/>
  <path d="M349.9 283.5 c-0.1 -0.8 -0.1 -2.4 -0.1 -3.5 0 -4.2 0.2 -5 1.7 -5 1.1 0 1.5 1.2 1.5 5 0 3.8 -0.4 5 -1.5 5 -0.8 0 -1.5 -0.7 -1.6 -1.5z"/>
  <path d="M214.9 275.8 c0 -0.7 -0.1 -3.6 -0.3 -6.5 -0.1 -2.9 -0.4 -5.5 -0.7 -5.7 -0.3 -0.3 -2.9 -1 -5.7 -1.6 -13.1 -2.5 -25.9 -12.3 -31.7 -24.5 -2 -4.1 -3.9 -9.3 -4.3 -11.7 -0.7 -3.7 -1.1 -4.4 -3.7 -4.8 -1.9 -0.3 -3.1 -1.2 -3.3 -2.4 -0.3 -1.6 0.1 -1.8 3.1 -1.4 3.3 0.4 3.4 0.3 2.6 -2.4 -0.4 -1.5 -0.4 -2.8 0.1 -2.8 0.4 0 1.1 -2.2 1.5 -5 1.1 -7.8 6.4 -17.8 12.8 -23.8 6 -5.6 17.6 -11.8 24 -12.8 l3.7 -0.7 0 -7.6 c0 -8.9 0.7 -12.1 2.6 -12.1 1.3 0 1.7 5.1 1.7 18.3 0 1.2 0.5 1.6 1.5 1.2 4.6 -1.7 21.7 4.6 29.2 11 8.9 7.5 16.1 21 16.2 30.5 0.1 5.3 0.7 6.7 2 4.9 0.7 -1.1 1.1 -1.1 1.5 -0.1 0.3 0.7 2.3 1.2 4.9 1.2 3.8 0 4.4 0.3 4.4 2.1 0 2 -0.4 2.1 -5.1 1.7 -6.1 -0.6 -7.4 0.4 -8.4 6.4 -2.5 14.8 -17.3 30.2 -33 34.3 -3.3 0.8 -6.5 2.2 -7.1 3 -1.5 2 -3.1 1.9 -4.3 -0.2 -0.8 -1.4 -1 0 -1.1 5.5 0 5.7 -0.3 7.2 -1.5 7.2 -0.8 0 -1.5 -0.6 -1.6 -1.2z"/>
  <path d="M297.4 274.5 c-0.4 -0.8 -0.1 -2.2 0.6 -3 0.7 -0.8 0.9 -1.5 0.4 -1.5 -0.4 0 0.1 -0.7 1.2 -1.6 1 -0.8 1.2 -1.2 0.4 -0.8 -0.8 0.4 -0.3 -0.5 1.2 -2 1.5 -1.6 2.6 -3.1 2.4 -3.5 -0.2 -0.3 0.5 -1.5 1.5 -2.5 1.9 -1.9 1.9 -1.9 1.9 1.7 0 2.6 -0.4 3.7 -1.5 3.7 -0.8 0 -1.5 0.4 -1.5 0.9 0 0.9 6.1 -0.8 7 -2 1.3 -1.7 9.5 -2.9 19.3 -2.9 9.5 0 10.7 0.2 10.7 1.8 0 1.5 -1.2 1.7 -10.8 1.9 -9 0.1 -14.7 0.6 -14.7 1.3 0 0.1 -0.9 0.3 -2 0.5 -1.1 0.2 -2.1 0.9 -2.3 1.5 -0.2 0.5 -0.8 0.8 -1.3 0.4 -0.5 -0.3 -0.9 0 -0.9 0.6 0 0.6 -0.4 0.9 -0.9 0.6 -0.5 -0.3 -1.2 0.1 -1.5 1 -0.3 0.8 -1 1.3 -1.5 1 -0.5 -0.3 -2.1 0.6 -3.5 1.9 -3.2 2.9 -3.5 3 -4.2 1z"/>
  <path d="M408.5 274 c-0.4 -0.6 -1 -0.8 -1.5 -0.5 -0.5 0.3 -1.8 -0.3 -2.9 -1.4 -1.1 -1.1 -2.2 -1.7 -2.5 -1.3 -0.3 0.3 -0.6 0 -0.6 -0.7 0 -0.7 -0.4 -1 -0.9 -0.6 -0.5 0.3 -1.6 -0.2 -2.5 -1 -0.9 -0.9 -2.6 -1.8 -3.8 -2 -3.5 -0.7 -6.8 -2.7 -6.8 -4.2 0 -2.1 6.3 -1.6 8.8 0.7 1.2 1.1 3 2 4.2 2 2 0 2 -0.1 0.3 -2.7 -1.5 -2.3 -1.9 -5.6 -2.2 -22 l-0.3 -19.3 3.6 0 c2 0 3.6 0.5 3.6 1 0 0.6 -0.8 1 -1.7 1 -1.6 0 -1.8 1.3 -1.6 15.2 0.2 14.7 0.3 15.3 3.3 21.4 1.7 3.5 3 6.7 3 7 -0.1 0.4 0.5 1.1 1.4 1.6 0.9 0.5 1.4 1.3 1.1 1.9 -0.4 0.5 -0.1 0.9 0.5 0.9 0.6 0 0.8 0.5 0.5 1 -0.3 0.6 -0.1 1 0.5 1 0.6 0 0.8 0.5 0.5 1 -0.8 1.3 -3.2 1.3 -4 0z"/>
  <path d="M349.7 271 c-0.7 -2.8 0.3 -6 1.9 -6 1 0 1.4 1.3 1.4 4 0 4.3 -2.3 5.7 -3.3 2z"/>
  <path d="M70 261.6 c-25.3 -7.4 -39.5 -33.5 -32 -58.7 2.3 -7.7 8.5 -17.5 13.8 -21.9 2 -1.7 7 -4.7 11.1 -6.7 6.6 -3.2 8.6 -3.7 17.2 -4.1 10.7 -0.5 16.4 0.8 25.5 5.9 5.9 3.3 13.9 11.4 17.6 17.9 3.4 5.8 6.2 15.5 5.4 19 -0.4 2.4 -0.2 2.7 1.4 2.3 1.1 -0.3 2 0 2 0.6 0 0.6 0.6 1 1.2 0.9 0.7 -0.2 1.4 0.6 1.6 1.8 0.2 1.4 -0.2 2.1 -1.5 2.1 -1 0 -2.1 -0.5 -2.5 -1 -0.3 -0.6 -1.2 0.9 -1.8 3.4 -4.8 18.2 -12.5 28.5 -26.9 35.6 -6.9 3.4 -8.2 3.7 -17.5 3.9 -6.3 0.2 -11.8 -0.2 -14.6 -1z"/>
  <path d="M475.3 261.9 c-0.5 -0.5 -1.8 -1.1 -2.9 -1.3 -3.8 -0.8 -6.9 -2.4 -9.7 -5 l-2.8 -2.6 3.7 0 c3.3 0 10.4 3.3 11.2 5.2 0.2 0.4 1.7 0.8 3.3 0.8 2.1 0 2.9 0.5 2.9 1.8 0 1.9 -4.1 2.7 -5.7 1.1z"/>
  <path d="M498 261 c0 -1.6 0.7 -2 3.5 -2 3.7 0 4.6 1.3 1.8 2.5 -3.8 1.7 -5.3 1.5 -5.3 -0.5z"/>
  <path d="M307.1 253.8 c0.1 -5.3 1.1 -8.8 2.4 -8.8 1.1 0 1.5 1.4 1.5 5.5 0 4.8 -0.3 5.5 -1.9 5.5 -1.4 0 -2 -0.7 -2 -2.2z"/>
  <path d="M514.2 253.3 c0.2 -2.2 0.9 -2.9 2.9 -3.1 2.1 -0.2 2.8 -1 3.3 -3.3 0.3 -1.7 1.2 -2.9 2.1 -2.9 0.8 0 1.5 -0.7 1.5 -1.5 0 -0.8 0.7 -1.5 1.5 -1.5 0.8 0 1.5 -0.9 1.5 -1.9 0 -1.1 0.3 -2.1 0.8 -2.3 1 -0.4 5.2 -12.9 5.2 -15.5 0 -2.7 2.7 -3.1 3.2 -0.5 0.3 0.9 0.1 2.8 -0.4 4 -0.4 1.3 -0.6 2.8 -0.2 3.3 0.3 0.5 0 0.9 -0.6 0.9 -0.7 0 -1 0.7 -0.7 1.5 0.4 0.8 0.2 1.7 -0.4 2 -0.5 0.4 -0.7 1.1 -0.4 1.6 0.4 0.5 0.1 0.9 -0.6 0.9 -0.7 0 -1 0.3 -0.6 0.6 0.3 0.4 -0.1 1.3 -0.9 2.1 -0.8 0.8 -1.2 1.9 -0.9 2.4 0.4 0.5 -0.1 0.9 -0.9 0.9 -0.9 0 -1.6 0.5 -1.6 1 0 1.8 -0.4 2.5 -2.7 4.6 -1.2 1.2 -1.9 2.5 -1.5 2.9 0.4 0.5 0.2 0.5 -0.4 0.2 -0.6 -0.3 -2.5 0.9 -4.2 2.8 -3.7 4.2 -5.4 4.5 -5 0.8z"/>
  <path d="M452.7 246.9 c-1.5 -1.1 -2.5 -2.5 -2.1 -3 0.3 -0.5 0.1 -0.9 -0.5 -0.9 -1.3 0 -3.1 -3.3 -3.7 -6.6 -0.7 -3.8 3.1 -3.2 5.2 0.8 0.9 1.8 2.3 3.8 3 4.6 1.1 1.1 2.1 7.3 1.2 7.2 -0.2 0 -1.5 -1 -3.1 -2.1z"/>
  <path d="M308.2 234.5 c0 -7.7 0.2 -8.5 1.9 -8.5 1.7 0 1.9 0.8 1.9 8.5 0 7.7 -0.2 8.5 -1.9 8.5 -1.7 0 -1.9 -0.8 -1.9 -8.5z"/>
  <path d="M444.6 229.3 c-0.2 -1 -0.7 -2.8 -1.1 -4 -0.5 -1.7 -0.2 -2.3 0.9 -2.3 1.2 0 1.6 1 1.6 4 0 4.2 -0.5 5.1 -1.4 2.3z"/>
  <path d="M278 219 c0 -1.6 0.7 -2 3.5 -2 2.4 0 3.5 0.5 3.5 1.5 0 0.8 -0.6 1.5 -1.2 1.6 -0.7 0 -2.3 0.2 -3.5 0.5 -1.8 0.3 -2.3 -0.1 -2.3 -1.6z"/>
  <path d="M441.7 216 c-0.3 -1.3 -0.1 -1.8 0.5 -1.3 0.8 0.4 0.9 -0.8 0.4 -3.8 -0.5 -3.3 -0.4 -4 0.5 -2.9 0.8 1.1 0.9 0.6 0.5 -2.5 -0.4 -3 -0.3 -3.6 0.5 -2.5 0.8 1.1 0.9 0.8 0.4 -1.3 -0.4 -1.9 -0.2 -2.6 0.5 -2.2 0.5 0.3 1 0 1.1 -0.7 0.2 -4.6 3.8 -11.2 7 -12.9 1.1 -0.5 1.7 -1.4 1.5 -1.8 -0.7 -1.1 2.9 -4.3 3.8 -3.4 0.4 0.5 0.6 0.1 0.4 -0.7 -0.1 -0.8 0.3 -1.4 1 -1.3 0.6 0.2 1.2 -0.1 1.2 -0.7 0 -2.4 13.8 -7.9 20.8 -8.4 1.2 0 2.2 -0.4 2.2 -0.8 0 -2.6 17.5 0.5 26.4 4.6 5.5 2.5 18 13.2 17.1 14.6 -0.3 0.4 0.2 1.1 1.1 1.4 0.8 0.3 1.3 1 1 1.5 -0.3 0.5 0 1.1 0.8 1.4 0.7 0.3 1.6 1.7 1.8 3.1 0.4 2.2 0.1 2.6 -1.7 2.6 -1.3 0 -2.6 -0.9 -3.2 -2.3 -3.3 -7.1 -16.3 -17.5 -26.1 -20.8 -8.6 -2.9 -17.8 -2.8 -24.7 0.2 -7.1 3.1 -12.8 6.1 -14.2 7.5 -0.7 0.7 -2.3 2.1 -3.5 3.1 -1.3 1 -3.4 3.8 -4.7 6.3 -1.3 2.5 -3.1 5.2 -4 6 -1.6 1.5 -3.5 7.8 -4.7 15.8 -0.7 4.4 -2.8 5.7 -3.7 2.2z"/>
  <path d="M398 197.5 c0 -18.4 0.1 -19.5 1.9 -19.5 1.7 0 1.8 1.1 2 17.1 0.1 18.3 -0.3 21.9 -2.5 21.9 -1.1 0 -1.4 -3.5 -1.4 -19.5z m2.7 4.3 c-0.2 -2.4 -0.4 -0.5 -0.4 4.2 0 4.7 0.2 6.6 0.4 4.3 0.2 -2.4 0.2 -6.2 0 -8.5z"/>
  <path d="M306 214.1 c1.8 -0.5 2.6 -1.5 2.8 -3.4 0.5 -3.9 2.2 -3.3 2.2 0.8 0 3.4 -0.1 3.5 -3.7 3.4 -3.3 -0.1 -3.4 -0.2 -1.3 -0.8z"/>
  <path d="M533 208.5 c0 -3.7 1.3 -4.6 2.8 -1.9 1.2 2.2 0.4 5.4 -1.4 5.4 -0.9 0 -1.4 -1.2 -1.4 -3.5z"/>
  <path d="M307.4 181.8 c-0.3 -1.8 -2.1 -5.8 -3.8 -8.8 -1.7 -3 -3.1 -6 -3.2 -6.7 -0.1 -0.7 -1.2 -2.6 -2.3 -4.2 -1.2 -1.6 -2.1 -3.1 -2.1 -3.4 0 -1.2 5.6 0.4 6.7 1.9 0.7 1 1.3 1.5 1.3 1.1 0 -0.4 0.9 0.1 2 1.1 1.2 0.9 2.4 1.7 2.8 1.7 2 0.2 5.2 1.8 5.2 2.6 0 0.6 0.5 0.7 1 0.4 0.6 -0.3 1 -0.1 1 0.4 0 0.6 0.7 1.1 1.5 1.1 0.8 0 1.5 0.5 1.5 1 0 1.3 -5.1 1.3 -8.4 0 -2.9 -1.1 -3.1 -0.6 -1.1 3 1.9 3.4 2 12 0.1 12 -0.8 0 -1.8 -1.4 -2.2 -3.2z"/>
  <path d="M402.1 172.3 l0.4 -3.9 -3 1.7 c-2.2 1.3 -6.3 2 -15.3 2.5 -10.9 0.6 -12.2 0.5 -12.2 -0.9 0 -1 0.6 -1.7 1.3 -1.8 0.6 0 3.7 -0.2 6.7 -0.4 6.6 -0.4 14.2 -2 17.3 -3.6 1.2 -0.7 4.7 -2.9 7.6 -5.1 4.7 -3.3 5.6 -3.6 6.4 -2.3 0.5 1 0.4 2.4 -0.6 3.8 -0.7 1.2 -1.7 3.4 -2.1 4.9 -0.3 1.5 -1.5 3.2 -2.6 3.8 -1.1 0.6 -2 1.7 -2 2.5 0 0.7 -0.5 1.7 -1.1 2.1 -0.8 0.5 -1 -0.6 -0.8 -3.3z"/>
  <path d="M325 171.2 c0 -1.6 0.9 -1.9 5.2 -2.1 6.8 -0.2 10.8 0.7 10.8 2.5 0 1.1 -1.8 1.4 -8 1.4 -7.1 0 -8 -0.2 -8 -1.8z"/>
  <path d="M346 171.1 c0 -0.5 1 -1.1 2.3 -1.3 1.6 -0.2 2.1 -0.9 2 -2.6 -0.2 -1.4 0.3 -2.2 1.2 -2.2 1 0 1.5 1.1 1.5 3.5 0 3.3 -0.2 3.5 -3.5 3.5 -1.9 0 -3.5 -0.4 -3.5 -0.9z"/>
  <path d="M356.2 170.9 c0.2 -0.6 0.7 -1 1.1 -1 0.4 0.1 1.8 0.1 3.2 0.1 1.4 0 2.5 0.5 2.5 1 0 0.6 -1.6 1 -3.6 1 -2.1 0 -3.4 -0.4 -3.2 -1.1z"/>
  <path d="M213.5 133 c-0.4 -1.6 -0.4 -3.4 0 -3.9 0.3 -0.6 0.3 -2.1 0 -3.4 -0.5 -1.9 -1.5 -2.6 -4.6 -3 -10 -1.3 -24.7 -11.6 -30.3 -21.1 -8.2 -13.9 -8.8 -31 -1.8 -45.4 7.5 -15.4 25 -26.2 42.3 -26.2 12.9 0 27.6 7.6 36.1 18.7 17.2 22.7 10.8 54.4 -14 69 -5.6 3.3 -17.1 6.4 -19.4 5.2 -2.2 -1.2 -6.8 -1.2 -6.8 0 0 0.5 0.7 1.1 1.5 1.5 1.6 0.6 1.9 3.4 0.9 8.5 -0.8 3.9 -3 4 -3.9 0.1z"/>
  <path d="M74.5 122.8 c-12.6 -1.6 -26.8 -11.7 -32.8 -23.2 -4.3 -8.3 -5.7 -13.7 -5.8 -22.6 0 -13.4 4.9 -24.9 14.9 -34.2 7.1 -6.6 12.7 -9.5 22.5 -11.4 7.5 -1.5 9.7 -1.5 15.8 -0.5 24.1 4.3 41.1 25.3 39.6 48.6 -1.8 27.9 -25.8 47 -54.2 43.3z"/>
  <path d="M330.8 117.8 c-1.7 -1.7 -1.6 -1.8 1.7 -1.8 2.8 0 3.5 0.4 3.5 1.9 0 2.5 -2.8 2.4 -5.2 -0.1z"/>
  <path d="M371 118.1 c0 -1.1 0.9 -2.3 2 -2.6 1.1 -0.3 2 -1 2 -1.5 0 -0.5 1.4 -1.1 3 -1.5 1.7 -0.4 3 -1 3 -1.3 0.1 -0.4 2.1 -2.9 4.6 -5.7 5.4 -5.9 6.8 -8.5 9.5 -16.8 2.9 -9.1 3.4 -16.3 1.5 -21.7 -0.9 -2.5 -1.6 -5.3 -1.6 -6.2 0 -1 -0.4 -1.8 -1 -1.8 -0.5 0 -1 -0.9 -1 -2 0 -1.1 -0.4 -2 -1 -2 -0.5 0 -1 -0.4 -1 -1 0 -1.4 -9.5 -10.1 -15.7 -14.2 -7 -4.6 -16.1 -7.2 -23.4 -6.5 -6.9 0.6 -18.9 3.9 -18.9 5.2 0 0.6 -2.5 3 -5.4 5.5 -6.7 5.7 -12.4 13.2 -13.2 17.6 -0.3 1.9 -1 3.7 -1.5 4 -0.5 0.2 -1.1 2.7 -1.5 5.4 -0.5 3.7 -1.1 5 -2.3 5 -1.1 0 -1.7 -1 -1.8 -3.2 -0.3 -4 3.4 -16.8 4.8 -16.8 0.6 0 0.7 -0.4 0.4 -1 -0.3 -0.5 -0.1 -1 0.5 -1 0.6 0 0.8 -0.5 0.5 -1 -0.3 -0.6 0.1 -1.3 0.9 -1.6 0.9 -0.3 1.3 -1 1 -1.5 -0.8 -1.3 12.4 -13.9 14.6 -13.9 1 0 2.6 -0.7 3.4 -1.6 0.9 -0.8 1.6 -1.2 1.6 -0.8 0 0.3 0.7 0.1 1.5 -0.6 0.8 -0.7 1.5 -1 1.5 -0.6 0 0.4 1.1 0 2.4 -0.9 1.3 -0.8 3.1 -1.3 4 -0.9 0.9 0.3 2.3 0.1 3.1 -0.6 1.8 -1.5 11.3 -0.9 21.7 1.4 2.2 0.5 3.5 1.2 3.1 1.9 -0.3 0.6 -0.1 0.7 0.5 0.3 0.7 -0.4 3.1 0.4 5.4 1.8 5.1 3 14.8 12.4 14.8 14.3 0 0.7 0.5 1.3 1.1 1.3 0.5 0 0.8 0.4 0.5 0.9 -0.3 0.5 0.1 1.4 0.9 2.1 0.8 0.7 1.5 2.1 1.5 3.1 0 1.1 0.5 1.9 1.1 1.9 0.6 0 0.9 0.7 0.5 1.5 -0.3 0.8 -0.1 1.5 0.4 1.5 0.6 0 0.9 0.3 0.9 0.8 -0.1 0.4 0 0.9 0.1 1.2 1.6 3.2 1.7 23.3 0.1 23.8 -0.6 0.2 -0.9 0.8 -0.6 1.2 0.9 1.5 -3.4 11.4 -5.7 13.3 -1.3 1 -1.6 1.6 -0.8 1.2 0.8 -0.4 0.5 0.2 -0.7 1.3 -1.2 1.1 -2 2.2 -1.8 2.4 0.3 0.2 -1.2 2 -3.2 3.9 -2.1 1.9 -3.1 2.5 -2.3 1.4 0.7 -1.1 -0.3 -0.3 -2.3 1.8 -2.1 2.1 -4.2 3.5 -4.7 3.2 -0.6 -0.3 -1 -0.1 -1 0.5 0 0.6 -0.4 0.8 -1 0.5 -0.5 -0.3 -1 -0.1 -1 0.4 0 0.6 -0.9 1.1 -2 1.1 -1.3 0 -2 -0.7 -2 -1.9z"/>
  <path d="M320.2 110.3 c-0.6 -0.2 -1 -0.9 -0.7 -1.3 0.3 -0.5 -0.6 -1.7 -2 -2.6 -1.4 -0.9 -2.4 -1.9 -2.1 -2.1 0.2 -0.3 -0.4 -1.3 -1.5 -2.4 -1.1 -1.1 -1.7 -2.4 -1.4 -2.9 0.4 -0.6 0.1 -1 -0.5 -1 -0.6 0 -0.8 -0.4 -0.5 -1 0.3 -0.5 0.1 -1 -0.5 -1 -0.6 0 -0.9 -0.4 -0.6 -0.8 0.3 -0.5 -0.1 -2.1 -0.9 -3.6 -2.3 -4.4 -2.4 -10.6 -0.1 -10.6 1.5 0 2.6 3 2.6 7.3 0 1.6 0.6 3.5 1.3 4.2 3.2 3.7 6.7 9.9 6.7 12.1 0 0.8 0.7 1.4 1.5 1.4 0.9 0 1.5 0.9 1.5 2.5 0 2.5 -0.4 2.8 -2.8 1.8z"/>
 </g>
 <g fill="#1e676c">
  <path d="M208.8 541.3 c-3.6 -0.9 -2 -3.3 2.2 -3.3 3.3 0 4 0.3 4 2 0 2 -2 2.4 -6.2 1.3z"/>
  <path d="M220 540.1 c0 -1.4 1 -1.9 5 -2.4 7.4 -0.9 17.7 -6.3 23 -12.1 2.5 -2.7 5.2 -5.7 6.1 -6.7 2 -2.1 6.9 -14 6.9 -16.8 0 -1.4 0.6 -2.1 2 -2.1 2.5 0 2.6 2 0.1 9.9 -4.7 15.2 -17.9 27.5 -33.2 31 -7 1.6 -9.9 1.4 -9.9 -0.8z"/>
  <path d="M197.2 537.4 c-5.8 -2.8 -17.2 -12.8 -17.2 -15 0 -0.8 -0.4 -1.4 -0.9 -1.4 -1.3 0 -6.2 -11.7 -6.8 -16.1 -0.5 -3.4 -0.3 -3.9 1.4 -3.9 1.5 0 2.2 0.9 2.7 3.1 0.9 4.9 5.8 15.2 7.8 16.7 1.1 0.8 1.8 2.6 1.8 4.8 0 3.2 0.2 3.4 3.5 3.4 1.9 0 3.5 0.5 3.5 1 0 0.6 0.7 1 1.5 1 0.8 0 1.5 0.4 1.5 0.9 0 0.5 1.1 1.2 2.5 1.5 1.4 0.4 2.5 1.1 2.5 1.6 0 0.6 1.1 1 2.5 1 1.8 0 2.5 0.5 2.5 2 0 2.7 -2.3 2.5 -8.8 -0.6z"/>
  <path d="M171.8 498.3 c-0.6 -2.8 0.2 -5.3 1.8 -5.3 0.9 0 1.4 1.1 1.4 3.5 0 3.7 -2.4 5 -3.2 1.8z"/>
  <path d="M172.4 486.8 c0.8 -4.8 3.4 -10.8 4.7 -10.8 1.2 0 1.1 3.5 -0.3 9.7 -1 4.1 -1.7 5.3 -3.2 5.3 -1.6 0 -1.8 -0.5 -1.2 -4.2z"/>
  <path d="M260.6 487.8 c-0.6 -3.1 -5.1 -13.1 -7.8 -17.2 -0.7 -1.1 -2.4 -2.9 -3.6 -4.1 -1.7 -1.5 -2.3 -2.9 -2 -5 l0.3 -3 4.9 5 c5.3 5.4 10.9 16.1 12.1 23.3 0.6 3.8 0.5 4.2 -1.3 4.2 -1.4 0 -2.1 -0.9 -2.6 -3.2z"/>
  <path d="M179 471.1 c0 -1.5 6.7 -9.7 9.4 -11.5 2.6 -1.6 2.6 -1.6 2.6 1.2 0 2.9 -3.5 7.2 -5.8 7.2 -0.7 0 -1.2 0.9 -1.2 2 0 1.5 -0.7 2 -2.5 2 -1.4 0 -2.5 -0.4 -2.5 -0.9z"/>
  <path d="M195 456 c0 -1.5 9.7 -5.8 14.6 -6.6 4.1 -0.6 4.1 -0.6 4.8 -5.7 0.3 -2.9 0.6 -8 0.6 -11.4 0 -4.7 0.4 -6.3 1.4 -6.3 1.9 0 2.6 3.2 2.6 11.6 0 6.1 0.4 7.5 2.5 10 1.3 1.5 2.7 2.5 3.1 2.1 0.8 -0.8 4.4 1 4.4 2.2 0 0.5 -3.7 0.9 -8.2 0.8 -6.1 0 -9.9 0.6 -14.3 2.2 -6.4 2.3 -11.5 2.7 -11.5 1.1z"/>
  <path d="M350.5 447.9 c-0.3 -0.9 -0.5 -13.1 -0.3 -27 l0.3 -25.4 7.8 -0.3 c6.4 -0.2 7.7 0 7.7 1.3 0 0.8 -0.6 1.5 -1.2 1.6 -3.9 0.1 -9 0.9 -9.8 1.4 -0.6 0.4 -1 9.6 -1 23.4 0 18.1 -0.3 23.1 -1.4 24.7 -1.3 1.7 -1.5 1.7 -2.1 0.3z"/>
  <path d="M214.8 412.8 c0 -1.8 -0.2 -3.7 -0.3 -4.3 -0.2 -0.5 -0.3 -1.6 -0.4 -2.2 0 -0.7 -0.8 -1.3 -1.6 -1.3 -0.8 0 -1.5 -0.7 -1.5 -1.5 0 -1.2 1.3 -1.5 5.5 -1.5 4 0 5.5 0.4 5.5 1.4 0 0.8 -1 1.6 -2.2 1.9 -1.8 0.5 -2.3 1.3 -2.2 3.9 0.2 6.6 -2.5 10 -2.8 3.6z"/>
  <path d="M161.4 413.4 c0.3 -0.9 0.6 -1.8 0.6 -2 0 -0.2 0.7 -0.4 1.5 -0.4 0.9 0 1.5 -0.9 1.5 -2.4 0 -1.3 0.8 -3.4 1.8 -4.7 1 -1.3 2.6 -5 3.6 -8.1 2 -6.2 4.6 -7.8 4.6 -2.9 0 4.1 -2 9.1 -3.6 9.1 -0.8 0 -1.4 0.7 -1.4 1.5 0 1.1 0.8 1.3 3.3 0.8 1.7 -0.3 3.4 -1 3.5 -1.5 0.2 -0.4 2.1 -0.8 4.3 -0.8 4.9 0 5.4 2.5 0.7 3.5 -3.6 0.8 -16.5 7.2 -17.4 8.6 -1 1.6 -3.7 1 -3 -0.7z"/>
  <path d="M268.4 411.7 c-2.8 -1.9 -7.9 -4.2 -11.3 -5.2 -7.1 -2.2 -8.2 -4.5 -2.1 -4.5 2.2 0 4 0.5 4 1 0 0.6 1.1 1 2.5 1 1.6 0 2.5 0.6 2.5 1.5 0 0.8 0.5 1.5 1.1 1.5 0.7 0 0.8 -0.7 0.4 -1.7 -0.4 -1 -1 -3 -1.3 -4.5 -0.2 -1.6 -0.8 -2.8 -1.3 -2.8 -0.5 0 -0.9 -1.6 -0.9 -3.5 0 -4.5 2.6 -4.8 3.5 -0.4 0.4 1.7 2.9 6.8 5.6 11.4 2.7 4.6 4.9 8.6 4.9 8.9 0 1.4 -2.9 0.4 -7.6 -2.7z"/>
  <path d="M302 404.9 c0 -0.6 1.1 -2.5 2.4 -4.2 5.5 -7.4 5.9 -9.7 5.7 -33.4 l-0.1 -6.3 -22.5 0 -22.5 0 0 7.5 c0 6.8 -0.2 7.5 -2 7.5 -1.9 0 -2 -0.6 -1.8 -14.5 0.2 -11.1 0.5 -14.5 1.5 -14.5 0.7 0 1.4 0.7 1.4 1.5 0.3 2.8 0.4 3.3 1.1 4 0.7 0.7 30.7 0.7 34.3 0 1.1 -0.2 3.9 -0.4 6.3 -0.4 l4.2 -0.1 0 -17 c0 -14 -0.3 -17.6 -1.7 -20.7 -1 -2.1 -2 -4 -2.3 -4.3 -1.1 -0.9 -5 -6.8 -5 -7.4 0 -1.4 2.7 -0.3 8.2 3.4 3.3 2.2 6.7 4 7.4 4 0.8 0 1.4 0.7 1.4 1.5 0 0.9 -0.9 1.5 -2.2 1.5 l-2.3 0 0 41 0 41 3.3 0 c4 0 4.4 2.6 0.4 3.5 -1.5 0.3 -5.4 2.1 -8.5 4 -6.4 3.9 -6.7 4 -6.7 2.4z"/>
  <path d="M399 402.4 c-3 -1.9 -6.8 -3.4 -8.5 -3.4 -4.5 0 -7.5 -1.1 -7.5 -2.6 0 -1 1.5 -1.4 5.8 -1.4 l5.9 0 -0.5 -7.5 c-0.4 -7.1 -0.4 -7.5 1.7 -7.5 1.9 0 2.1 0.6 2.1 5.5 0 4.7 1.4 9.9 3 11.5 1.2 1.1 6 7.9 6 8.4 0 1.3 -2.8 0.2 -8 -3z"/>
  <path d="M83.8 403.3 c-3.9 -0.9 -1.5 -2.9 4.8 -4.1 7.1 -1.3 14.4 -4.6 19.2 -8.6 1.6 -1.5 3.7 -2.6 4.6 -2.6 1 0 1.6 -0.8 1.6 -2.1 0 -1.2 0.8 -2.3 2 -2.6 1.1 -0.3 2 -1.3 2 -2.3 0 -1 0.3 -2 0.8 -2.2 1.1 -0.5 5.2 -9.8 6.6 -15.6 1.2 -4.4 1.2 -6.2 0 -12 -1.7 -8 -4.5 -16.2 -5.6 -16.2 -0.4 0 -0.8 -0.6 -0.8 -1.4 0 -0.8 -0.7 -1.6 -1.5 -2 -1 -0.3 -1.5 -1.9 -1.5 -4.2 0 -3.6 0 -3.7 2 -1.9 4.8 4.3 9.9 14.5 10.4 20.5 0.1 1.4 0.6 3.1 1 3.8 0.4 0.8 0.6 1.6 0.2 1.9 -0.3 0.3 0.1 1.2 0.9 1.9 1.7 1.7 37.7 2.2 38.3 0.5 0.2 -0.6 1 -1.1 1.8 -1.1 0.9 0 1.4 -0.8 1.3 -1.7 -0.1 -1 -0.1 -5.3 0 -9.5 0.1 -7.1 0.3 -7.8 2.1 -7.8 2.3 0 2.5 2.2 1.4 17.8 l-0.7 9.2 -22.3 0 -22.2 0 -1.1 5.2 c-2.5 11.6 -13.3 26 -23.8 31.5 -7.4 4 -17.4 6.6 -21.5 5.6z"/>
  <path d="M66.9 400.6 c-3.6 -1.3 -8.6 -3.7 -11 -5.3 -5.8 -4 -12.7 -11.5 -13.5 -14.7 -0.3 -1.4 -1 -2.6 -1.4 -2.6 -1 0 -3.7 -8.1 -4.6 -13.7 -0.6 -3.9 -0.5 -4.3 1.5 -4.3 1.4 0 2.1 0.6 2.1 1.8 0 2.4 4.1 14.3 5.4 16 6.3 7.6 12.3 14 13.3 14.1 0.6 0.1 1.3 0.5 1.5 0.9 0.4 1 13.2 6.2 15.3 6.2 0.8 0 1.5 0.9 1.5 2 0 2.6 -1.9 2.5 -10.1 -0.4z"/>
  <path d="M394 370 c0 -8.3 0.1 -9 2 -9 1.9 0 2 0.7 2 9 0 8.3 -0.1 9 -2 9 -1.9 0 -2 -0.7 -2 -9z"/>
  <path d="M76 369 c-3.9 -1.6 -6 -5.9 -6 -12.7 0 -6.3 0.8 -7.9 5.4 -10.7 3.8 -2.4 12.5 -1.8 16.4 1.1 2.5 1.8 2.7 2.6 3 9.9 0.3 7.4 0.1 8.2 -2.2 10.3 -2.8 2.6 -12.3 3.8 -16.6 2.1z"/>
  <path d="M343 365.2 c-5.4 -5.4 -4.9 -18 0.9 -22.1 5.9 -4.3 16.8 -3.5 21.8 1.5 2.3 2.3 2.5 3.1 2.1 9.9 -0.3 6.6 -0.7 7.8 -3.3 10.5 -2.7 2.8 -3.3 3 -10.8 3 -7.3 0 -8.1 -0.2 -10.7 -2.8z"/>
  <path d="M394.6 355.4 c-0.3 -2.6 -0.6 -5.5 -0.6 -6.5 0 -2.2 2.9 -2.6 3.1 -0.4 0.1 0.8 0.2 2.1 0.3 2.8 0.1 0.9 5.1 1.3 20.8 1.5 l20.8 0.2 0.6 2.5 c0.3 1.4 1 2.2 1.5 1.9 0.5 -0.3 0.9 -0.1 0.9 0.4 0 1.9 -3.4 2.2 -24.9 2.2 l-21.8 0 -0.7 -4.6z"/>
  <path d="M36.5 348.5 c1 -6.7 5 -16.5 6.8 -16.5 1.3 0 0.2 9 -1.1 9.9 -0.6 0.3 -1.4 3 -1.8 5.9 -0.5 4.3 -1 5.2 -2.6 5.2 -1.8 0 -2 -0.4 -1.3 -4.5z"/>
  <path d="M394 328 c0 -10.3 0.1 -11 2 -11 1.8 0 2 0.7 2 8.8 0 10 -0.7 13.2 -2.6 13.2 -1.1 0 -1.4 -2.3 -1.4 -11z"/>
  <path d="M45 328 c3.1 -4.4 4 -4.5 4 -0.6 0 3.3 -0.2 3.6 -3.1 3.6 l-3 0 2.1 -3z"/>
  <path d="M171.1 322.4 c-1.3 -5.2 -3.8 -10.4 -7.6 -16 -2.3 -3.4 -3.3 -7.4 -1.8 -7.4 0.3 0 2 1 3.7 2.3 1.7 1.3 5 3.4 7.4 4.7 4.9 2.8 5.3 4 1.2 4 l-2.9 0 1.9 4.6 c2.4 5.4 2.7 12.4 0.6 12.4 -0.8 0 -1.8 -1.9 -2.5 -4.6z"/>
  <path d="M262.2 320.8 c0.3 -2.4 1.4 -6.2 2.6 -8.5 2 -4.2 2 -4.3 0.1 -4.3 -3.2 0 -2.2 -1.4 3.4 -4.8 9.2 -5.6 9.9 -4.1 3.1 6.3 -2.5 3.9 -4.6 7.2 -4.5 7.5 0.2 2 -2.5 8 -3.7 8 -1.1 0 -1.4 -1 -1 -4.2z"/>
  <path d="M107.3 321 c-0.3 -1.3 -1.4 -2 -2.9 -2 -1.3 0 -2.4 -0.4 -2.4 -0.9 0 -0.5 -1 -1.1 -2.2 -1.4 -1.3 -0.3 -4.1 -1.2 -6.3 -2.1 -5.4 -2 -15.6 -2 -22.4 0.1 -3.1 1 -5.8 2 -6.1 2.4 -1.2 1.5 -5.1 2.9 -8.1 2.9 -2.8 0 -3 -0.2 -1.8 -1.6 2.4 -2.9 12.7 -7.4 19.8 -8.6 9.8 -1.7 20.1 0 29 4.8 3.6 2 7.7 4.7 9.1 6 l2.5 2.4 -3.9 0 c-2.9 0 -3.9 -0.4 -4.3 -2z"/>
  <path d="M344 312 c0 -1.6 0.7 -2 3 -2 l3 0 0 -22.5 0 -22.5 -5 -0.1 c-2.7 -0.1 -5.4 -0.3 -6 -0.4 -0.5 -0.1 -1.7 -0.3 -2.5 -0.4 -0.8 0 -1.5 -0.8 -1.5 -1.6 0 -1.3 2.1 -1.5 12.5 -1.5 9.4 0 12.5 0.3 12.5 1.3 0 0.7 -1 1.7 -2.2 2.2 -3.5 1.5 -3.8 5.4 -2.9 40.7 0.1 4.7 0.4 5.6 1.6 5.2 0.9 -0.4 1.5 0 1.5 0.9 0 0.9 -1.5 1.6 -4.6 2.1 -7.9 1 -9.4 0.8 -9.4 -1.4z"/>
  <path d="M377 312.6 c0 -1.6 3.2 -2.6 6 -1.9 3.7 1 2.3 3.3 -2 3.3 -2.7 0 -4 -0.4 -4 -1.4z"/>
  <path d="M394.8 313.2 c-2.5 -0.2 -3.8 -0.8 -3.8 -1.8 0 -0.8 0.6 -1.4 1.4 -1.4 0.8 0 3.6 -1.5 6.2 -3.3 6.6 -4.5 8.2 -3.8 4.4 1.8 -3.6 5.2 -3.5 5.1 -8.2 4.7z"/>
  <path d="M252 311.7 c0 -0.8 1.6 -1.8 3.5 -2.4 3.3 -1.1 3.5 -1 3.5 1.3 0 2.1 -0.5 2.4 -3.5 2.4 -2.2 0 -3.5 -0.5 -3.5 -1.3z"/>
  <path d="M297 274 c0 -0.5 1.6 -3.5 3.6 -6.6 5.7 -8.9 7.4 -13.3 7.4 -19.9 0 -7.4 0.8 -10.5 2.6 -10.5 2.1 0 1.8 15.1 -0.5 21.7 l-1.8 5.2 3.5 -1.5 c1.9 -0.8 5.2 -1.4 7.3 -1.4 6 0 4.9 2.4 -1.8 4.3 -3.2 0.9 -8.6 3.4 -12.1 5.6 -6.4 4.2 -8.2 4.9 -8.2 3.1z"/>
  <path d="M407.5 273.4 c-1.8 -1.4 -17.6 -9.6 -18.2 -9.4 -1.9 0.3 -3.3 -0.3 -3.3 -1.5 0 -1 1 -1.5 2.9 -1.5 1.6 0 4.8 0.7 7.1 1.5 5.4 1.9 5 2 5 -1.5 0 -2 -0.5 -3 -1.5 -3 -1.1 0 -1.5 -1.1 -1.5 -4 0 -5.3 2.6 -5.5 3.6 -0.2 0.4 2 2.9 7.3 5.5 11.7 2.7 4.3 4.9 8.3 4.9 8.7 0 1.3 -2.3 0.9 -4.5 -0.8z"/>
  <path d="M484.8 263.5 c-0.3 -0.3 -2.5 -0.8 -4.9 -1.1 -11.1 -1.5 -25.1 -11.8 -31.7 -23.4 -3.7 -6.4 -4 -9 -1.3 -9 1.3 0 2.5 1.4 3.8 4.5 1 2.5 2.1 4.5 2.6 4.5 0.4 0 0.7 0.8 0.7 1.9 0 1 0.9 2.1 2 2.4 1.4 0.3 2 1.4 2 3.1 0 2.1 0.5 2.6 2.5 2.6 1.4 0 2.8 0.7 3.1 1.5 0.4 0.8 1.2 1.5 2 1.5 0.8 0 1.4 0.7 1.4 1.5 0 0.8 0.7 1.5 1.5 1.5 0.8 0 4.8 1.1 8.9 2.5 4.1 1.4 9.5 2.5 12 2.5 4.1 0 17.4 -3.5 18.6 -5 1.7 -1.9 6.4 -4 9.1 -4 l3.2 0 -2.2 2.4 c-2.9 3.1 -14.3 8.3 -21 9.6 -5.8 1.1 -11.5 1.3 -12.3 0.5z"/>
  <path d="M523 244.8 c0 -2.7 0.4 -3.8 1.5 -3.8 0.8 0 1.5 -0.6 1.5 -1.4 0 -0.8 1.1 -3.8 2.5 -6.8 1.4 -2.9 2.8 -7 3.1 -9 0.5 -2.8 1.1 -3.8 2.5 -3.8 1.3 0 1.9 0.7 1.9 2.3 0 2.9 -2.4 10.6 -4.5 14.8 -1.8 3.4 -2 3.6 -5.9 8.4 l-2.5 3 -0.1 -3.7z"/>
  <path d="M308.6 229.8 c-0.3 -1.3 -0.6 -3.8 -0.6 -5.5 0 -3.8 1.5 -3.5 -21.5 -3.8 -20.8 -0.4 -21.5 -0.4 -21.5 -1.7 0.1 -4 1.4 -4.3 20.2 -4.5 10.1 -0.1 19.4 -0.2 20.6 -0.2 1.5 -0.1 2.6 -0.8 2.9 -2.1 0.3 -1.1 1.2 -2 1.9 -2 1.1 0 1.4 2.3 1.4 11 0 8.7 -0.3 11 -1.4 11 -0.7 0 -1.6 -1 -2 -2.2z"/>
  <path d="M349.1 230.3 c-4.1 -0.8 -6.8 -3.2 -8.5 -7.4 -4.4 -11 1.6 -20.9 12.7 -20.9 5.8 0 10.9 2 13.1 5.1 2.4 3.4 2.2 14.4 -0.4 18.6 -2.6 4.4 -8.9 6.1 -16.9 4.6z"/>
  <path d="M399 224.1 c0 -1.1 -0.4 -2.3 -1 -2.6 -1.6 -1 -1.3 -10.5 0.4 -10.5 0.8 0 1.7 1.4 2.1 3 l0.7 3 8.9 0 c4.9 0 9.2 0 9.5 -0.1 0.4 0 1 0.5 1.5 1.2 0.7 1.2 1.9 1.4 7.7 1.8 0.6 0.1 1.2 0.7 1.2 1.4 0 0.8 -2.1 1.2 -6.8 1.3 -20.3 0.2 -22.2 0.4 -22.2 1.9 0 0.8 -0.4 1.5 -1 1.5 -0.5 0 -1 -0.9 -1 -1.9z"/>
  <path d="M132 219.8 c0 -0.5 -0.7 -0.8 -1.5 -0.8 -0.8 0 -1.5 -0.9 -1.5 -2 0 -1.1 0.7 -2 1.5 -2 0.8 0 1.5 0.6 1.5 1.3 0 0.8 0.4 0.7 1 -0.3 0.9 -1.3 1 -1.3 1 0 0 1.2 0.2 1.2 0.8 0.2 1 -1.5 28 -2 29.1 -0.5 0.3 0.5 1.4 0.9 2.4 1 4.2 0.2 4.7 0.4 4.7 1.8 0 1.8 0.7 1.8 -21.2 1.9 -9.8 0.1 -17.8 -0.2 -17.8 -0.6z"/>
  <path d="M532 210 c0 -1.1 -0.9 -4.3 -2 -7.2 -1.1 -2.9 -2 -6.1 -2 -7 0 -1 -0.7 -1.8 -1.5 -1.8 -0.8 0 -1.5 -0.6 -1.5 -1.4 0 -0.8 -0.7 -1.6 -1.5 -2 -1 -0.3 -1.5 -1.9 -1.5 -4.3 l0.1 -3.8 3.3 3.7 c4.5 5.2 9.5 15.3 10.2 21.1 0.6 4.3 0.5 4.7 -1.5 4.7 -1.4 0 -2.1 -0.6 -2.1 -2z"/>
  <path d="M308.6 196.8 c-0.3 -1.3 -0.6 -5.6 -0.6 -9.5 0 -6.6 0.2 -7.3 2 -7.3 1.9 0 2 0.7 2 9.5 0 7.4 -0.3 9.5 -1.4 9.5 -0.7 0 -1.6 -1 -2 -2.2z"/>
  <path d="M450 191.1 c0 -1.3 6.3 -8.9 8.8 -10.7 2.1 -1.5 2.2 -1.4 2.2 1.3 0 3.3 -1.6 5.3 -4.2 5.3 -1.3 0 -1.8 0.8 -1.8 2.5 0 2 -0.5 2.5 -2.5 2.5 -1.4 0 -2.5 -0.4 -2.5 -0.9z"/>
  <path d="M398 180.1 c0 -3.5 1.9 -9.1 3.1 -9.1 0.5 0 0.9 -0.4 0.9 -1 0 -0.5 -1.3 -1 -3 -1 -3.9 0 -3.8 -1.4 0.3 -3.3 2.8 -1.4 3.2 -1.4 3.5 -0.2 0.6 2.4 2.2 1.7 2.2 -0.9 0 -2.9 4.8 -7.2 6.3 -5.7 0.6 0.6 -0.5 3.3 -3.1 7.3 -2.2 3.5 -4.8 8.7 -5.8 11.6 -2 5.7 -4.4 6.9 -4.4 2.3z"/>
  <path d="M507.3 177.8 c-1.4 -0.7 -2.3 -2 -2.3 -3.5 0 -2.3 0 -2.3 3.8 -0.8 2 0.9 4.6 2.5 5.7 3.5 1.9 2 1.9 2 -1.5 1.9 -1.9 0 -4.5 -0.5 -5.7 -1.1z"/>
  <path d="M464 177.4 c0 -1.2 3.4 -3.3 5.3 -3.4 1 0 1.7 0.7 1.7 2 0 1.6 -0.7 2 -3.5 2 -1.9 0 -3.5 -0.3 -3.5 -0.6z"/>
  <path d="M475 172.6 c0 -1.4 1.7 -2 9.3 -3.1 3.1 -0.4 3.7 -0.2 3.7 1.4 0 1.4 -1 2 -4.6 2.5 -6.9 0.9 -8.4 0.8 -8.4 -0.8z"/>
  <path d="M310.3 170.5 c-4.5 -2 -5.3 -2.2 -5.3 -0.8 0 2.3 -2.4 0.1 -5.5 -5.2 -4.1 -7.2 -3.5 -7.2 8.2 -0.5 6.9 4 9.7 5 13.3 5 5.9 0 9 0.9 9 2.6 0 2.6 -13.6 1.8 -19.7 -1.1z"/>
  <path d="M351.3 172.2 c-0.9 -0.5 -1.1 -7.1 -1 -24.4 l0.2 -23.8 -2.7 -0.6 c-1.6 -0.3 -2.8 -1.2 -2.8 -2 0 -1.5 3 -1.8 9.3 -0.8 3.6 0.6 5.4 3.4 2.2 3.4 -0.8 0 -1.5 0.1 -1.6 0.3 0 0.1 -0.3 10.2 -0.5 22.5 -0.4 15.5 -0.2 22.2 0.5 22.3 0.6 0.1 1.6 0.3 2.1 0.4 0.6 0.1 1.7 0.3 2.5 0.4 0.8 0 1.5 0.8 1.5 1.6 0 1.1 -1.1 1.5 -4.2 1.5 -2.4 0 -4.8 -0.4 -5.5 -0.8z"/>
  <path d="M382 171.6 c0 -1.6 3 -2.6 7.8 -2.6 2.5 0 3.2 0.4 3.2 2 0 1.8 -0.7 2 -5.5 2 -4 0 -5.5 -0.4 -5.5 -1.4z"/>
  <path d="M490 171 c0 -2.1 1 -2.4 4.8 -1.4 3.6 1 2.7 3.4 -1.3 3.4 -2.8 0 -3.5 -0.4 -3.5 -2z"/>
  <path d="M214.7 169.4 c-0.4 -0.4 -0.7 -6.7 -0.7 -14.1 0 -11 0.3 -13.3 1.5 -13.3 2 0 2.7 4.9 2.3 17 -0.3 9.5 -1.1 12.3 -3.1 10.4z"/>
  <path d="M214.2 131.8 c0.2 -5.6 0.6 -7.3 1.8 -7.3 0.9 0 1.5 1.3 1.7 4 0.5 5.9 -0.5 10.5 -2.3 10.5 -1.2 0 -1.4 -1.3 -1.2 -7.2z"/>
  <path d="M334.5 119.6 c-7.4 -3.3 -18.8 -14.2 -20.8 -19.8 -0.5 -1.4 -0.1 -1.8 1.8 -1.8 1.6 0 2.5 0.6 2.5 1.5 0 0.8 0.5 1.5 1 1.5 0.6 0 1 1.1 1 2.5 0 1.9 0.5 2.5 2.1 2.5 1.2 0 2.3 0.8 2.6 2 0.3 1.1 1.4 2 2.4 2 1.1 0 2.2 0.7 2.5 1.5 0.4 0.8 1.2 1.5 2 1.5 0.8 0 1.4 0.4 1.4 0.8 0 0.5 1.8 1.5 4 2.2 2.7 0.9 4 1.9 4 3.2 0 2.1 -2.2 2.3 -6.5 0.4z"/>
  <path d="M370 118 c0 -1.6 0.7 -2 3.5 -2 3.9 0 4.3 0.6 1.8 2.6 -2.7 2 -5.3 1.7 -5.3 -0.6z"/>
  <path d="M378 113.5 c0 -2 0.5 -2.5 2.4 -2.5 1.8 0 2.5 -0.6 2.8 -2.2 0.2 -1.3 1.3 -2.7 2.6 -3.3 1.2 -0.5 2.2 -1.8 2.2 -2.7 0 -1 0.6 -1.8 1.4 -1.8 0.7 0 1.6 -1.3 2 -3 0.4 -2.4 1.1 -3 3.1 -3 2.8 0 3 0.3 1.3 3.3 -3.4 6.5 -14.2 17.7 -16.9 17.7 -0.5 0 -0.9 -1.1 -0.9 -2.5z"/>
  <path d="M310.5 93.7 c-3.5 -8.5 -4.1 -21.7 -0.9 -21.7 1 0 1.4 1.3 1.4 4.8 0 2.6 0.7 6.9 1.5 9.6 2.7 8.9 1.1 14.8 -2 7.3z"/>
  <path d="M396.5 68.5 c-0.4 -3 -1 -5.5 -1.4 -5.5 -0.4 0 -1.3 -1.7 -2 -3.7 -0.8 -2.1 -2 -4.3 -2.7 -5.1 -1.6 -1.6 -1.9 -8.6 -0.4 -7.7 3.3 2.1 9.4 15.4 10.6 23.2 0.6 3.9 0.4 4.3 -1.4 4.3 -1.7 0 -2.2 -0.9 -2.7 -5.5z"/>
  <path d="M308.5 67.3 c0.4 -2.1 1 -4.2 1.5 -4.8 0.4 -0.5 1 -2.2 1.3 -3.6 0.8 -3.3 7.4 -13.2 9.8 -14.7 1.7 -1.1 1.9 -0.9 1.9 1.8 0 2 -0.5 3 -1.5 3 -0.8 0 -1.5 0.9 -1.5 2 0 1.1 -0.4 2 -0.9 2 -0.5 0 -1.2 1.1 -1.5 2.5 -0.4 1.4 -1.1 2.5 -1.6 2.5 -0.6 0 -1 0.9 -1 2 0 1.1 -0.4 2 -0.9 2 -0.5 0 -1.2 2 -1.5 4.5 -0.6 3.7 -1.1 4.5 -2.8 4.5 -1.8 0 -1.9 -0.4 -1.3 -3.7z"/>
  <path d="M380 42.5 c0 -0.8 -0.9 -1.5 -2 -1.5 -1.1 0 -2 -0.7 -2 -1.5 0 -0.9 -0.9 -1.5 -2.5 -1.5 -1.4 0 -2.5 -0.4 -2.5 -0.9 0 -0.8 -2.3 -1.4 -11.2 -2.7 -2.9 -0.5 -3.8 -1.1 -3.8 -2.5 0 -5 18.4 0.8 27.5 8.6 l4 3.4 -3.7 0.1 c-2.7 0 -3.8 -0.4 -3.8 -1.5z"/>
  <path d="M325.4 40.1 c2.6 -2.8 10.6 -6.9 17.1 -8.6 7.8 -2 9.5 -1.9 9.5 0.4 0 1.4 -0.9 2 -3.9 2.4 -4 0.5 -16.4 5.6 -16.9 6.9 -0.2 0.4 -2 0.8 -3.9 0.8 -3.5 0 -3.5 -0.1 -1.9 -1.9z"/>
 </g>
 <g fill="#409cb4">
  <path d="M210.8 541.3 c-1 -0.2 -1.8 -1.1 -1.8 -1.9 0 -1.1 1.6 -1.4 7.2 -1.4 7.7 0 18.8 -1.9 18.8 -3.2 0 -0.4 1.6 -0.8 3.5 -0.8 2.8 0 3.5 -0.4 3.5 -2 0 -1.6 0.7 -2 3.7 -2 3.5 0 3.5 0.1 1.9 1.9 -5.8 6.4 -27.3 11.9 -36.8 9.4z"/>
  <path d="M196.9 536.8 c-3.5 -1.8 -8.6 -5.5 -11.4 -8.3 l-5 -5 3 -0.3 c2.3 -0.3 3.6 0.4 6.2 3.2 1.8 2 3.8 3.6 4.3 3.6 0.6 0 1 0.5 1 1 0 0.6 0.7 1 1.5 1 0.8 0 1.5 0.4 1.5 0.9 0 0.5 1.4 1.1 3 1.5 2.4 0.4 3 1.1 3 3.1 0 1.4 -0.2 2.5 -0.3 2.5 -0.2 0 -3.3 -1.4 -6.8 -3.2z"/>
  <path d="M252 523.8 c0 -2 0.3 -3.8 0.8 -4 0.4 -0.1 1.8 -2.3 3.1 -4.8 1.4 -2.5 2.9 -4.8 3.5 -5.2 0.7 -0.5 1.1 -5.8 1 -14.8 0 -10.2 0.3 -14 1.2 -14 1.6 0 3.4 7.7 3.4 14.7 0 10.5 -3.7 21.2 -9.9 28.3 l-3 3.5 -0.1 -3.7z"/>
  <path d="M176.1 515.3 c-3.7 -7.1 -5.1 -21.1 -3 -30.2 2.4 -10.5 10.2 -21.8 19.3 -28 4.3 -2.9 14.9 -7 19.1 -7.3 1.8 -0.2 2.5 -0.8 2.5 -2.3 0 -8.7 0.9 -27.8 1.4 -28.2 1.6 -1.6 2.1 2 2.1 15 l0 14.2 3 0.5 c1.8 0.3 3.1 1.2 3.3 2.3 0.3 1.5 -0.3 1.8 -4 1.6 -4.3 -0.2 -15.8 1.9 -16.8 3.1 -0.3 0.3 -2.5 1.8 -5 3.2 -2.5 1.4 -5.4 3.5 -6.4 4.7 -1.1 1.2 -2.5 2.1 -3.3 2.1 -0.7 0 -1.3 0.7 -1.3 1.5 0 0.8 -0.9 2 -2 2.7 -1.1 0.7 -2 1.8 -2 2.5 0 0.7 -0.4 1.3 -1 1.3 -0.5 0 -1 0.6 -1 1.4 0 0.8 -0.6 2.1 -1.3 2.8 -2.5 2.6 -4 12.3 -3.4 22 0.3 5.1 1.1 9.4 1.7 9.6 1.3 0.5 1.3 7.2 0 7.2 -0.5 0 -1.3 -0.8 -1.9 -1.7z"/>
  <path d="M254.5 474.3 c-2.3 -4.3 -8.2 -10.3 -13.7 -14.1 -2.6 -1.7 -3.8 -3.2 -3.8 -4.8 0 -1.8 0.4 -2.2 1.8 -1.7 6.1 2.3 16.6 12.3 20.3 19.5 2.4 4.7 2.4 4.8 -0.4 4.8 -1.6 0 -2.8 -1.1 -4.2 -3.7z"/>
  <path d="M350.5 445.8 c-0.2 -1.3 -0.4 -12.4 -0.2 -24.7 0.2 -20.6 0.1 -22.5 -1.5 -22.9 -1 -0.2 -1.8 -1.3 -1.8 -2.3 0 -1.6 0.8 -1.9 5 -1.9 4.2 0 5 0.3 5 1.9 0 1 -0.9 2.1 -2 2.4 -1.9 0.5 -2 1.4 -2 24.5 0 14.5 -0.4 24.3 -1 24.7 -0.5 0.3 -1.2 -0.4 -1.5 -1.7z"/>
  <path d="M161.4 413.5 c0.3 -0.8 2 -3.9 3.9 -6.7 6.1 -9.7 6.7 -12.2 6.7 -29.7 l0 -15.8 -3.1 -0.7 c-6.1 -1.2 -36.4 -0.7 -38.1 0.7 -0.9 0.6 -2.1 3.6 -2.8 6.5 -0.8 3.4 -1.7 5.2 -2.7 5.2 -1.6 0 -1.5 -4.2 0.4 -17.7 0.7 -5.3 2.9 -5.7 3.9 -0.8 l0.6 3.5 20.9 0 c17.9 0 20.9 -0.2 20.9 -1.5 0 -0.8 0.5 -1.5 1 -1.5 0.6 0 1 0.9 1 2 0 1.1 0.5 2 1 2 1.7 0 1.3 32.7 -0.5 38.8 -0.9 2.9 -2 5.2 -2.5 5.2 -0.6 0 -1 0.7 -1 1.6 0 2.6 -3.1 7 -6 8.8 -3.5 2 -4.4 2 -3.6 0.1z"/>
  <path d="M268.3 411.3 c-6.2 -3.7 -7.7 -5.3 -4.8 -5.3 1.1 0 1.3 -0.8 0.8 -3.2 -0.3 -1.8 -1.1 -3.6 -1.7 -4 -0.7 -0.5 -1.2 -8.8 -1.4 -24.8 -0.3 -20.4 -0.1 -24 1.1 -24 1.6 0 2.7 2.1 2.7 5.1 0 1.6 0.7 1.9 5.5 1.9 4.2 0 5.5 0.3 5.5 1.5 0 1.1 -1.3 1.5 -5.4 1.5 -4.3 0 -5.5 0.4 -5.8 1.8 -0.6 2.1 0 28.3 0.7 32.8 0.3 1.7 2.8 6.9 5.5 11.4 2.8 4.6 5 8.5 5 8.7 0 0.9 -2 0 -7.7 -3.4z"/>
  <path d="M215 407 c0 -1.9 -0.7 -2 -16.9 -2 -12.8 0 -17.7 0.4 -20.5 1.5 -3.6 1.5 -3.6 1.5 -3.6 -0.9 0 -1.9 0.7 -2.7 3.3 -3.4 3.4 -1.1 38.9 -2.3 43.2 -1.4 3.6 0.6 3.4 4 -0.2 4.4 -2 0.2 -2.7 0.8 -2.5 2.1 0.2 1 -0.3 1.7 -1.3 1.7 -0.8 0 -1.5 -0.9 -1.5 -2z"/>
  <path d="M399 401.9 c-6.5 -3.9 -8.4 -5.9 -5.8 -5.9 1 0 1.2 -2.4 1 -11.5 -0.3 -9.7 -0.1 -11.5 1.1 -11.5 2 0 3.1 4.9 2.2 9.9 -0.9 5.4 0.7 10.4 5.5 17.3 2.3 3.2 3.8 5.8 3.3 5.8 -0.4 -0.1 -3.7 -1.9 -7.3 -4.1z"/>
  <path d="M225 403 c0 -1.9 0.7 -2 15 -2 14.3 0 15 0.1 15 2 0 1.9 -0.7 2 -15 2 -14.3 0 -15 -0.1 -15 -2z"/>
  <path d="M305.5 399.9 c1.9 -2.8 4 -6.8 4.6 -9 1.8 -5.7 4.3 -5.3 3.7 0.6 -0.4 3.4 -0.2 4.5 0.8 4.5 0.8 0 1.4 0.4 1.4 0.9 0 1 -11.3 8.1 -12.9 8.1 -0.6 0 0.4 -2.3 2.4 -5.1z"/>
  <path d="M67.8 400.6 c-7.4 -2.6 -12.5 -5.5 -15.3 -8.6 -1.8 -2 -1.8 -2 1.9 -2 2.2 0 3.9 0.5 4.2 1.4 0.3 0.8 1.6 1.7 3 2 1.3 0.4 2.4 1.1 2.4 1.6 0 0.6 1.6 1 3.5 1 1.9 0 3.5 0.4 3.5 1 0 0.5 1.8 1.3 4 1.6 3 0.5 4 1.1 4 2.5 0 2.6 -2.9 2.4 -11.2 -0.5z"/>
  <path d="M85 401.4 c0 -1.6 1.2 -2.2 6.5 -3.2 8.2 -1.5 10.8 -1.5 10.3 0.1 -0.5 1.4 -6.5 3.6 -12.5 4.4 -3.8 0.5 -4.3 0.3 -4.3 -1.3z"/>
  <path d="M111 390.2 c0 -3.2 1.6 -5.2 4.2 -5.2 1.3 0 1.8 -0.8 1.8 -2.5 0 -1.4 0.5 -2.5 1 -2.5 0.6 0 1 -0.7 1 -1.5 0 -0.9 0.9 -1.5 2.5 -1.5 1.4 0 2.5 0.4 2.5 0.9 0 1.5 -8.7 12.5 -10.9 13.9 -1.9 1.1 -2.1 1 -2.1 -1.6z"/>
  <path d="M46.4 385.8 c-3.3 -3.6 -7.2 -11.6 -9 -18.8 -4.8 -18.7 4.2 -40.8 20.4 -50.3 10.6 -6.2 21.2 -8.6 21.2 -4.8 0 1.4 -1 2 -4.2 2.5 -9.4 1.5 -23.9 11.7 -28.3 19.9 -1.1 2 -2.5 3.7 -3.1 3.7 -0.6 0 -1.5 2.4 -2 5.3 -1.6 10.4 -0.5 29.7 1.7 29.7 0.5 0 0.9 1.6 0.9 3.5 0 2.9 0.4 3.5 2 3.5 2.4 0 3.3 1.7 2.8 5.5 l-0.3 2.7 -2.1 -2.4z"/>
  <path d="M70.7 366.3 c-0.4 -0.3 -0.7 -2.1 -0.7 -4 0 -4.1 2.1 -4.4 4.6 -0.5 0.9 1.5 2.5 3.2 3.3 3.9 1.3 1 0.9 1.2 -2.5 1.3 -2.2 0 -4.4 -0.3 -4.7 -0.7z"/>
  <path d="M393.5 361.6 c-0.9 -7.1 -0.4 -9 2.3 -9.4 1.8 -0.3 2.2 0.1 2.2 2.2 0 2.6 0.1 2.6 8.3 2.8 4.5 0.1 13.4 0 19.7 -0.1 6.3 -0.2 12.6 0.2 14 0.7 1.4 0.6 1.9 1.2 1.3 1.3 -0.7 0.1 -1.7 0.3 -2.3 0.4 -0.5 0.1 -9.9 0.3 -20.9 0.4 l-19.9 0.1 -0.6 3.5 c-1.1 5.5 -3.3 4.4 -4.1 -1.9z"/>
  <path d="M311 361.6 c0 -1.2 -1 -1.6 -4 -1.6 -3.8 0 -5.8 -1.9 -2.2 -2.1 0.9 -0.1 2.4 -0.2 3.2 -0.3 0.8 0 1.8 -1.8 2.3 -3.8 0.5 -2.2 1.5 -3.8 2.3 -3.8 2 0 1.9 9.6 -0.1 11.6 -1.3 1.4 -1.5 1.4 -1.5 0z"/>
  <path d="M90.1 350.7 c-0.7 -0.9 -3.1 -2.2 -5.2 -2.9 -5.7 -1.7 -5.1 -3.8 1.1 -3.8 5.5 0 6.4 0.9 5.8 5.6 -0.3 2.5 -0.4 2.6 -1.7 1.1z"/>
  <path d="M342.6 348.3 c-0.3 -0.4 -0.6 -2.1 -0.6 -3.8 l0 -3.2 6.8 -0.6 c12.5 -1.2 13.2 -1.1 13.2 2.3 0 3.3 -0.2 3.5 -3.2 1.9 -3.5 -1.9 -8.6 -1.3 -12.2 1.5 -1.8 1.4 -3.6 2.2 -4 1.9z"/>
  <path d="M120.8 337.9 c-1 -1.7 -1.8 -4.2 -1.8 -5.5 0 -1.7 -0.6 -2.4 -1.9 -2.4 -1 0 -3.4 -1.7 -5.3 -3.7 -1.9 -2.1 -4.6 -4.4 -6.1 -5.2 -1.5 -0.8 -2.7 -2 -2.7 -2.7 0 -0.6 -1.5 -1.4 -3.2 -1.7 -8.6 -1.5 -12.8 -3.2 -12.8 -5.1 0 -1.6 0.5 -1.8 4.5 -1.3 5.4 0.8 15.4 5.7 21.2 10.3 4.8 3.9 10.6 11.6 12.8 16.8 1.5 3.5 1.5 3.6 -0.7 3.6 -1.5 0 -2.9 -1.1 -4 -3.1z"/>
  <path d="M172.6 337.8 c-0.3 -1.3 -0.6 -5.3 -0.6 -8.9 0 -3.7 -0.7 -8.3 -1.5 -10.3 -1.5 -3.6 -1.5 -3.6 0.9 -3.6 3.2 0 3.8 1.7 4.4 14.3 0.4 9.1 0.2 10.7 -1.1 10.7 -0.8 0 -1.7 -1 -2.1 -2.2z"/>
  <path d="M261 329.8 c0 -9.5 1.5 -15.8 3.7 -15.8 0.7 0 1.3 -0.9 1.3 -2 0 -1.9 0 -1.9 -4.6 0 -3.7 1.6 -6.9 2 -16.5 2 -9.5 0 -11.9 -0.3 -11.9 -1.4 0 -2 3.2 -2.6 13.5 -2.6 8.5 0 9.5 -0.2 16.5 -3.8 4.1 -2.1 8.5 -4.4 9.7 -5.2 3.9 -2.5 3.7 -0.3 -0.7 6.6 -5.4 8.6 -7 13.3 -7 20.8 0 7.5 -0.8 10.6 -2.6 10.6 -1.1 0 -1.4 -2 -1.4 -9.2z"/>
  <path d="M310.2 318.8 c-0.6 -2.4 -0.8 -4.4 -0.4 -4.6 0.5 -0.1 -1.1 -2.3 -3.5 -4.7 -3.7 -3.9 -5.5 -7.5 -3.8 -7.5 0.3 0 2.9 1.8 5.8 3.9 l5.2 4 18 0.2 18 0.2 0.2 -5.9 c0.9 -22.5 0.7 -40.4 -0.4 -40.4 -0.7 0 -1.3 -0.7 -1.3 -1.5 0 -1.1 1.1 -1.5 4 -1.5 2.8 0 4 0.4 4 1.4 0 0.8 -0.7 1.6 -1.6 1.8 -1.5 0.3 -1.6 2.7 -1.5 22.3 0.2 20.7 0.8 25.4 3.1 24 1.3 -0.8 4 0.6 4 2.1 0 1.2 -4 1.4 -23 1.4 l-23 0 0 4.5 c0 5.9 -2.4 6.1 -3.8 0.3z"/>
  <path d="M394 319.1 c0 -2.9 0.5 -4.1 1.8 -4.4 0.9 -0.3 -0.9 -0.5 -4 -0.6 -4.2 -0.1 -5.8 -0.5 -5.8 -1.5 0 -1.4 2.9 -2.6 6.5 -2.6 1.1 0 4.4 -1.8 7.3 -4 7.7 -5.9 8.3 -5.1 2.3 3.4 -2.1 3.1 -4.1 7.4 -4.5 9.6 -0.9 5.5 -3.6 5.6 -3.6 0.1z"/>
  <path d="M174 311.9 c-2.4 -1.1 -4.7 -2.4 -5 -2.8 -0.3 -0.5 -1.5 -1.1 -2.8 -1.5 -1.9 -0.6 -5.2 -5.1 -5.2 -7.1 0 -1.2 2.4 -0.3 6.5 2.5 8.6 5.9 12.6 7 25.3 7 12.9 0 16.2 0.6 16.2 2.6 0 1.1 -2.9 1.4 -15.2 1.3 -13 0 -16 -0.3 -19.8 -2z"/>
  <path d="M215.5 292.8 c-1.1 -6 -0.1 -28.1 1.3 -28.6 0.9 -0.3 1.2 3.3 1.2 15.7 0 9.6 -0.4 16.1 -1 16.1 -0.5 0 -1.2 -1.5 -1.5 -3.2z"/>
  <path d="M298 273.8 c0 -1.6 7.2 -13.8 8.2 -13.8 1.2 0 1 5.5 -0.2 8.2 -1.3 2.6 -8 7.4 -8 5.6z"/>
  <path d="M405.1 271.5 c-3 -1.9 -8.1 -4.5 -11.3 -5.7 -8.8 -3.5 -7.5 -5.8 2.5 -4.2 2.7 0.5 3.7 1.1 3.7 2.5 0 1.1 0.5 1.9 1 1.9 0.6 0 1 -1.3 1 -3 0 -1.6 0.4 -3 0.8 -3 0.7 0 9.2 13.4 9.2 14.5 0 1.1 -1.7 0.3 -6.9 -3z"/>
  <path d="M311 264.5 c0 -2.2 0.4 -2.5 3.6 -2.5 4.4 0 4.2 1.8 -0.4 3.7 -3.1 1.3 -3.2 1.2 -3.2 -1.2z"/>
  <path d="M493 261.2 c0 -1.5 1.4 -2.1 6.5 -3.2 3.6 -0.7 6.5 -1.7 6.5 -2.2 0 -0.4 1.6 -0.8 3.5 -0.8 4.7 0 4.4 1.4 -0.7 3.8 -9.1 4.2 -15.8 5.2 -15.8 2.4z"/>
  <path d="M307.8 253.5 c1.7 -6.2 4.2 -7.5 4.2 -2.2 0 5.5 -1 7.7 -3.5 7.7 -2.2 0 -2.2 0 -0.7 -5.5z"/>
  <path d="M397.6 255.3 c-0.3 -2.1 -0.6 -11.9 -0.8 -21.8 -0.3 -17.4 -0.2 -18 1.7 -18 1.1 0 2 0.5 2 1 0.1 3.1 1.8 3.5 16.1 3.5 10.8 0 14.4 0.3 14.4 1.3 0 0.9 -3.6 1.2 -14.7 1.2 l-14.8 0 -0.3 15.5 c-0.1 8.5 0.2 16.7 0.7 18.2 0.9 2.6 0.8 2.8 -1.4 2.8 -1.9 0 -2.4 -0.6 -2.9 -3.7z"/>
  <path d="M461.8 254.1 c-3 -2.2 -6.3 -5.1 -7.2 -6.5 -1.6 -2.6 -1.6 -2.6 1.3 -2.6 1.9 0 3.6 0.8 4.8 2.3 1 1.3 2.6 2.6 3.6 3 0.9 0.3 1.7 1.1 1.7 1.7 0 0.5 0.7 1 1.5 1 0.9 0 1.5 0.9 1.5 2.5 0 1.4 -0.4 2.5 -0.8 2.5 -0.5 0 -3.4 -1.8 -6.4 -3.9z"/>
  <path d="M514 253.4 c0 -3.3 7.3 -11.4 10.2 -11.4 1.3 0 1.8 -0.8 1.8 -3 0 -2 0.5 -3 1.5 -3 0.9 0 1.5 -0.9 1.5 -2.3 0 -1.3 0.7 -4.5 1.6 -7.2 2.1 -6.1 1.5 -22.6 -1 -25.1 -0.9 -0.8 -1.6 -2.4 -1.6 -3.5 0 -1 -0.4 -1.9 -1 -1.9 -0.5 0 -1 -0.7 -1 -1.5 0 -0.8 -0.4 -1.5 -1 -1.5 -0.5 0 -1 -0.9 -1 -2 0 -1.1 -0.6 -2 -1.4 -2 -0.8 0 -2.6 -1.3 -3.9 -3 -1.4 -1.6 -3 -3 -3.6 -3 -0.5 0 -1.4 -0.6 -1.8 -1.3 -1.1 -1.7 -11.8 -6.4 -18.1 -7.9 -3.9 -0.9 -6.7 -0.9 -11.2 0 -6.6 1.2 -17.9 6.3 -20.6 9.3 -0.9 1 -2.3 1.9 -3.1 1.9 -0.7 0 -1.3 0.6 -1.3 1.4 0 0.8 -1.1 2.3 -2.5 3.4 -1.4 1.1 -2.5 2.5 -2.5 3.1 0 0.6 -0.7 1.1 -1.5 1.1 -0.9 0 -1.5 0.9 -1.5 2.3 0 3.3 -1.4 4.9 -3.9 4.5 -2.2 -0.3 -2.2 -0.3 0.6 -5.7 4.5 -8.8 12.4 -16.6 20.8 -20.6 14.3 -6.7 27.6 -6.7 41.3 0.1 28 13.8 34.8 49.3 13.9 73 -2.1 2.4 -5.2 5.3 -6.8 6.4 l-2.9 2.1 0 -2.7z"/>
  <path d="M444.1 227.5 c-1 -3.9 -1.5 -4.5 -3.9 -4.6 -1.5 -0.1 -3 -0.1 -3.4 0 -0.5 0 -0.8 -0.5 -0.8 -1.3 0 -0.9 1.2 -1.6 3.2 -1.8 2.5 -0.2 3.3 -0.8 3.4 -2.3 0.2 -4.6 0.5 -5.5 1.8 -5.5 0.9 0 1.5 1.7 1.9 5.3 0.3 2.8 0.9 7.3 1.3 10 0.5 3.8 0.4 4.7 -0.9 4.7 -0.9 0 -1.9 -1.7 -2.6 -4.5z"/>
  <path d="M308.7 222 c-0.5 -1.9 -1.4 -2 -22.1 -2 -18.5 0 -21.6 -0.2 -21.6 -1.5 0 -1.3 3.1 -1.5 21.6 -1.5 20.7 0 21.6 -0.1 22.1 -2 0.3 -1.1 1.2 -2 1.9 -2 1 0 1.4 1.5 1.4 5.5 0 4 -0.4 5.5 -1.4 5.5 -0.7 0 -1.6 -0.9 -1.9 -2z"/>
  <path d="M131.3 219.3 c-0.7 -0.2 -1.3 -0.9 -1.3 -1.4 0 -0.6 8.3 -0.8 20.8 -0.7 12.9 0.2 20.7 0.7 20.7 1.3 0 1 -37.9 1.8 -40.2 0.8z"/>
  <path d="M397 190.1 c0 -6.9 0.5 -12.3 1.4 -14.9 l1.5 -4.1 -2.5 0.9 c-1.4 0.6 -4.3 1 -6.5 1 -4.9 0 -5.4 -2.5 -0.6 -3.5 4.1 -0.9 10 -3.9 15.4 -7.8 5 -3.5 6.5 -2.9 3.9 1.6 -7.8 13.1 -8.6 15.5 -8.6 24.5 0 10 -0.7 13.2 -2.6 13.2 -1.1 0 -1.4 -2.3 -1.4 -10.9z"/>
  <path d="M308.4 182 c-0.4 -2.2 -3 -8.2 -6 -13.3 -2.9 -5 -4.9 -9.3 -4.4 -9.5 0.4 -0.2 3.6 1.5 7.1 3.8 3.5 2.2 8.5 4.8 11.1 5.8 6.2 2.2 6.6 4.7 0.6 3.9 -2.4 -0.2 -5.1 -0.8 -6 -1.2 -1.7 -0.7 -1.7 -0.5 -0.3 2.9 2 4.7 2 11.6 0 11.6 -1 0 -1.7 -1.4 -2.1 -4z"/>
  <path d="M350.7 170.9 c-0.3 -1.1 -0.6 -12.3 -0.6 -24.7 0 -19.6 -0.2 -22.7 -1.6 -23 -0.8 -0.2 -1.5 -1 -1.5 -1.8 0 -1.1 1.6 -1.4 7 -1.4 5.5 0 7 0.3 7 1.5 0 1 -1.4 1.7 -4 2.1 l-4 0.7 0 22.3 0 22.4 2.5 0.6 c3.8 0.9 3.2 3.4 -0.9 3.4 -2.6 0 -3.5 -0.5 -3.9 -2.1z"/>
  <path d="M214.4 168.7 c-0.2 -0.7 -0.3 -10.9 -0.2 -22.6 0.2 -16.1 0.6 -21.5 1.6 -21.9 0.9 -0.3 1.2 4.7 1.2 22.7 0 15.2 -0.4 23.1 -1 23.1 -0.6 0 -1.3 -0.6 -1.6 -1.3z"/>
  <path d="M369 118.7 c0 -2.6 3.4 -4.7 7.5 -4.7 1.7 0 2.5 -0.6 2.7 -2.2 0.2 -1.9 1 -2.4 4.1 -2.6 3.5 -0.3 3.7 -0.5 3.7 -3.8 0 -1.9 0.5 -3.4 1 -3.4 0.6 0 1 -0.7 1 -1.5 0 -0.9 0.7 -1.8 1.5 -2.1 0.8 -0.4 1.5 -1.4 1.5 -2.5 0 -1 0.6 -2.2 1.3 -2.6 1.5 -0.9 3.7 -11.1 3.7 -16.8 0 -4.7 -2.1 -15.5 -3.1 -15.5 -0.4 0 -1.3 -1.5 -2 -3.2 -4.5 -11.1 -24.5 -23.8 -37.2 -23.8 -7.4 0 -22.8 5.6 -25.5 9.2 -0.7 1 -2.6 1.8 -4.3 1.8 -2.6 0 -2.9 0.3 -2.9 3 0 1.8 -0.6 3.3 -1.5 3.6 -0.8 0.4 -1.5 1.2 -1.5 2 0 0.8 -0.7 1.4 -1.5 1.4 -0.9 0 -1.5 0.9 -1.5 2.5 0 2 -0.5 2.5 -2.5 2.5 -2.9 0 -2.7 -1.1 2 -8.5 16.3 -25.6 53.2 -28.3 73.9 -5.5 7.3 8 12.4 23.4 11.3 34 -1.9 17.7 -12.9 33.2 -28.2 39.6 -3.4 1.4 -3.5 1.4 -3.5 -0.9z"/>
  <path d="M327.4 114.6 c-9.5 -7 -14.4 -13.7 -17.6 -24.1 -2.4 -8 -2.4 -12.5 0 -12.5 1.8 0 3.3 5.4 4.9 17.3 0.4 2.8 1 3.7 2.4 3.7 1 0 1.9 0.6 1.9 1.4 0 0.8 0.7 1.6 1.5 2 0.8 0.3 1.5 1.4 1.5 2.5 0 1.3 0.8 2.1 2.3 2.3 1.2 0.2 2.6 1.3 3.2 2.6 0.5 1.2 1.8 2.2 2.7 2.2 1 0 1.8 0.5 1.8 1 0 0.6 0.7 1 1.5 1 0.9 0 1.5 0.9 1.5 2.5 0 1.4 -0.4 2.5 -0.9 2.5 -0.5 0 -3.5 -2 -6.7 -4.4z"/>
  <path d="M308.4 68.9 c1.2 -7.3 4.6 -11 4.6 -5 0 5.9 -1.2 9.1 -3.3 9.1 -1.7 0 -1.9 -0.4 -1.3 -4.1z"/>
 </g>
 <g fill="#5acfe6">
  <path d="M205 540.1 c-11.3 -3.5 -23.2 -13.6 -28 -23.6 -5.9 -12.4 -6 -29.1 -0.1 -41 5.6 -11.3 18.6 -21.7 30.6 -24.5 2.8 -0.6 6 -1.6 7.2 -2.2 1.1 -0.6 2.6 -0.7 3.2 -0.3 0.7 0.3 2.8 0.9 4.9 1.1 15 1.8 27.5 9.9 35.6 23.3 4.6 7.5 5.9 14 5.4 26.5 -0.3 9.2 -0.7 10.7 -3.7 16.4 -9.6 17.7 -22.3 25.3 -42.3 25.1 -5.7 0 -11.4 -0.4 -12.8 -0.8z"/>
  <path d="M215.2 425.3 l0.3 -21.8 -16.5 0.3 -16.5 0.2 -8.6 4.4 c-4.8 2.4 -9.2 4 -9.8 3.7 -0.8 -0.5 0 -2.6 2.4 -6.7 5.4 -9 6.5 -13.9 6.5 -29.4 0 -7.5 -0.4 -14 -0.9 -14.5 -0.5 -0.6 -0.5 -5 0.1 -11 0.5 -5.5 0.8 -14.3 0.5 -19.5 -0.4 -9.9 -2 -14.4 -8.4 -24.1 -3.9 -5.9 -2.7 -7.5 2.7 -3.7 10.2 7 13.5 7.8 31 7.8 11.5 0 16.1 -0.3 16.6 -1.2 0.5 -0.7 1.1 -7.1 1.4 -14.3 l0.6 -13 0.7 11 c0.4 6.1 0.9 12.3 1 14 l0.2 2.9 17.6 0.4 17.6 0.4 7.4 -3.5 c4.1 -2 8.9 -4.5 10.7 -5.7 4.2 -2.8 4.1 -1.3 -0.2 5.9 -7.4 12 -7.7 13.7 -7.5 32.7 l0.2 17.2 9.1 -0.1 c20.7 -0.2 34.6 0.3 34.6 1.3 0 0.6 -7.2 1 -19.5 1 -14.9 0 -19.5 -0.3 -19.5 -1.2 0 -0.9 -0.3 -0.9 -0.8 -0.2 -0.4 0.6 -1.5 1.3 -2.5 1.7 -1.7 0.6 -1.8 2 -1.5 17.4 l0.3 16.8 4.1 8 c4.8 9.4 4.8 11.5 -0.1 8.5 -1.8 -1.1 -6.6 -3.2 -10.7 -4.6 -6.9 -2.5 -8.1 -2.6 -23.1 -2.1 -8.7 0.2 -16.1 0.7 -16.4 1.1 -0.4 0.3 -0.8 1.8 -0.9 3.4 -0.3 3.4 -0.6 33.4 -0.3 34.7 0.3 2 -0.1 3.5 -1.2 3.5 -0.7 0 -0.9 -6.8 -0.7 -21.7z"/>
  <path d="M72.3 401.8 c-2.4 -0.5 -4.3 -1.2 -4.3 -1.6 0 -0.4 -1.1 -0.8 -2.4 -0.8 -3.4 -0.2 -12.9 -6.7 -17.7 -12.2 -7.8 -8.9 -10.9 -17.5 -10.9 -30.8 0 -10.6 1.8 -17.7 6.4 -24.9 10.4 -16.1 31.1 -24.7 49.5 -20.4 12 2.7 25.4 13 31 23.9 3 5.7 6.6 21.4 5.4 23.3 -0.3 0.5 -0.7 2.6 -0.8 4.6 -1 12.9 -12 28.7 -24.5 35.1 -8.4 4.3 -22.2 6 -31.7 3.8z m17.5 -38.1 c1.6 -1.5 2.2 -3.2 2.2 -6.5 0 -8.7 -6.9 -12.6 -14.4 -8.1 -4 2.3 -4.9 4.5 -4.3 10.4 0.4 3.5 0.9 4.2 4.3 5.7 4.6 2.1 8.9 1.5 12.2 -1.5z"/>
  <path d="M306 402 c-1.2 -0.7 -1.2 -1.2 0.3 -2.7 3.8 -4.3 4.7 -8.8 4.7 -24.2 0 -11 -0.3 -15.1 -1.2 -15.5 -1 -0.5 -1 -0.7 0 -1.2 0.9 -0.4 1.2 -5.5 1.2 -20.5 l0 -19.9 -4.6 -7.6 c-2.5 -4.2 -4.4 -7.7 -4.2 -7.9 0.2 -0.2 3 1.6 6.2 4 l5.8 4.4 39.7 0 39.6 0 3.7 -2.4 c3.2 -2.1 5.8 -3.1 5.8 -2.2 0 0.1 -1.4 2.9 -3.1 6.2 l-3 6 0.2 18.1 c0.1 9.9 0 18.5 -0.2 19 -0.3 0.5 -0.2 9 0.1 18.9 l0.5 18 3.2 4.7 c1.7 2.6 2.7 4.8 2.1 5 -0.6 0.2 -3.1 -0.7 -5.7 -1.9 -4.7 -2.3 -5 -2.4 -42.7 -2.4 -20.9 0 -38.9 0.3 -40 0.7 -1 0.4 -3 1.5 -4.5 2.5 -1.6 1.1 -3 1.4 -3.9 0.9z m55.4 -39.9 c2 -2 3 -4.3 3.3 -7.4 0.5 -4.1 0.2 -4.8 -2.8 -7.9 -2.5 -2.4 -4.2 -3.2 -6.4 -3.1 -1.6 0.1 -4.7 0.3 -6.7 0.3 -2.1 0.1 -3.6 0.6 -3.3 1.1 0.3 0.5 -0.1 1.9 -0.9 3.1 -2.9 4.6 -2.4 10.2 1.3 13.9 2.5 2.4 3.8 2.9 7.8 2.9 4.1 0 5.4 -0.5 7.7 -2.9z"/>
  <path d="M423.3 358.3 c2 -0.2 5.4 -0.2 7.5 0 2 0.2 0.3 0.4 -3.8 0.4 -4.1 0 -5.8 -0.2 -3.7 -0.4z"/>
  <path d="M216.4 273.5 c0 -4.9 0.1 -7.1 0.3 -4.8 0.2 2.3 0.2 6.4 0 9 -0.2 2.6 -0.3 0.8 -0.3 -4.2z"/>
  <path d="M406.7 272.2 c-0.4 -0.5 -2.7 -1.9 -5.2 -3.1 -2.5 -1.2 -4.5 -2.5 -4.5 -2.9 0 -1.3 -2.4 -1.4 -41.7 -1.8 l-38.1 -0.4 -7.6 3.9 c-8.6 4.6 -11.8 4.6 -8.6 0.1 1.1 -1.5 3.3 -5.6 5 -9.1 l2.9 -6.3 0 -35.9 c0.1 -39.8 0.3 -38.1 -6.9 -49.3 -2.2 -3.3 -4 -6.6 -4 -7.3 0 -0.6 2.6 0.5 5.8 2.5 11 7.1 12 7.4 30 7.4 15.9 0 16.3 -0.1 17.1 -2.2 l0.8 -2.2 1.2 2.2 c1.1 2.2 1.6 2.2 20.4 2.2 18.8 0 19.3 -0.1 24.2 -2.6 2.8 -1.5 6.6 -4 8.6 -5.5 6.2 -4.9 6.5 -3.5 1.2 4.8 -6.8 10.6 -7.4 13.4 -7.4 33.7 0 38 0.3 50.7 1.1 53.6 0.5 1.6 2.4 6 4.4 9.6 2.3 4.4 3.2 7.2 2.7 8.2 -0.5 0.9 -1.1 1.1 -1.4 0.4z m-45.9 -46.2 c1.2 0 4.2 -7.3 4.2 -10.3 0 -4.8 -4.1 -9.2 -9.4 -10.2 -3 -0.6 -4.4 -0.3 -7.6 1.9 -4.9 3.2 -6.4 7.5 -4.3 12.6 2.4 6 7.3 8.4 13.8 6.8 1.6 -0.5 3.1 -0.8 3.3 -0.8z"/>
  <path d="M477 261.4 c-14.9 -4 -30.3 -19.7 -32.5 -33.1 -0.4 -2.4 -1.1 -4.5 -1.5 -4.8 -1 -0.6 -0.4 -9.4 1.1 -17.5 3.1 -16 18.2 -31.1 34.9 -34.9 10.4 -2.4 21.7 -0.8 32.5 4.6 6.8 3.5 16.5 13.5 19.8 20.6 6.1 12.9 5.4 30.6 -1.6 42.7 -3.2 5.6 -13.8 15.9 -18.9 18.6 -10.4 5.3 -23 6.7 -33.8 3.8z"/>
  <path d="M428.7 222.4 c-1.7 -1.7 -0.3 -2.4 4.8 -2.4 3.9 0 5.5 0.4 5.5 1.3 0 1.4 -9 2.4 -10.3 1.1z"/>
  <path d="M142 219 c0 -0.5 1.1 -1 2.5 -1 1.4 0 2.5 0.5 2.5 1 0 0.6 -1.1 1 -2.5 1 -1.4 0 -2.5 -0.4 -2.5 -1z"/>
  <path d="M283 219 c0 -0.5 1.8 -1 4 -1 2.2 0 4 0.5 4 1 0 0.6 -1.8 1 -4 1 -2.2 0 -4 -0.4 -4 -1z"/>
  <path d="M297 219.1 c0 -0.8 4.7 -2.1 7.6 -2.1 0.8 0 1.4 0.7 1.4 1.5 0 1.1 -1.2 1.5 -4.5 1.5 -2.5 0 -4.5 -0.4 -4.5 -0.9z"/>
  <path d="M215 146.7 c0 -12.6 0.4 -21.7 0.9 -21.7 0.9 0 0.3 41.9 -0.5 42.9 -0.2 0.2 -0.4 -9.3 -0.4 -21.2z"/>
  <path d="M339.9 121.2 c-13.4 -4.5 -26.1 -17.4 -29.4 -29.9 -5 -19 -1.3 -34.4 11.3 -47 15.3 -15.4 39.8 -17.8 57.8 -5.6 8 5.4 13 11.2 16.7 19.2 5.1 10.7 5 27.2 -0.1 38.1 -4.7 10.2 -12.8 18.1 -23.9 23.3 -6 2.8 -8 3.2 -16.8 3.4 -7.6 0.2 -11.3 -0.1 -15.6 -1.5z"/>
 </g>
</svg>