<?xml version="1.0" encoding="UTF-8" standalone="no"?>
<!DOCTYPE svg PUBLIC "-//W3C//DTD SVG 1.1//EN" "http://www.w3.org/Graphics/SVG/1.1/DTD/svg11.dtd">
<svg width="100%" height="100%" viewBox="0 0 575 575" version="1.1" xmlns="http://www.w3.org/2000/svg" xmlns:xlink="http://www.w3.org/1999/xlink" xml:space="preserve" xmlns:serif="http://www.serif.com/" style="fill-rule:evenodd;clip-rule:evenodd;stroke-linejoin:round;stroke-miterlimit:2;">
    <g id="Rebuild">
        <rect x="212.899" y="122.282" width="4.835" height="48.167" style="fill:white;"/>
        <ellipse cx="82.587" cy="76.761" rx="46.519" ry="46.499"/>
        <ellipse cx="217.733" cy="76.761" rx="46.519" ry="46.499"/>
        <ellipse cx="490.536" cy="496.476" rx="46.519" ry="46.499"/>
        <ellipse cx="354.545" cy="216.163" rx="14.316" ry="14.292" style="fill:rgb(254,254,254);"/>
        <rect x="212.899" y="260.584" width="4.835" height="51.781" style="fill:white;"/>
        <rect x="348.712" y="260.584" width="4.835" height="51.172" style="fill:white;"/>
        <rect x="349.711" y="123.448" width="4.835" height="47" style="fill:white;"/>
        <rect x="348.712" y="397.806" width="4.835" height="52.53" style="fill:white;"/>
        <rect x="212.899" y="402.141" width="4.835" height="48.562" style="fill:white;"/>
        <rect x="217.733" y="402.141" width="3.498" height="48.562"/>
        <rect x="353.275" y="397.326" width="2.851" height="53.574"/>
        <rect x="353.275" y="258.714" width="2.851" height="55.573"/>
        <rect x="354.545" y="122.282" width="2.874" height="47.685"/>
        <rect x="217.733" y="262.418" width="3.498" height="49.947"/>
        <rect x="217.733" y="122.763" width="3.498" height="49.551"/>
        <rect x="128.776" y="211.595" width="43.455" height="4.666" style="fill:white;"/>
        <rect x="263.536" y="211.595" width="45.755" height="4.666" style="fill:white;"/>
        <rect x="398.93" y="211.595" width="45.038" height="4.666" style="fill:white;"/>
        <rect x="264.981" y="352.531" width="45.038" height="4.666" style="fill:white;"/>
        <rect x="398.93" y="352.531" width="45.038" height="4.666" style="fill:white;"/>
        <rect x="127.11" y="352.531" width="45.038" height="4.666" style="fill:white;"/>
        <rect x="126.295" y="216.261" width="45.558" height="2.809"/>
        <rect x="124.77" y="357.197" width="48.683" height="2.783"/>
        <rect x="265.601" y="357.197" width="43.798" height="2.783"/>
        <rect x="263.536" y="215.798" width="46.414" height="2.783"/>
        <rect x="399.348" y="357.197" width="45.745" height="2.783"/>
        <path d="M442.436,216.163L400.931,216.163L401.066,219.196C401.066,219.196 442.389,219.254 442.412,219.071C442.417,219.032 442.505,218.428 442.502,218.266C442.493,217.6 442.436,216.163 442.436,216.163Z"/>
        <ellipse cx="82.587" cy="216.261" rx="46.519" ry="46.499"/>
        <ellipse cx="217.733" cy="216.261" rx="46.519" ry="46.499"/>
        <ellipse cx="353.385" cy="496.476" rx="46.519" ry="46.499"/>
        <ellipse cx="490.536" cy="355.66" rx="46.519" ry="46.499"/>
        <ellipse cx="488.931" cy="215.107" rx="46.519" ry="46.499" style="fill:rgb(254,254,254);"/>
        <ellipse cx="354.545" cy="77.432" rx="46.519" ry="46.499" style="fill:rgb(254,254,254);"/>
        <ellipse cx="217.988" cy="496.476" rx="46.519" ry="46.499" style="fill:rgb(254,254,254);"/>
        <ellipse cx="81.651" cy="355.454" rx="46.519" ry="46.499" style="fill:rgb(254,254,254);"/>
        <ellipse cx="81.651" cy="355.454" rx="14.316" ry="14.292"/>
        <path d="M411.847,298.973C413.714,291.69 399.257,304.675 388.907,307.582C379.545,310.212 367.044,308.944 355.112,308.855C344.395,308.775 322.368,310.21 314.968,306.938C304.313,302.225 292.952,291.544 296.622,300.189C299.521,307.02 304.561,311.767 304.997,315.188C305.855,321.924 307.802,332.317 307.779,355.332C307.766,367.753 308.529,382.883 305.02,394.595C301.362,406.803 290.952,416.158 298.416,413.422C306.838,410.336 312.56,402.181 321.66,402.289C332.104,402.413 344.965,401.518 356.861,401.837C364.204,402.034 372.591,401.224 382.769,401.641C387.281,401.826 391.477,403.032 394.924,405.008C407.638,412.295 415.809,417.701 412.611,411.235C407.892,401.693 401.992,398.38 401.731,392.386C401.3,382.461 401.462,367.1 401.231,355.332C400.961,341.563 398.37,328.555 401.231,316.864C403.593,307.214 410.463,304.37 411.847,298.973Z" style="fill:white;"/>
        <path d="M411.847,159.682C413.714,152.399 399.257,165.384 388.907,168.291C379.545,170.921 367.044,169.653 355.112,169.564C344.395,169.484 322.368,170.919 314.968,167.646C304.313,162.934 292.952,152.252 296.622,160.898C299.521,167.729 304.561,172.476 304.997,175.897C305.855,182.633 307.802,193.026 307.779,216.04C307.766,228.462 308.529,243.592 305.02,255.304C301.362,267.512 290.952,276.867 298.416,274.131C306.838,271.045 312.56,262.89 321.66,262.998C332.104,263.122 344.965,262.227 356.861,262.546C364.204,262.743 372.591,261.933 382.769,262.35C387.281,262.535 391.477,263.741 394.924,265.717C407.638,273.004 415.809,278.41 412.611,271.944C407.892,262.401 401.992,259.089 401.731,253.095C401.3,243.17 401.462,227.809 401.231,216.04C400.961,202.272 398.37,189.264 401.231,177.573C403.593,167.923 410.463,165.079 411.847,159.682Z" style="fill:white;"/>
        <ellipse cx="354.545" cy="355.454" rx="14.316" ry="14.292"/>
        <ellipse cx="354.545" cy="216.163" rx="14.316" ry="14.292"/>
        <path d="M276.217,300.838C278.084,293.556 263.627,306.541 253.277,309.448C243.915,312.078 231.413,310.81 219.482,310.721C208.765,310.641 186.738,312.076 179.338,308.803C168.682,304.09 157.322,293.409 160.991,302.055C163.891,308.886 168.931,313.633 169.367,317.054C170.225,323.79 172.172,334.183 172.149,357.197C172.136,369.619 172.898,384.748 169.389,396.46C165.732,408.669 155.322,418.024 162.786,415.288C171.207,412.202 176.93,404.047 186.03,404.155C196.474,404.279 209.335,403.384 221.231,403.703C228.574,403.9 236.961,403.09 247.139,403.507C251.651,403.692 255.846,404.897 259.294,406.873C272.008,414.161 280.178,419.566 276.981,413.101C272.261,403.558 266.362,400.246 266.101,394.252C265.669,384.326 265.832,368.965 265.601,357.197C265.331,343.428 262.74,330.421 265.601,318.73C267.963,309.079 274.833,306.235 276.217,300.838Z" style="fill:white;"/>
    </g>
</svg>
